%TF.GenerationSoftware,KiCad,Pcbnew,(6.0.0)*%
%TF.CreationDate,2022-03-30T15:51:48+02:00*%
%TF.ProjectId,USBMIc,5553424d-4963-42e6-9b69-6361645f7063,rev?*%
%TF.SameCoordinates,Original*%
%TF.FileFunction,Copper,L4,Bot*%
%TF.FilePolarity,Positive*%
%FSLAX46Y46*%
G04 Gerber Fmt 4.6, Leading zero omitted, Abs format (unit mm)*
G04 Created by KiCad (PCBNEW (6.0.0)) date 2022-03-30 15:51:48*
%MOMM*%
%LPD*%
G01*
G04 APERTURE LIST*
%TA.AperFunction,ComponentPad*%
%ADD10R,1.600000X1.600000*%
%TD*%
%TA.AperFunction,ComponentPad*%
%ADD11C,1.600000*%
%TD*%
%TA.AperFunction,ComponentPad*%
%ADD12O,2.000000X1.450000*%
%TD*%
%TA.AperFunction,ComponentPad*%
%ADD13O,1.800000X1.150000*%
%TD*%
%TA.AperFunction,ViaPad*%
%ADD14C,0.400000*%
%TD*%
%TA.AperFunction,Conductor*%
%ADD15C,0.200000*%
%TD*%
G04 APERTURE END LIST*
D10*
%TO.P,X1,1,NC*%
%TO.N,unconnected-(X1-Pad1)*%
X83180000Y-92210000D03*
D11*
%TO.P,X1,14,Vcc*%
%TO.N,+3V3*%
X83180000Y-84590000D03*
%TO.P,X1,8,OUT*%
%TO.N,Net-(U3-Pad5)*%
X98420000Y-84590000D03*
%TO.P,X1,7,GND*%
%TO.N,GND*%
X98420000Y-92210000D03*
%TD*%
D12*
%TO.P,J1,6,Shield*%
%TO.N,GND*%
X73300000Y-69800000D03*
X73300000Y-77250000D03*
D13*
X69500000Y-69650000D03*
X69500000Y-77400000D03*
%TD*%
D14*
%TO.N,GND*%
X75500000Y-73400000D03*
%TO.N,CK*%
X89175020Y-65600000D03*
X90800000Y-65600000D03*
%TO.N,SD*%
X90200000Y-62300000D03*
X88200000Y-66000000D03*
%TO.N,RST*%
X78100000Y-79600000D03*
X78100000Y-80600000D03*
%TO.N,GND*%
X79100000Y-82200000D03*
%TO.N,Net-(R5-Pad1)*%
X81095980Y-63896203D03*
X80500000Y-69900000D03*
%TO.N,Net-(R6-Pad1)*%
X80200000Y-65700000D03*
X80300000Y-67100000D03*
%TO.N,GND*%
X78800000Y-78900000D03*
X72500000Y-74800000D03*
X76100000Y-78300000D03*
X77500000Y-76700000D03*
X74900000Y-90600000D03*
X67300000Y-88300000D03*
X67300000Y-85500000D03*
%TO.N,+3V3*%
X67200000Y-83000000D03*
%TO.N,GND*%
X83022650Y-75943376D03*
%TO.N,+3V3*%
X82200000Y-78600000D03*
X82800000Y-76500000D03*
%TO.N,GND*%
X90685931Y-79808441D03*
X89200000Y-79700000D03*
%TO.N,+3V3*%
X91200000Y-79500000D03*
X93900000Y-78800000D03*
%TO.N,GND*%
X97000000Y-78800000D03*
X97300000Y-76700000D03*
%TO.N,+3V3*%
X92000000Y-76500000D03*
%TO.N,GND*%
X94300000Y-71100000D03*
X90700000Y-68300000D03*
X95000000Y-66900000D03*
%TO.N,+3V3*%
X92100000Y-70500000D03*
X95000000Y-70500000D03*
X93000000Y-66500000D03*
%TO.N,GND*%
X92900000Y-63300000D03*
X95800000Y-61900000D03*
X101600000Y-69600000D03*
X99300000Y-69600000D03*
%TO.N,+3V3*%
X76700000Y-60800000D03*
%TO.N,GND*%
X84287718Y-68418281D03*
%TO.N,+3V3*%
X83700000Y-68300000D03*
X90220000Y-64880000D03*
X89175020Y-64800000D03*
%TO.N,GND*%
X91300000Y-64700000D03*
X88200000Y-64800000D03*
X92500000Y-59800000D03*
X85600000Y-59600000D03*
X85200000Y-61200000D03*
X83400000Y-64500000D03*
X81000000Y-64600000D03*
X78600000Y-64300000D03*
X74000000Y-67100000D03*
X69319809Y-65480191D03*
X71100000Y-65700000D03*
X72600000Y-63900000D03*
%TD*%
D15*
%TO.N,CK*%
X90800000Y-65600000D02*
X89175020Y-65600000D01*
%TO.N,SD*%
X87700489Y-64593095D02*
X87700489Y-65500489D01*
X89993584Y-62300000D02*
X87700489Y-64593095D01*
X90200000Y-62300000D02*
X89993584Y-62300000D01*
X87700489Y-65500489D02*
X88200000Y-66000000D01*
%TO.N,RST*%
X78100000Y-79600000D02*
X78100000Y-80600000D01*
%TO.N,Net-(R5-Pad1)*%
X79700489Y-65193095D02*
X80997381Y-63896203D01*
X79700489Y-69100489D02*
X79700489Y-65193095D01*
X80997381Y-63896203D02*
X81095980Y-63896203D01*
X80500000Y-69900000D02*
X79700489Y-69100489D01*
%TO.N,Net-(R6-Pad1)*%
X80300000Y-65800000D02*
X80200000Y-65700000D01*
X80300000Y-67100000D02*
X80300000Y-65800000D01*
%TD*%
M02*
