M48
; DRILL file {KiCad (6.0.0)} date Wed Mar 30 15:51:51 2022
; FORMAT={-:-/ absolute / inch / decimal}
; #@! TF.CreationDate,2022-03-30T15:51:51+02:00
; #@! TF.GenerationSoftware,Kicad,Pcbnew,(6.0.0)
; #@! TF.FileFunction,Plated,1,4,PTH
FMAT,2
INCH
; #@! TA.AperFunction,Plated,PTH,ViaDrill
T1C0.0079
; #@! TA.AperFunction,Plated,PTH,ComponentDrill
T2C0.0217
; #@! TA.AperFunction,Plated,PTH,ComponentDrill
T3C0.0315
; #@! TA.AperFunction,Plated,PTH,ComponentDrill
T4C0.0335
%
G90
G05
T1
X2.6457Y-3.2677
X2.6496Y-3.3661
X2.6496Y-3.4764
X2.7291Y-2.578
X2.7992Y-2.5866
X2.8543Y-2.9449
X2.8583Y-2.5157
X2.9134Y-2.6417
X2.9488Y-3.5669
X2.9724Y-2.8898
X2.9961Y-3.0827
X3.0197Y-2.3937
X3.0512Y-3.0197
X3.0748Y-3.1339
X3.0748Y-3.1732
X3.0945Y-2.5315
X3.1024Y-3.1063
X3.1142Y-3.2362
X3.1575Y-2.5866
X3.1614Y-2.6417
X3.1693Y-2.752
X3.189Y-2.5433
X3.1928Y-2.5156
X3.2362Y-3.0945
X3.2598Y-3.0118
X3.2686Y-2.9899
X3.2835Y-2.5394
X3.2953Y-2.689
X3.3184Y-2.6936
X3.3543Y-2.4094
X3.3701Y-2.3465
X3.4724Y-2.5512
X3.4724Y-2.5984
X3.5108Y-2.5512
X3.5108Y-2.5827
X3.5118Y-3.1378
X3.5512Y-2.4528
X3.552Y-2.5543
X3.5703Y-3.1421
X3.5709Y-2.689
X3.5748Y-2.5827
X3.5906Y-3.1299
X3.5945Y-2.5472
X3.622Y-3.0118
X3.626Y-2.7756
X3.6417Y-2.3543
X3.6575Y-2.4921
X3.6614Y-2.6181
X3.6969Y-3.1024
X3.7126Y-2.7992
X3.7402Y-2.6339
X3.7402Y-2.7756
X3.7717Y-2.437
X3.8189Y-3.1024
X3.8307Y-3.0197
X3.9094Y-2.7402
X4.0Y-2.7402
T3
X3.2748Y-3.3303
X3.2748Y-3.6303
X3.8748Y-3.3303
X3.8748Y-3.6303
T2
G00X2.749Y-2.7421
M15
G01X2.7234Y-2.7421
M16
G05
G00X2.749Y-3.0472
M15
G01X2.7234Y-3.0472
M16
G05
T4
G00X2.8967Y-2.748
M15
G01X2.875Y-2.748
M16
G05
G00X2.8967Y-3.0413
M15
G01X2.875Y-3.0413
M16
G05
T0
M30
