%TF.GenerationSoftware,KiCad,Pcbnew,(6.0.0)*%
%TF.CreationDate,2022-03-30T15:51:48+02:00*%
%TF.ProjectId,USBMIc,5553424d-4963-42e6-9b69-6361645f7063,rev?*%
%TF.SameCoordinates,Original*%
%TF.FileFunction,Paste,Top*%
%TF.FilePolarity,Positive*%
%FSLAX46Y46*%
G04 Gerber Fmt 4.6, Leading zero omitted, Abs format (unit mm)*
G04 Created by KiCad (PCBNEW (6.0.0)) date 2022-03-30 15:51:48*
%MOMM*%
%LPD*%
G01*
G04 APERTURE LIST*
G04 Aperture macros list*
%AMRoundRect*
0 Rectangle with rounded corners*
0 $1 Rounding radius*
0 $2 $3 $4 $5 $6 $7 $8 $9 X,Y pos of 4 corners*
0 Add a 4 corners polygon primitive as box body*
4,1,4,$2,$3,$4,$5,$6,$7,$8,$9,$2,$3,0*
0 Add four circle primitives for the rounded corners*
1,1,$1+$1,$2,$3*
1,1,$1+$1,$4,$5*
1,1,$1+$1,$6,$7*
1,1,$1+$1,$8,$9*
0 Add four rect primitives between the rounded corners*
20,1,$1+$1,$2,$3,$4,$5,0*
20,1,$1+$1,$4,$5,$6,$7,0*
20,1,$1+$1,$6,$7,$8,$9,0*
20,1,$1+$1,$8,$9,$2,$3,0*%
G04 Aperture macros list end*
%ADD10C,0.010000*%
%ADD11RoundRect,0.225000X0.250000X-0.225000X0.250000X0.225000X-0.250000X0.225000X-0.250000X-0.225000X0*%
%ADD12RoundRect,0.225000X0.225000X0.250000X-0.225000X0.250000X-0.225000X-0.250000X0.225000X-0.250000X0*%
%ADD13RoundRect,0.225000X-0.225000X-0.250000X0.225000X-0.250000X0.225000X0.250000X-0.225000X0.250000X0*%
%ADD14R,1.500000X1.600000*%
%ADD15RoundRect,0.075000X0.700000X0.075000X-0.700000X0.075000X-0.700000X-0.075000X0.700000X-0.075000X0*%
%ADD16RoundRect,0.075000X0.075000X0.700000X-0.075000X0.700000X-0.075000X-0.700000X0.075000X-0.700000X0*%
%ADD17RoundRect,0.150000X-0.512500X-0.150000X0.512500X-0.150000X0.512500X0.150000X-0.512500X0.150000X0*%
%ADD18R,2.750000X1.000000*%
%ADD19RoundRect,0.200000X0.275000X-0.200000X0.275000X0.200000X-0.275000X0.200000X-0.275000X-0.200000X0*%
%ADD20RoundRect,0.200000X-0.200000X-0.275000X0.200000X-0.275000X0.200000X0.275000X-0.200000X0.275000X0*%
%ADD21RoundRect,0.200000X0.200000X0.275000X-0.200000X0.275000X-0.200000X-0.275000X0.200000X-0.275000X0*%
%ADD22RoundRect,0.200000X-0.275000X0.200000X-0.275000X-0.200000X0.275000X-0.200000X0.275000X0.200000X0*%
%ADD23RoundRect,0.218750X-0.218750X-0.381250X0.218750X-0.381250X0.218750X0.381250X-0.218750X0.381250X0*%
%ADD24R,2.400000X0.740000*%
%ADD25R,1.300000X0.450000*%
%ADD26RoundRect,0.243750X0.456250X-0.243750X0.456250X0.243750X-0.456250X0.243750X-0.456250X-0.243750X0*%
%ADD27RoundRect,0.225000X-0.250000X0.225000X-0.250000X-0.225000X0.250000X-0.225000X0.250000X0.225000X0*%
G04 APERTURE END LIST*
D10*
%TO.C,MK1*%
X87738770Y-63093728D02*
X87759000Y-63113500D01*
X87759000Y-63113500D02*
X87778000Y-63129500D01*
X87778000Y-63129500D02*
X87797000Y-63144500D01*
X87797000Y-63144500D02*
X87816000Y-63158500D01*
X87816000Y-63158500D02*
X87837000Y-63171500D01*
X87837000Y-63171500D02*
X87857000Y-63183500D01*
X87857000Y-63183500D02*
X87879000Y-63195500D01*
X87879000Y-63195500D02*
X87901000Y-63205500D01*
X87901000Y-63205500D02*
X87923000Y-63214500D01*
X87923000Y-63214500D02*
X87946000Y-63222500D01*
X87946000Y-63222500D02*
X87969000Y-63229500D01*
X87969000Y-63229500D02*
X87993000Y-63235500D01*
X87993000Y-63235500D02*
X88016000Y-63240500D01*
X88016000Y-63240500D02*
X88040000Y-63244500D01*
X88040000Y-63244500D02*
X88064000Y-63247500D01*
X88064000Y-63247500D02*
X88088000Y-63248500D01*
X88088000Y-63248500D02*
X88112000Y-63249500D01*
X88112000Y-63249500D02*
X88137000Y-63248500D01*
X88137000Y-63248500D02*
X88161000Y-63246500D01*
X88161000Y-63246500D02*
X88185000Y-63243500D01*
X88185000Y-63243500D02*
X88209000Y-63239500D01*
X88209000Y-63239500D02*
X88232000Y-63234500D01*
X88232000Y-63234500D02*
X88256000Y-63228500D01*
X88256000Y-63228500D02*
X88279000Y-63220500D01*
X88279000Y-63220500D02*
X88301000Y-63212500D01*
X88301000Y-63212500D02*
X88324000Y-63202500D01*
X88324000Y-63202500D02*
X88345000Y-63192500D01*
X88345000Y-63192500D02*
X88367000Y-63181500D01*
X88367000Y-63181500D02*
X88387000Y-63168500D01*
X88387000Y-63168500D02*
X88404000Y-63157500D01*
X88404000Y-63157500D02*
X88601000Y-63354500D01*
X88601000Y-63354500D02*
X88571000Y-63376500D01*
X88571000Y-63376500D02*
X88539000Y-63398500D01*
X88539000Y-63398500D02*
X88506000Y-63418500D01*
X88506000Y-63418500D02*
X88472000Y-63436500D01*
X88472000Y-63436500D02*
X88437000Y-63453500D01*
X88437000Y-63453500D02*
X88401000Y-63467500D01*
X88401000Y-63467500D02*
X88365000Y-63481500D01*
X88365000Y-63481500D02*
X88328000Y-63492500D01*
X88328000Y-63492500D02*
X88291000Y-63502500D01*
X88291000Y-63502500D02*
X88253000Y-63510500D01*
X88253000Y-63510500D02*
X88215000Y-63516500D01*
X88215000Y-63516500D02*
X88177000Y-63520500D01*
X88177000Y-63520500D02*
X88138000Y-63522500D01*
X88138000Y-63522500D02*
X88100000Y-63522500D01*
X88100000Y-63522500D02*
X88061000Y-63521500D01*
X88061000Y-63521500D02*
X88023000Y-63518500D01*
X88023000Y-63518500D02*
X87985000Y-63513500D01*
X87985000Y-63513500D02*
X87947000Y-63506500D01*
X87947000Y-63506500D02*
X87909000Y-63497500D01*
X87909000Y-63497500D02*
X87872000Y-63486500D01*
X87872000Y-63486500D02*
X87835000Y-63474500D01*
X87835000Y-63474500D02*
X87800000Y-63460500D01*
X87800000Y-63460500D02*
X87764000Y-63444500D01*
X87764000Y-63444500D02*
X87730000Y-63426500D01*
X87730000Y-63426500D02*
X87697000Y-63407500D01*
X87697000Y-63407500D02*
X87664000Y-63386500D01*
X87664000Y-63386500D02*
X87633000Y-63364500D01*
X87633000Y-63364500D02*
X87602000Y-63340500D01*
X87602000Y-63340500D02*
X87573000Y-63315500D01*
X87573000Y-63315500D02*
X87544000Y-63288500D01*
X87544000Y-63288500D02*
X87517000Y-63259500D01*
X87517000Y-63259500D02*
X87492000Y-63230500D01*
X87492000Y-63230500D02*
X87468000Y-63199500D01*
X87468000Y-63199500D02*
X87446000Y-63168500D01*
X87446000Y-63168500D02*
X87425000Y-63135500D01*
X87425000Y-63135500D02*
X87406000Y-63102500D01*
X87406000Y-63102500D02*
X87388000Y-63068500D01*
X87388000Y-63068500D02*
X87372000Y-63032500D01*
X87372000Y-63032500D02*
X87358000Y-62997500D01*
X87358000Y-62997500D02*
X87346000Y-62960500D01*
X87346000Y-62960500D02*
X87335000Y-62923500D01*
X87335000Y-62923500D02*
X87326000Y-62885500D01*
X87326000Y-62885500D02*
X87319000Y-62847500D01*
X87319000Y-62847500D02*
X87314000Y-62809500D01*
X87314000Y-62809500D02*
X87311000Y-62771500D01*
X87311000Y-62771500D02*
X87310000Y-62732500D01*
X87310000Y-62732500D02*
X87310000Y-62694500D01*
X87310000Y-62694500D02*
X87312000Y-62655500D01*
X87312000Y-62655500D02*
X87316000Y-62617500D01*
X87316000Y-62617500D02*
X87322000Y-62579500D01*
X87322000Y-62579500D02*
X87330000Y-62541500D01*
X87330000Y-62541500D02*
X87340000Y-62504500D01*
X87340000Y-62504500D02*
X87351000Y-62467500D01*
X87351000Y-62467500D02*
X87365000Y-62431500D01*
X87365000Y-62431500D02*
X87379000Y-62395500D01*
X87379000Y-62395500D02*
X87396000Y-62360500D01*
X87396000Y-62360500D02*
X87414000Y-62326500D01*
X87414000Y-62326500D02*
X87434000Y-62293500D01*
X87434000Y-62293500D02*
X87456000Y-62261500D01*
X87456000Y-62261500D02*
X87478000Y-62231500D01*
X87478000Y-62231500D02*
X87675000Y-62428500D01*
X87675000Y-62428500D02*
X87664000Y-62445500D01*
X87664000Y-62445500D02*
X87651000Y-62465500D01*
X87651000Y-62465500D02*
X87640000Y-62487500D01*
X87640000Y-62487500D02*
X87630000Y-62508500D01*
X87630000Y-62508500D02*
X87620000Y-62531500D01*
X87620000Y-62531500D02*
X87612000Y-62553500D01*
X87612000Y-62553500D02*
X87604000Y-62576500D01*
X87604000Y-62576500D02*
X87598000Y-62600500D01*
X87598000Y-62600500D02*
X87593000Y-62623500D01*
X87593000Y-62623500D02*
X87589000Y-62647500D01*
X87589000Y-62647500D02*
X87586000Y-62671500D01*
X87586000Y-62671500D02*
X87584000Y-62695500D01*
X87584000Y-62695500D02*
X87583000Y-62720500D01*
X87583000Y-62720500D02*
X87584000Y-62744500D01*
X87584000Y-62744500D02*
X87585000Y-62768500D01*
X87585000Y-62768500D02*
X87588000Y-62792500D01*
X87588000Y-62792500D02*
X87592000Y-62816500D01*
X87592000Y-62816500D02*
X87597000Y-62839500D01*
X87597000Y-62839500D02*
X87603000Y-62863500D01*
X87603000Y-62863500D02*
X87610000Y-62886500D01*
X87610000Y-62886500D02*
X87618000Y-62909500D01*
X87618000Y-62909500D02*
X87627000Y-62931500D01*
X87627000Y-62931500D02*
X87637000Y-62953500D01*
X87637000Y-62953500D02*
X87649000Y-62975500D01*
X87649000Y-62975500D02*
X87661000Y-62995500D01*
X87661000Y-62995500D02*
X87674000Y-63016500D01*
X87674000Y-63016500D02*
X87688000Y-63035500D01*
X87688000Y-63035500D02*
X87703000Y-63054500D01*
X87703000Y-63054500D02*
X87719000Y-63073500D01*
X87719000Y-63073500D02*
X87739000Y-63093500D01*
X87739000Y-63093500D02*
X87738770Y-63093728D01*
X87738770Y-63093728D02*
X87738770Y-63093728D01*
G36*
X87675000Y-62428500D02*
G01*
X87664000Y-62445500D01*
X87651000Y-62465500D01*
X87640000Y-62487500D01*
X87630000Y-62508500D01*
X87620000Y-62531500D01*
X87612000Y-62553500D01*
X87604000Y-62576500D01*
X87598000Y-62600500D01*
X87593000Y-62623500D01*
X87589000Y-62647500D01*
X87586000Y-62671500D01*
X87584000Y-62695500D01*
X87583000Y-62720500D01*
X87585000Y-62768500D01*
X87588000Y-62792500D01*
X87592000Y-62816500D01*
X87597000Y-62839500D01*
X87603000Y-62863500D01*
X87610000Y-62886500D01*
X87618000Y-62909500D01*
X87627000Y-62931500D01*
X87637000Y-62953500D01*
X87649000Y-62975500D01*
X87661000Y-62995500D01*
X87674000Y-63016500D01*
X87688000Y-63035500D01*
X87703000Y-63054500D01*
X87719000Y-63073500D01*
X87739000Y-63093500D01*
X87738770Y-63093728D01*
X87759000Y-63113500D01*
X87778000Y-63129500D01*
X87797000Y-63144500D01*
X87816000Y-63158500D01*
X87837000Y-63171500D01*
X87857000Y-63183500D01*
X87879000Y-63195500D01*
X87901000Y-63205500D01*
X87923000Y-63214500D01*
X87946000Y-63222500D01*
X87969000Y-63229500D01*
X87993000Y-63235500D01*
X88016000Y-63240500D01*
X88040000Y-63244500D01*
X88064000Y-63247500D01*
X88112000Y-63249500D01*
X88137000Y-63248500D01*
X88161000Y-63246500D01*
X88185000Y-63243500D01*
X88209000Y-63239500D01*
X88232000Y-63234500D01*
X88256000Y-63228500D01*
X88279000Y-63220500D01*
X88301000Y-63212500D01*
X88324000Y-63202500D01*
X88345000Y-63192500D01*
X88367000Y-63181500D01*
X88387000Y-63168500D01*
X88404000Y-63157500D01*
X88601000Y-63354500D01*
X88571000Y-63376500D01*
X88539000Y-63398500D01*
X88506000Y-63418500D01*
X88472000Y-63436500D01*
X88437000Y-63453500D01*
X88365000Y-63481500D01*
X88328000Y-63492500D01*
X88291000Y-63502500D01*
X88253000Y-63510500D01*
X88215000Y-63516500D01*
X88177000Y-63520500D01*
X88138000Y-63522500D01*
X88100000Y-63522500D01*
X88061000Y-63521500D01*
X88023000Y-63518500D01*
X87985000Y-63513500D01*
X87947000Y-63506500D01*
X87909000Y-63497500D01*
X87872000Y-63486500D01*
X87835000Y-63474500D01*
X87800000Y-63460500D01*
X87764000Y-63444500D01*
X87730000Y-63426500D01*
X87697000Y-63407500D01*
X87664000Y-63386500D01*
X87633000Y-63364500D01*
X87602000Y-63340500D01*
X87573000Y-63315500D01*
X87544000Y-63288500D01*
X87517000Y-63259500D01*
X87492000Y-63230500D01*
X87468000Y-63199500D01*
X87446000Y-63168500D01*
X87425000Y-63135500D01*
X87406000Y-63102500D01*
X87388000Y-63068500D01*
X87372000Y-63032500D01*
X87358000Y-62997500D01*
X87346000Y-62960500D01*
X87335000Y-62923500D01*
X87326000Y-62885500D01*
X87319000Y-62847500D01*
X87314000Y-62809500D01*
X87311000Y-62771500D01*
X87310000Y-62732500D01*
X87310000Y-62694500D01*
X87312000Y-62655500D01*
X87316000Y-62617500D01*
X87322000Y-62579500D01*
X87330000Y-62541500D01*
X87340000Y-62504500D01*
X87351000Y-62467500D01*
X87379000Y-62395500D01*
X87396000Y-62360500D01*
X87414000Y-62326500D01*
X87434000Y-62293500D01*
X87456000Y-62261500D01*
X87478000Y-62231500D01*
X87675000Y-62428500D01*
G37*
X87675000Y-62428500D02*
X87664000Y-62445500D01*
X87651000Y-62465500D01*
X87640000Y-62487500D01*
X87630000Y-62508500D01*
X87620000Y-62531500D01*
X87612000Y-62553500D01*
X87604000Y-62576500D01*
X87598000Y-62600500D01*
X87593000Y-62623500D01*
X87589000Y-62647500D01*
X87586000Y-62671500D01*
X87584000Y-62695500D01*
X87583000Y-62720500D01*
X87585000Y-62768500D01*
X87588000Y-62792500D01*
X87592000Y-62816500D01*
X87597000Y-62839500D01*
X87603000Y-62863500D01*
X87610000Y-62886500D01*
X87618000Y-62909500D01*
X87627000Y-62931500D01*
X87637000Y-62953500D01*
X87649000Y-62975500D01*
X87661000Y-62995500D01*
X87674000Y-63016500D01*
X87688000Y-63035500D01*
X87703000Y-63054500D01*
X87719000Y-63073500D01*
X87739000Y-63093500D01*
X87738770Y-63093728D01*
X87759000Y-63113500D01*
X87778000Y-63129500D01*
X87797000Y-63144500D01*
X87816000Y-63158500D01*
X87837000Y-63171500D01*
X87857000Y-63183500D01*
X87879000Y-63195500D01*
X87901000Y-63205500D01*
X87923000Y-63214500D01*
X87946000Y-63222500D01*
X87969000Y-63229500D01*
X87993000Y-63235500D01*
X88016000Y-63240500D01*
X88040000Y-63244500D01*
X88064000Y-63247500D01*
X88112000Y-63249500D01*
X88137000Y-63248500D01*
X88161000Y-63246500D01*
X88185000Y-63243500D01*
X88209000Y-63239500D01*
X88232000Y-63234500D01*
X88256000Y-63228500D01*
X88279000Y-63220500D01*
X88301000Y-63212500D01*
X88324000Y-63202500D01*
X88345000Y-63192500D01*
X88367000Y-63181500D01*
X88387000Y-63168500D01*
X88404000Y-63157500D01*
X88601000Y-63354500D01*
X88571000Y-63376500D01*
X88539000Y-63398500D01*
X88506000Y-63418500D01*
X88472000Y-63436500D01*
X88437000Y-63453500D01*
X88365000Y-63481500D01*
X88328000Y-63492500D01*
X88291000Y-63502500D01*
X88253000Y-63510500D01*
X88215000Y-63516500D01*
X88177000Y-63520500D01*
X88138000Y-63522500D01*
X88100000Y-63522500D01*
X88061000Y-63521500D01*
X88023000Y-63518500D01*
X87985000Y-63513500D01*
X87947000Y-63506500D01*
X87909000Y-63497500D01*
X87872000Y-63486500D01*
X87835000Y-63474500D01*
X87800000Y-63460500D01*
X87764000Y-63444500D01*
X87730000Y-63426500D01*
X87697000Y-63407500D01*
X87664000Y-63386500D01*
X87633000Y-63364500D01*
X87602000Y-63340500D01*
X87573000Y-63315500D01*
X87544000Y-63288500D01*
X87517000Y-63259500D01*
X87492000Y-63230500D01*
X87468000Y-63199500D01*
X87446000Y-63168500D01*
X87425000Y-63135500D01*
X87406000Y-63102500D01*
X87388000Y-63068500D01*
X87372000Y-63032500D01*
X87358000Y-62997500D01*
X87346000Y-62960500D01*
X87335000Y-62923500D01*
X87326000Y-62885500D01*
X87319000Y-62847500D01*
X87314000Y-62809500D01*
X87311000Y-62771500D01*
X87310000Y-62732500D01*
X87310000Y-62694500D01*
X87312000Y-62655500D01*
X87316000Y-62617500D01*
X87322000Y-62579500D01*
X87330000Y-62541500D01*
X87340000Y-62504500D01*
X87351000Y-62467500D01*
X87379000Y-62395500D01*
X87396000Y-62360500D01*
X87414000Y-62326500D01*
X87434000Y-62293500D01*
X87456000Y-62261500D01*
X87478000Y-62231500D01*
X87675000Y-62428500D01*
X90045000Y-61117500D02*
X90395000Y-61117500D01*
X90395000Y-61117500D02*
X90395000Y-61667500D01*
X90395000Y-61667500D02*
X90045000Y-61667500D01*
X90045000Y-61667500D02*
X90045000Y-61117500D01*
G36*
X90395000Y-61667500D02*
G01*
X90045000Y-61667500D01*
X90045000Y-61117500D01*
X90395000Y-61117500D01*
X90395000Y-61667500D01*
G37*
X90395000Y-61667500D02*
X90045000Y-61667500D01*
X90045000Y-61117500D01*
X90395000Y-61117500D01*
X90395000Y-61667500D01*
X88481228Y-62351272D02*
X88461000Y-62331500D01*
X88461000Y-62331500D02*
X88442000Y-62315500D01*
X88442000Y-62315500D02*
X88423000Y-62300500D01*
X88423000Y-62300500D02*
X88404000Y-62286500D01*
X88404000Y-62286500D02*
X88383000Y-62273500D01*
X88383000Y-62273500D02*
X88363000Y-62261500D01*
X88363000Y-62261500D02*
X88341000Y-62249500D01*
X88341000Y-62249500D02*
X88319000Y-62239500D01*
X88319000Y-62239500D02*
X88297000Y-62230500D01*
X88297000Y-62230500D02*
X88274000Y-62222500D01*
X88274000Y-62222500D02*
X88251000Y-62215500D01*
X88251000Y-62215500D02*
X88227000Y-62209500D01*
X88227000Y-62209500D02*
X88204000Y-62204500D01*
X88204000Y-62204500D02*
X88180000Y-62200500D01*
X88180000Y-62200500D02*
X88156000Y-62197500D01*
X88156000Y-62197500D02*
X88132000Y-62196500D01*
X88132000Y-62196500D02*
X88108000Y-62195500D01*
X88108000Y-62195500D02*
X88083000Y-62196500D01*
X88083000Y-62196500D02*
X88059000Y-62198500D01*
X88059000Y-62198500D02*
X88035000Y-62201500D01*
X88035000Y-62201500D02*
X88011000Y-62205500D01*
X88011000Y-62205500D02*
X87988000Y-62210500D01*
X87988000Y-62210500D02*
X87964000Y-62216500D01*
X87964000Y-62216500D02*
X87941000Y-62224500D01*
X87941000Y-62224500D02*
X87919000Y-62232500D01*
X87919000Y-62232500D02*
X87896000Y-62242500D01*
X87896000Y-62242500D02*
X87875000Y-62252500D01*
X87875000Y-62252500D02*
X87853000Y-62263500D01*
X87853000Y-62263500D02*
X87833000Y-62276500D01*
X87833000Y-62276500D02*
X87816000Y-62287500D01*
X87816000Y-62287500D02*
X87619000Y-62090500D01*
X87619000Y-62090500D02*
X87649000Y-62068500D01*
X87649000Y-62068500D02*
X87681000Y-62046500D01*
X87681000Y-62046500D02*
X87714000Y-62026500D01*
X87714000Y-62026500D02*
X87748000Y-62008500D01*
X87748000Y-62008500D02*
X87783000Y-61991500D01*
X87783000Y-61991500D02*
X87819000Y-61977500D01*
X87819000Y-61977500D02*
X87855000Y-61963500D01*
X87855000Y-61963500D02*
X87892000Y-61952500D01*
X87892000Y-61952500D02*
X87929000Y-61942500D01*
X87929000Y-61942500D02*
X87967000Y-61934500D01*
X87967000Y-61934500D02*
X88005000Y-61928500D01*
X88005000Y-61928500D02*
X88043000Y-61924500D01*
X88043000Y-61924500D02*
X88082000Y-61922500D01*
X88082000Y-61922500D02*
X88120000Y-61922500D01*
X88120000Y-61922500D02*
X88159000Y-61923500D01*
X88159000Y-61923500D02*
X88197000Y-61926500D01*
X88197000Y-61926500D02*
X88235000Y-61931500D01*
X88235000Y-61931500D02*
X88273000Y-61938500D01*
X88273000Y-61938500D02*
X88311000Y-61947500D01*
X88311000Y-61947500D02*
X88348000Y-61958500D01*
X88348000Y-61958500D02*
X88385000Y-61970500D01*
X88385000Y-61970500D02*
X88420000Y-61984500D01*
X88420000Y-61984500D02*
X88456000Y-62000500D01*
X88456000Y-62000500D02*
X88490000Y-62018500D01*
X88490000Y-62018500D02*
X88523000Y-62037500D01*
X88523000Y-62037500D02*
X88556000Y-62058500D01*
X88556000Y-62058500D02*
X88587000Y-62080500D01*
X88587000Y-62080500D02*
X88618000Y-62104500D01*
X88618000Y-62104500D02*
X88647000Y-62129500D01*
X88647000Y-62129500D02*
X88676000Y-62156500D01*
X88676000Y-62156500D02*
X88703000Y-62185500D01*
X88703000Y-62185500D02*
X88728000Y-62214500D01*
X88728000Y-62214500D02*
X88752000Y-62245500D01*
X88752000Y-62245500D02*
X88774000Y-62276500D01*
X88774000Y-62276500D02*
X88795000Y-62309500D01*
X88795000Y-62309500D02*
X88814000Y-62342500D01*
X88814000Y-62342500D02*
X88832000Y-62376500D01*
X88832000Y-62376500D02*
X88848000Y-62412500D01*
X88848000Y-62412500D02*
X88862000Y-62447500D01*
X88862000Y-62447500D02*
X88874000Y-62484500D01*
X88874000Y-62484500D02*
X88885000Y-62521500D01*
X88885000Y-62521500D02*
X88894000Y-62559500D01*
X88894000Y-62559500D02*
X88901000Y-62597500D01*
X88901000Y-62597500D02*
X88906000Y-62635500D01*
X88906000Y-62635500D02*
X88909000Y-62673500D01*
X88909000Y-62673500D02*
X88910000Y-62712500D01*
X88910000Y-62712500D02*
X88910000Y-62750500D01*
X88910000Y-62750500D02*
X88908000Y-62789500D01*
X88908000Y-62789500D02*
X88904000Y-62827500D01*
X88904000Y-62827500D02*
X88898000Y-62865500D01*
X88898000Y-62865500D02*
X88890000Y-62903500D01*
X88890000Y-62903500D02*
X88880000Y-62940500D01*
X88880000Y-62940500D02*
X88869000Y-62977500D01*
X88869000Y-62977500D02*
X88855000Y-63013500D01*
X88855000Y-63013500D02*
X88841000Y-63049500D01*
X88841000Y-63049500D02*
X88824000Y-63084500D01*
X88824000Y-63084500D02*
X88806000Y-63118500D01*
X88806000Y-63118500D02*
X88786000Y-63151500D01*
X88786000Y-63151500D02*
X88764000Y-63183500D01*
X88764000Y-63183500D02*
X88742000Y-63213500D01*
X88742000Y-63213500D02*
X88545000Y-63016500D01*
X88545000Y-63016500D02*
X88556000Y-62999500D01*
X88556000Y-62999500D02*
X88569000Y-62979500D01*
X88569000Y-62979500D02*
X88580000Y-62957500D01*
X88580000Y-62957500D02*
X88590000Y-62936500D01*
X88590000Y-62936500D02*
X88600000Y-62913500D01*
X88600000Y-62913500D02*
X88608000Y-62891500D01*
X88608000Y-62891500D02*
X88616000Y-62868500D01*
X88616000Y-62868500D02*
X88622000Y-62844500D01*
X88622000Y-62844500D02*
X88627000Y-62821500D01*
X88627000Y-62821500D02*
X88631000Y-62797500D01*
X88631000Y-62797500D02*
X88634000Y-62773500D01*
X88634000Y-62773500D02*
X88636000Y-62749500D01*
X88636000Y-62749500D02*
X88637000Y-62724500D01*
X88637000Y-62724500D02*
X88636000Y-62700500D01*
X88636000Y-62700500D02*
X88635000Y-62676500D01*
X88635000Y-62676500D02*
X88632000Y-62652500D01*
X88632000Y-62652500D02*
X88628000Y-62628500D01*
X88628000Y-62628500D02*
X88623000Y-62605500D01*
X88623000Y-62605500D02*
X88617000Y-62581500D01*
X88617000Y-62581500D02*
X88610000Y-62558500D01*
X88610000Y-62558500D02*
X88602000Y-62535500D01*
X88602000Y-62535500D02*
X88593000Y-62513500D01*
X88593000Y-62513500D02*
X88583000Y-62491500D01*
X88583000Y-62491500D02*
X88571000Y-62469500D01*
X88571000Y-62469500D02*
X88559000Y-62449500D01*
X88559000Y-62449500D02*
X88546000Y-62428500D01*
X88546000Y-62428500D02*
X88532000Y-62409500D01*
X88532000Y-62409500D02*
X88517000Y-62390500D01*
X88517000Y-62390500D02*
X88501000Y-62371500D01*
X88501000Y-62371500D02*
X88481000Y-62351500D01*
X88481000Y-62351500D02*
X88481228Y-62351272D01*
X88481228Y-62351272D02*
X88481228Y-62351272D01*
G36*
X88159000Y-61923500D02*
G01*
X88197000Y-61926500D01*
X88235000Y-61931500D01*
X88273000Y-61938500D01*
X88311000Y-61947500D01*
X88348000Y-61958500D01*
X88385000Y-61970500D01*
X88420000Y-61984500D01*
X88456000Y-62000500D01*
X88490000Y-62018500D01*
X88523000Y-62037500D01*
X88556000Y-62058500D01*
X88587000Y-62080500D01*
X88618000Y-62104500D01*
X88647000Y-62129500D01*
X88676000Y-62156500D01*
X88703000Y-62185500D01*
X88728000Y-62214500D01*
X88752000Y-62245500D01*
X88774000Y-62276500D01*
X88795000Y-62309500D01*
X88814000Y-62342500D01*
X88832000Y-62376500D01*
X88848000Y-62412500D01*
X88862000Y-62447500D01*
X88874000Y-62484500D01*
X88885000Y-62521500D01*
X88894000Y-62559500D01*
X88901000Y-62597500D01*
X88906000Y-62635500D01*
X88909000Y-62673500D01*
X88910000Y-62712500D01*
X88910000Y-62750500D01*
X88908000Y-62789500D01*
X88904000Y-62827500D01*
X88898000Y-62865500D01*
X88890000Y-62903500D01*
X88880000Y-62940500D01*
X88869000Y-62977500D01*
X88841000Y-63049500D01*
X88824000Y-63084500D01*
X88806000Y-63118500D01*
X88786000Y-63151500D01*
X88764000Y-63183500D01*
X88742000Y-63213500D01*
X88545000Y-63016500D01*
X88556000Y-62999500D01*
X88569000Y-62979500D01*
X88580000Y-62957500D01*
X88590000Y-62936500D01*
X88600000Y-62913500D01*
X88608000Y-62891500D01*
X88616000Y-62868500D01*
X88622000Y-62844500D01*
X88627000Y-62821500D01*
X88631000Y-62797500D01*
X88634000Y-62773500D01*
X88636000Y-62749500D01*
X88637000Y-62724500D01*
X88635000Y-62676500D01*
X88632000Y-62652500D01*
X88628000Y-62628500D01*
X88623000Y-62605500D01*
X88617000Y-62581500D01*
X88610000Y-62558500D01*
X88602000Y-62535500D01*
X88593000Y-62513500D01*
X88583000Y-62491500D01*
X88571000Y-62469500D01*
X88559000Y-62449500D01*
X88546000Y-62428500D01*
X88532000Y-62409500D01*
X88517000Y-62390500D01*
X88501000Y-62371500D01*
X88481000Y-62351500D01*
X88481228Y-62351272D01*
X88461000Y-62331500D01*
X88442000Y-62315500D01*
X88423000Y-62300500D01*
X88404000Y-62286500D01*
X88383000Y-62273500D01*
X88363000Y-62261500D01*
X88341000Y-62249500D01*
X88319000Y-62239500D01*
X88297000Y-62230500D01*
X88274000Y-62222500D01*
X88251000Y-62215500D01*
X88227000Y-62209500D01*
X88204000Y-62204500D01*
X88180000Y-62200500D01*
X88156000Y-62197500D01*
X88108000Y-62195500D01*
X88083000Y-62196500D01*
X88059000Y-62198500D01*
X88035000Y-62201500D01*
X88011000Y-62205500D01*
X87988000Y-62210500D01*
X87964000Y-62216500D01*
X87941000Y-62224500D01*
X87919000Y-62232500D01*
X87896000Y-62242500D01*
X87875000Y-62252500D01*
X87853000Y-62263500D01*
X87833000Y-62276500D01*
X87816000Y-62287500D01*
X87619000Y-62090500D01*
X87649000Y-62068500D01*
X87681000Y-62046500D01*
X87714000Y-62026500D01*
X87748000Y-62008500D01*
X87783000Y-61991500D01*
X87855000Y-61963500D01*
X87892000Y-61952500D01*
X87929000Y-61942500D01*
X87967000Y-61934500D01*
X88005000Y-61928500D01*
X88043000Y-61924500D01*
X88082000Y-61922500D01*
X88120000Y-61922500D01*
X88159000Y-61923500D01*
G37*
X88159000Y-61923500D02*
X88197000Y-61926500D01*
X88235000Y-61931500D01*
X88273000Y-61938500D01*
X88311000Y-61947500D01*
X88348000Y-61958500D01*
X88385000Y-61970500D01*
X88420000Y-61984500D01*
X88456000Y-62000500D01*
X88490000Y-62018500D01*
X88523000Y-62037500D01*
X88556000Y-62058500D01*
X88587000Y-62080500D01*
X88618000Y-62104500D01*
X88647000Y-62129500D01*
X88676000Y-62156500D01*
X88703000Y-62185500D01*
X88728000Y-62214500D01*
X88752000Y-62245500D01*
X88774000Y-62276500D01*
X88795000Y-62309500D01*
X88814000Y-62342500D01*
X88832000Y-62376500D01*
X88848000Y-62412500D01*
X88862000Y-62447500D01*
X88874000Y-62484500D01*
X88885000Y-62521500D01*
X88894000Y-62559500D01*
X88901000Y-62597500D01*
X88906000Y-62635500D01*
X88909000Y-62673500D01*
X88910000Y-62712500D01*
X88910000Y-62750500D01*
X88908000Y-62789500D01*
X88904000Y-62827500D01*
X88898000Y-62865500D01*
X88890000Y-62903500D01*
X88880000Y-62940500D01*
X88869000Y-62977500D01*
X88841000Y-63049500D01*
X88824000Y-63084500D01*
X88806000Y-63118500D01*
X88786000Y-63151500D01*
X88764000Y-63183500D01*
X88742000Y-63213500D01*
X88545000Y-63016500D01*
X88556000Y-62999500D01*
X88569000Y-62979500D01*
X88580000Y-62957500D01*
X88590000Y-62936500D01*
X88600000Y-62913500D01*
X88608000Y-62891500D01*
X88616000Y-62868500D01*
X88622000Y-62844500D01*
X88627000Y-62821500D01*
X88631000Y-62797500D01*
X88634000Y-62773500D01*
X88636000Y-62749500D01*
X88637000Y-62724500D01*
X88635000Y-62676500D01*
X88632000Y-62652500D01*
X88628000Y-62628500D01*
X88623000Y-62605500D01*
X88617000Y-62581500D01*
X88610000Y-62558500D01*
X88602000Y-62535500D01*
X88593000Y-62513500D01*
X88583000Y-62491500D01*
X88571000Y-62469500D01*
X88559000Y-62449500D01*
X88546000Y-62428500D01*
X88532000Y-62409500D01*
X88517000Y-62390500D01*
X88501000Y-62371500D01*
X88481000Y-62351500D01*
X88481228Y-62351272D01*
X88461000Y-62331500D01*
X88442000Y-62315500D01*
X88423000Y-62300500D01*
X88404000Y-62286500D01*
X88383000Y-62273500D01*
X88363000Y-62261500D01*
X88341000Y-62249500D01*
X88319000Y-62239500D01*
X88297000Y-62230500D01*
X88274000Y-62222500D01*
X88251000Y-62215500D01*
X88227000Y-62209500D01*
X88204000Y-62204500D01*
X88180000Y-62200500D01*
X88156000Y-62197500D01*
X88108000Y-62195500D01*
X88083000Y-62196500D01*
X88059000Y-62198500D01*
X88035000Y-62201500D01*
X88011000Y-62205500D01*
X87988000Y-62210500D01*
X87964000Y-62216500D01*
X87941000Y-62224500D01*
X87919000Y-62232500D01*
X87896000Y-62242500D01*
X87875000Y-62252500D01*
X87853000Y-62263500D01*
X87833000Y-62276500D01*
X87816000Y-62287500D01*
X87619000Y-62090500D01*
X87649000Y-62068500D01*
X87681000Y-62046500D01*
X87714000Y-62026500D01*
X87748000Y-62008500D01*
X87783000Y-61991500D01*
X87855000Y-61963500D01*
X87892000Y-61952500D01*
X87929000Y-61942500D01*
X87967000Y-61934500D01*
X88005000Y-61928500D01*
X88043000Y-61924500D01*
X88082000Y-61922500D01*
X88120000Y-61922500D01*
X88159000Y-61923500D01*
X91095000Y-61117500D02*
X91445000Y-61117500D01*
X91445000Y-61117500D02*
X91445000Y-61667500D01*
X91445000Y-61667500D02*
X91095000Y-61667500D01*
X91095000Y-61667500D02*
X91095000Y-61117500D01*
G36*
X91445000Y-61667500D02*
G01*
X91095000Y-61667500D01*
X91095000Y-61117500D01*
X91445000Y-61117500D01*
X91445000Y-61667500D01*
G37*
X91445000Y-61667500D02*
X91095000Y-61667500D01*
X91095000Y-61117500D01*
X91445000Y-61117500D01*
X91445000Y-61667500D01*
X90045000Y-63777500D02*
X90395000Y-63777500D01*
X90395000Y-63777500D02*
X90395000Y-64327500D01*
X90395000Y-64327500D02*
X90045000Y-64327500D01*
X90045000Y-64327500D02*
X90045000Y-63777500D01*
G36*
X90395000Y-64327500D02*
G01*
X90045000Y-64327500D01*
X90045000Y-63777500D01*
X90395000Y-63777500D01*
X90395000Y-64327500D01*
G37*
X90395000Y-64327500D02*
X90045000Y-64327500D01*
X90045000Y-63777500D01*
X90395000Y-63777500D01*
X90395000Y-64327500D01*
X91095000Y-63777500D02*
X91445000Y-63777500D01*
X91445000Y-63777500D02*
X91445000Y-64327500D01*
X91445000Y-64327500D02*
X91095000Y-64327500D01*
X91095000Y-64327500D02*
X91095000Y-63777500D01*
G36*
X91445000Y-64327500D02*
G01*
X91095000Y-64327500D01*
X91095000Y-63777500D01*
X91445000Y-63777500D01*
X91445000Y-64327500D01*
G37*
X91445000Y-64327500D02*
X91095000Y-64327500D01*
X91095000Y-63777500D01*
X91445000Y-63777500D01*
X91445000Y-64327500D01*
X87945000Y-61117500D02*
X88295000Y-61117500D01*
X88295000Y-61117500D02*
X88295000Y-61667500D01*
X88295000Y-61667500D02*
X87945000Y-61667500D01*
X87945000Y-61667500D02*
X87945000Y-61117500D01*
G36*
X88295000Y-61667500D02*
G01*
X87945000Y-61667500D01*
X87945000Y-61117500D01*
X88295000Y-61117500D01*
X88295000Y-61667500D01*
G37*
X88295000Y-61667500D02*
X87945000Y-61667500D01*
X87945000Y-61117500D01*
X88295000Y-61117500D01*
X88295000Y-61667500D01*
X88995000Y-61117500D02*
X89345000Y-61117500D01*
X89345000Y-61117500D02*
X89345000Y-61667500D01*
X89345000Y-61667500D02*
X88995000Y-61667500D01*
X88995000Y-61667500D02*
X88995000Y-61117500D01*
G36*
X89345000Y-61667500D02*
G01*
X88995000Y-61667500D01*
X88995000Y-61117500D01*
X89345000Y-61117500D01*
X89345000Y-61667500D01*
G37*
X89345000Y-61667500D02*
X88995000Y-61667500D01*
X88995000Y-61117500D01*
X89345000Y-61117500D01*
X89345000Y-61667500D01*
X87945000Y-63777500D02*
X88295000Y-63777500D01*
X88295000Y-63777500D02*
X88295000Y-64327500D01*
X88295000Y-64327500D02*
X87945000Y-64327500D01*
X87945000Y-64327500D02*
X87945000Y-63777500D01*
G36*
X88295000Y-64327500D02*
G01*
X87945000Y-64327500D01*
X87945000Y-63777500D01*
X88295000Y-63777500D01*
X88295000Y-64327500D01*
G37*
X88295000Y-64327500D02*
X87945000Y-64327500D01*
X87945000Y-63777500D01*
X88295000Y-63777500D01*
X88295000Y-64327500D01*
X88995000Y-63777500D02*
X89345000Y-63777500D01*
X89345000Y-63777500D02*
X89345000Y-64327500D01*
X89345000Y-64327500D02*
X88995000Y-64327500D01*
X88995000Y-64327500D02*
X88995000Y-63777500D01*
G36*
X89345000Y-64327500D02*
G01*
X88995000Y-64327500D01*
X88995000Y-63777500D01*
X89345000Y-63777500D01*
X89345000Y-64327500D01*
G37*
X89345000Y-64327500D02*
X88995000Y-64327500D01*
X88995000Y-63777500D01*
X89345000Y-63777500D01*
X89345000Y-64327500D01*
%TD*%
D11*
%TO.C,C14*%
X95000000Y-69400000D03*
X95000000Y-67850000D03*
%TD*%
%TO.C,C13*%
X79100000Y-84600000D03*
X79100000Y-83050000D03*
%TD*%
%TO.C,C12*%
X81800000Y-66100000D03*
X81800000Y-64550000D03*
%TD*%
D12*
%TO.C,C11*%
X81300000Y-78700000D03*
X79750000Y-78700000D03*
%TD*%
D11*
%TO.C,C10*%
X93000000Y-65800000D03*
X93000000Y-64250000D03*
%TD*%
D13*
%TO.C,C9*%
X95000000Y-76700000D03*
X96550000Y-76700000D03*
%TD*%
D14*
%TO.C,Y1*%
X76600000Y-66300000D03*
X76600000Y-68840000D03*
X78800000Y-68840000D03*
X78800000Y-66300000D03*
%TD*%
D15*
%TO.C,U3*%
X93150000Y-76500000D03*
X93150000Y-76000000D03*
X93150000Y-75500000D03*
X93150000Y-75000000D03*
X93150000Y-74500000D03*
X93150000Y-74000000D03*
X93150000Y-73500000D03*
X93150000Y-73000000D03*
X93150000Y-72500000D03*
X93150000Y-72000000D03*
X93150000Y-71500000D03*
X93150000Y-71000000D03*
X93150000Y-70500000D03*
X93150000Y-70000000D03*
X93150000Y-69500000D03*
X93150000Y-69000000D03*
D16*
X91225000Y-67075000D03*
X90725000Y-67075000D03*
X90225000Y-67075000D03*
X89725000Y-67075000D03*
X89225000Y-67075000D03*
X88725000Y-67075000D03*
X88225000Y-67075000D03*
X87725000Y-67075000D03*
X87225000Y-67075000D03*
X86725000Y-67075000D03*
X86225000Y-67075000D03*
X85725000Y-67075000D03*
X85225000Y-67075000D03*
X84725000Y-67075000D03*
X84225000Y-67075000D03*
X83725000Y-67075000D03*
D15*
X81800000Y-69000000D03*
X81800000Y-69500000D03*
X81800000Y-70000000D03*
X81800000Y-70500000D03*
X81800000Y-71000000D03*
X81800000Y-71500000D03*
X81800000Y-72000000D03*
X81800000Y-72500000D03*
X81800000Y-73000000D03*
X81800000Y-73500000D03*
X81800000Y-74000000D03*
X81800000Y-74500000D03*
X81800000Y-75000000D03*
X81800000Y-75500000D03*
X81800000Y-76000000D03*
X81800000Y-76500000D03*
D16*
X83725000Y-78425000D03*
X84225000Y-78425000D03*
X84725000Y-78425000D03*
X85225000Y-78425000D03*
X85725000Y-78425000D03*
X86225000Y-78425000D03*
X86725000Y-78425000D03*
X87225000Y-78425000D03*
X87725000Y-78425000D03*
X88225000Y-78425000D03*
X88725000Y-78425000D03*
X89225000Y-78425000D03*
X89725000Y-78425000D03*
X90225000Y-78425000D03*
X90725000Y-78425000D03*
X91225000Y-78425000D03*
%TD*%
D17*
%TO.C,U2*%
X74400000Y-61350000D03*
X74400000Y-62300000D03*
X74400000Y-63250000D03*
X76675000Y-63250000D03*
X76675000Y-61350000D03*
%TD*%
%TO.C,U1*%
X76662500Y-72450000D03*
X76662500Y-73400000D03*
X76662500Y-74350000D03*
X78937500Y-74350000D03*
X78937500Y-73400000D03*
X78937500Y-72450000D03*
%TD*%
D18*
%TO.C,SW2*%
X97550000Y-69600000D03*
X103300000Y-69600000D03*
X103300000Y-73600000D03*
X97550000Y-73600000D03*
%TD*%
%TO.C,SW1*%
X97450000Y-61900000D03*
X103200000Y-61900000D03*
X103200000Y-65900000D03*
X97450000Y-65900000D03*
%TD*%
D19*
%TO.C,R6*%
X80300000Y-63200000D03*
X80300000Y-61550000D03*
%TD*%
%TO.C,R5*%
X81800000Y-63200000D03*
X81800000Y-61550000D03*
%TD*%
%TO.C,R4*%
X94500000Y-65900000D03*
X94500000Y-64250000D03*
%TD*%
D20*
%TO.C,R3*%
X90200000Y-59700000D03*
X91850000Y-59700000D03*
%TD*%
D21*
%TO.C,R2*%
X88100000Y-59500000D03*
X86450000Y-59500000D03*
%TD*%
D22*
%TO.C,R1*%
X76100000Y-75800000D03*
X76100000Y-77450000D03*
%TD*%
D23*
%TO.C,L1*%
X69100000Y-61600000D03*
X71225000Y-61600000D03*
%TD*%
D24*
%TO.C,J2*%
X68900000Y-83100000D03*
X72800000Y-83100000D03*
X68900000Y-84370000D03*
X72800000Y-84370000D03*
X68900000Y-85640000D03*
X72800000Y-85640000D03*
X68900000Y-86910000D03*
X72800000Y-86910000D03*
X68900000Y-88180000D03*
X72800000Y-88180000D03*
%TD*%
D25*
%TO.C,J1*%
X73350000Y-72225000D03*
X73350000Y-72875000D03*
X73350000Y-73525000D03*
X73350000Y-74175000D03*
X73350000Y-74825000D03*
%TD*%
D26*
%TO.C,D2*%
X78600000Y-63300000D03*
X78600000Y-61425000D03*
%TD*%
%TO.C,D1*%
X83600000Y-63500000D03*
X83600000Y-61625000D03*
%TD*%
D13*
%TO.C,C8*%
X72500000Y-90400000D03*
X74050000Y-90400000D03*
%TD*%
D11*
%TO.C,C7*%
X85400000Y-63600000D03*
X85400000Y-62050000D03*
%TD*%
D13*
%TO.C,C6*%
X94600000Y-78800000D03*
X96150000Y-78800000D03*
%TD*%
D12*
%TO.C,C5*%
X79200000Y-75900000D03*
X77650000Y-75900000D03*
%TD*%
D27*
%TO.C,C4*%
X72700000Y-61500000D03*
X72700000Y-63050000D03*
%TD*%
%TO.C,C3*%
X71100000Y-63300000D03*
X71100000Y-64850000D03*
%TD*%
%TO.C,C2*%
X74000000Y-64700000D03*
X74000000Y-66250000D03*
%TD*%
%TO.C,C1*%
X69100000Y-63200000D03*
X69100000Y-64750000D03*
%TD*%
M02*
