%TF.GenerationSoftware,KiCad,Pcbnew,(6.0.0)*%
%TF.CreationDate,2022-03-30T15:51:48+02:00*%
%TF.ProjectId,USBMIc,5553424d-4963-42e6-9b69-6361645f7063,rev?*%
%TF.SameCoordinates,Original*%
%TF.FileFunction,Soldermask,Top*%
%TF.FilePolarity,Negative*%
%FSLAX46Y46*%
G04 Gerber Fmt 4.6, Leading zero omitted, Abs format (unit mm)*
G04 Created by KiCad (PCBNEW (6.0.0)) date 2022-03-30 15:51:48*
%MOMM*%
%LPD*%
G01*
G04 APERTURE LIST*
G04 Aperture macros list*
%AMRoundRect*
0 Rectangle with rounded corners*
0 $1 Rounding radius*
0 $2 $3 $4 $5 $6 $7 $8 $9 X,Y pos of 4 corners*
0 Add a 4 corners polygon primitive as box body*
4,1,4,$2,$3,$4,$5,$6,$7,$8,$9,$2,$3,0*
0 Add four circle primitives for the rounded corners*
1,1,$1+$1,$2,$3*
1,1,$1+$1,$4,$5*
1,1,$1+$1,$6,$7*
1,1,$1+$1,$8,$9*
0 Add four rect primitives between the rounded corners*
20,1,$1+$1,$2,$3,$4,$5,0*
20,1,$1+$1,$4,$5,$6,$7,0*
20,1,$1+$1,$6,$7,$8,$9,0*
20,1,$1+$1,$8,$9,$2,$3,0*%
G04 Aperture macros list end*
%ADD10C,0.880000*%
%ADD11RoundRect,0.225000X0.250000X-0.225000X0.250000X0.225000X-0.250000X0.225000X-0.250000X-0.225000X0*%
%ADD12RoundRect,0.225000X0.225000X0.250000X-0.225000X0.250000X-0.225000X-0.250000X0.225000X-0.250000X0*%
%ADD13RoundRect,0.225000X-0.225000X-0.250000X0.225000X-0.250000X0.225000X0.250000X-0.225000X0.250000X0*%
%ADD14R,1.500000X1.600000*%
%ADD15R,1.600000X1.600000*%
%ADD16C,1.600000*%
%ADD17RoundRect,0.075000X0.700000X0.075000X-0.700000X0.075000X-0.700000X-0.075000X0.700000X-0.075000X0*%
%ADD18RoundRect,0.075000X0.075000X0.700000X-0.075000X0.700000X-0.075000X-0.700000X0.075000X-0.700000X0*%
%ADD19RoundRect,0.150000X-0.512500X-0.150000X0.512500X-0.150000X0.512500X0.150000X-0.512500X0.150000X0*%
%ADD20R,2.750000X1.000000*%
%ADD21RoundRect,0.200000X0.275000X-0.200000X0.275000X0.200000X-0.275000X0.200000X-0.275000X-0.200000X0*%
%ADD22RoundRect,0.200000X-0.200000X-0.275000X0.200000X-0.275000X0.200000X0.275000X-0.200000X0.275000X0*%
%ADD23RoundRect,0.200000X0.200000X0.275000X-0.200000X0.275000X-0.200000X-0.275000X0.200000X-0.275000X0*%
%ADD24RoundRect,0.200000X-0.275000X0.200000X-0.275000X-0.200000X0.275000X-0.200000X0.275000X0.200000X0*%
%ADD25R,0.400000X0.600000*%
%ADD26C,0.750000*%
%ADD27RoundRect,0.218750X-0.218750X-0.381250X0.218750X-0.381250X0.218750X0.381250X-0.218750X0.381250X0*%
%ADD28R,2.400000X0.740000*%
%ADD29R,1.300000X0.450000*%
%ADD30O,2.000000X1.450000*%
%ADD31O,1.800000X1.150000*%
%ADD32O,0.800000X0.800000*%
%ADD33RoundRect,0.243750X0.456250X-0.243750X0.456250X0.243750X-0.456250X0.243750X-0.456250X-0.243750X0*%
%ADD34RoundRect,0.225000X-0.250000X0.225000X-0.250000X-0.225000X0.250000X-0.225000X0.250000X0.225000X0*%
G04 APERTURE END LIST*
D10*
%TO.C,MK1*%
X88550000Y-62722500D02*
G75*
G03*
X88550000Y-62722500I-440000J0D01*
G01*
%TD*%
D11*
%TO.C,C14*%
X95000000Y-69400000D03*
X95000000Y-67850000D03*
%TD*%
%TO.C,C13*%
X79100000Y-84600000D03*
X79100000Y-83050000D03*
%TD*%
%TO.C,C12*%
X81800000Y-66100000D03*
X81800000Y-64550000D03*
%TD*%
D12*
%TO.C,C11*%
X81300000Y-78700000D03*
X79750000Y-78700000D03*
%TD*%
D11*
%TO.C,C10*%
X93000000Y-65800000D03*
X93000000Y-64250000D03*
%TD*%
D13*
%TO.C,C9*%
X95000000Y-76700000D03*
X96550000Y-76700000D03*
%TD*%
D14*
%TO.C,Y1*%
X76600000Y-66300000D03*
X76600000Y-68840000D03*
X78800000Y-68840000D03*
X78800000Y-66300000D03*
%TD*%
D15*
%TO.C,X1*%
X83180000Y-92210000D03*
D16*
X83180000Y-84590000D03*
X98420000Y-84590000D03*
X98420000Y-92210000D03*
%TD*%
D17*
%TO.C,U3*%
X93150000Y-76500000D03*
X93150000Y-76000000D03*
X93150000Y-75500000D03*
X93150000Y-75000000D03*
X93150000Y-74500000D03*
X93150000Y-74000000D03*
X93150000Y-73500000D03*
X93150000Y-73000000D03*
X93150000Y-72500000D03*
X93150000Y-72000000D03*
X93150000Y-71500000D03*
X93150000Y-71000000D03*
X93150000Y-70500000D03*
X93150000Y-70000000D03*
X93150000Y-69500000D03*
X93150000Y-69000000D03*
D18*
X91225000Y-67075000D03*
X90725000Y-67075000D03*
X90225000Y-67075000D03*
X89725000Y-67075000D03*
X89225000Y-67075000D03*
X88725000Y-67075000D03*
X88225000Y-67075000D03*
X87725000Y-67075000D03*
X87225000Y-67075000D03*
X86725000Y-67075000D03*
X86225000Y-67075000D03*
X85725000Y-67075000D03*
X85225000Y-67075000D03*
X84725000Y-67075000D03*
X84225000Y-67075000D03*
X83725000Y-67075000D03*
D17*
X81800000Y-69000000D03*
X81800000Y-69500000D03*
X81800000Y-70000000D03*
X81800000Y-70500000D03*
X81800000Y-71000000D03*
X81800000Y-71500000D03*
X81800000Y-72000000D03*
X81800000Y-72500000D03*
X81800000Y-73000000D03*
X81800000Y-73500000D03*
X81800000Y-74000000D03*
X81800000Y-74500000D03*
X81800000Y-75000000D03*
X81800000Y-75500000D03*
X81800000Y-76000000D03*
X81800000Y-76500000D03*
D18*
X83725000Y-78425000D03*
X84225000Y-78425000D03*
X84725000Y-78425000D03*
X85225000Y-78425000D03*
X85725000Y-78425000D03*
X86225000Y-78425000D03*
X86725000Y-78425000D03*
X87225000Y-78425000D03*
X87725000Y-78425000D03*
X88225000Y-78425000D03*
X88725000Y-78425000D03*
X89225000Y-78425000D03*
X89725000Y-78425000D03*
X90225000Y-78425000D03*
X90725000Y-78425000D03*
X91225000Y-78425000D03*
%TD*%
D19*
%TO.C,U2*%
X74400000Y-61350000D03*
X74400000Y-62300000D03*
X74400000Y-63250000D03*
X76675000Y-63250000D03*
X76675000Y-61350000D03*
%TD*%
%TO.C,U1*%
X76662500Y-72450000D03*
X76662500Y-73400000D03*
X76662500Y-74350000D03*
X78937500Y-74350000D03*
X78937500Y-73400000D03*
X78937500Y-72450000D03*
%TD*%
D20*
%TO.C,SW2*%
X97550000Y-69600000D03*
X103300000Y-69600000D03*
X103300000Y-73600000D03*
X97550000Y-73600000D03*
%TD*%
%TO.C,SW1*%
X97450000Y-61900000D03*
X103200000Y-61900000D03*
X103200000Y-65900000D03*
X97450000Y-65900000D03*
%TD*%
D21*
%TO.C,R6*%
X80300000Y-63200000D03*
X80300000Y-61550000D03*
%TD*%
%TO.C,R5*%
X81800000Y-63200000D03*
X81800000Y-61550000D03*
%TD*%
%TO.C,R4*%
X94500000Y-65900000D03*
X94500000Y-64250000D03*
%TD*%
D22*
%TO.C,R3*%
X90200000Y-59700000D03*
X91850000Y-59700000D03*
%TD*%
D23*
%TO.C,R2*%
X88100000Y-59500000D03*
X86450000Y-59500000D03*
%TD*%
D24*
%TO.C,R1*%
X76100000Y-75800000D03*
X76100000Y-77450000D03*
%TD*%
D25*
%TO.C,MK1*%
X91270000Y-61392500D03*
X90220000Y-61392500D03*
X91270000Y-64052500D03*
X90220000Y-64052500D03*
D26*
X88110000Y-62722500D03*
D25*
X89170000Y-61392500D03*
X88120000Y-61392500D03*
X89170000Y-64052500D03*
X88120000Y-64052500D03*
%TD*%
D27*
%TO.C,L1*%
X69100000Y-61600000D03*
X71225000Y-61600000D03*
%TD*%
D28*
%TO.C,J2*%
X68900000Y-83100000D03*
X72800000Y-83100000D03*
X68900000Y-84370000D03*
X72800000Y-84370000D03*
X68900000Y-85640000D03*
X72800000Y-85640000D03*
X68900000Y-86910000D03*
X72800000Y-86910000D03*
X68900000Y-88180000D03*
X72800000Y-88180000D03*
%TD*%
D29*
%TO.C,J1*%
X73350000Y-72225000D03*
X73350000Y-72875000D03*
X73350000Y-73525000D03*
X73350000Y-74175000D03*
X73350000Y-74825000D03*
D30*
X73300000Y-69800000D03*
X73300000Y-77250000D03*
D31*
X69500000Y-69650000D03*
X69500000Y-77400000D03*
D32*
X72250000Y-71025000D03*
X72250000Y-76025000D03*
%TD*%
D33*
%TO.C,D2*%
X78600000Y-63300000D03*
X78600000Y-61425000D03*
%TD*%
%TO.C,D1*%
X83600000Y-63500000D03*
X83600000Y-61625000D03*
%TD*%
D13*
%TO.C,C8*%
X72500000Y-90400000D03*
X74050000Y-90400000D03*
%TD*%
D11*
%TO.C,C7*%
X85400000Y-63600000D03*
X85400000Y-62050000D03*
%TD*%
D13*
%TO.C,C6*%
X94600000Y-78800000D03*
X96150000Y-78800000D03*
%TD*%
D12*
%TO.C,C5*%
X79200000Y-75900000D03*
X77650000Y-75900000D03*
%TD*%
D34*
%TO.C,C4*%
X72700000Y-61500000D03*
X72700000Y-63050000D03*
%TD*%
%TO.C,C3*%
X71100000Y-63300000D03*
X71100000Y-64850000D03*
%TD*%
%TO.C,C2*%
X74000000Y-64700000D03*
X74000000Y-66250000D03*
%TD*%
%TO.C,C1*%
X69100000Y-63200000D03*
X69100000Y-64750000D03*
%TD*%
M02*
