M48
; DRILL file {KiCad (6.0.0)} date Mon Mar 28 21:24:58 2022
; FORMAT={-:-/ absolute / inch / decimal}
; #@! TF.CreationDate,2022-03-28T21:24:58+02:00
; #@! TF.GenerationSoftware,Kicad,Pcbnew,(6.0.0)
; #@! TF.FileFunction,Plated,1,2,PTH
FMAT,2
INCH
; #@! TA.AperFunction,Plated,PTH,ViaDrill
T1C0.0157
%
G90
G05
T1
X3.622Y-2.5984
X3.6496Y-3.8583
X3.6614Y-3.7323
X3.7992Y-3.6969
X3.8031Y-3.3071
X3.8071Y-3.8583
X3.9011Y-3.7997
X3.9115Y-3.5826
X3.9843Y-2.6535
X3.9876Y-2.8499
X4.0118Y-3.7598
X4.0394Y-3.8622
X4.0472Y-3.6969
X4.0678Y-2.6994
X4.1575Y-2.874
X4.1732Y-3.5827
X4.2283Y-2.6457
X4.2317Y-2.8499
X4.2677Y-3.3071
X4.2756Y-3.7638
X4.2874Y-3.685
X4.2953Y-3.8583
X4.3206Y-2.6873
X4.4016Y-3.5827
X4.4035Y-2.872
X4.4882Y-2.5591
X4.4892Y-3.7569
X4.4915Y-2.6964
X4.5315Y-3.689
X4.5512Y-3.8504
X4.6447Y-3.5758
X4.6929Y-3.7283
X4.8031Y-2.5984
T0
M30
