%TF.GenerationSoftware,KiCad,Pcbnew,(6.0.0)*%
%TF.CreationDate,2022-03-28T21:02:23+02:00*%
%TF.ProjectId,BMS,424d532e-6b69-4636-9164-5f7063625858,rev?*%
%TF.SameCoordinates,Original*%
%TF.FileFunction,Copper,L1,Top*%
%TF.FilePolarity,Positive*%
%FSLAX46Y46*%
G04 Gerber Fmt 4.6, Leading zero omitted, Abs format (unit mm)*
G04 Created by KiCad (PCBNEW (6.0.0)) date 2022-03-28 21:02:23*
%MOMM*%
%LPD*%
G01*
G04 APERTURE LIST*
G04 Aperture macros list*
%AMRoundRect*
0 Rectangle with rounded corners*
0 $1 Rounding radius*
0 $2 $3 $4 $5 $6 $7 $8 $9 X,Y pos of 4 corners*
0 Add a 4 corners polygon primitive as box body*
4,1,4,$2,$3,$4,$5,$6,$7,$8,$9,$2,$3,0*
0 Add four circle primitives for the rounded corners*
1,1,$1+$1,$2,$3*
1,1,$1+$1,$4,$5*
1,1,$1+$1,$6,$7*
1,1,$1+$1,$8,$9*
0 Add four rect primitives between the rounded corners*
20,1,$1+$1,$2,$3,$4,$5,0*
20,1,$1+$1,$4,$5,$6,$7,0*
20,1,$1+$1,$6,$7,$8,$9,0*
20,1,$1+$1,$8,$9,$2,$3,0*%
G04 Aperture macros list end*
%TA.AperFunction,SMDPad,CuDef*%
%ADD10RoundRect,0.250000X0.450000X-0.262500X0.450000X0.262500X-0.450000X0.262500X-0.450000X-0.262500X0*%
%TD*%
%TA.AperFunction,SMDPad,CuDef*%
%ADD11RoundRect,0.250000X-0.450000X0.262500X-0.450000X-0.262500X0.450000X-0.262500X0.450000X0.262500X0*%
%TD*%
%TA.AperFunction,SMDPad,CuDef*%
%ADD12RoundRect,0.150000X-0.587500X-0.150000X0.587500X-0.150000X0.587500X0.150000X-0.587500X0.150000X0*%
%TD*%
%TA.AperFunction,SMDPad,CuDef*%
%ADD13RoundRect,0.150000X0.587500X0.150000X-0.587500X0.150000X-0.587500X-0.150000X0.587500X-0.150000X0*%
%TD*%
%TA.AperFunction,SMDPad,CuDef*%
%ADD14R,1.270000X2.540000*%
%TD*%
%TA.AperFunction,SMDPad,CuDef*%
%ADD15R,1.150000X0.600000*%
%TD*%
%TA.AperFunction,SMDPad,CuDef*%
%ADD16RoundRect,0.250000X0.475000X-0.250000X0.475000X0.250000X-0.475000X0.250000X-0.475000X-0.250000X0*%
%TD*%
%TA.AperFunction,ViaPad*%
%ADD17C,0.800000*%
%TD*%
%TA.AperFunction,Conductor*%
%ADD18C,0.500000*%
%TD*%
G04 APERTURE END LIST*
D10*
%TO.P,R8,1*%
%TO.N,B7*%
X117200000Y-95425000D03*
%TO.P,R8,2*%
%TO.N,Net-(C8-Pad1)*%
X117200000Y-93600000D03*
%TD*%
%TO.P,R7,1*%
%TO.N,B6*%
X111000000Y-95600000D03*
%TO.P,R7,2*%
%TO.N,Net-(C7-Pad1)*%
X111000000Y-93775000D03*
%TD*%
%TO.P,R6,1*%
%TO.N,B5*%
X104800000Y-95600000D03*
%TO.P,R6,2*%
%TO.N,Net-(C6-Pad1)*%
X104800000Y-93775000D03*
%TD*%
%TO.P,R5,1*%
%TO.N,B4*%
X98400000Y-95400000D03*
%TO.P,R5,2*%
%TO.N,Net-(C5-Pad1)*%
X98400000Y-93575000D03*
%TD*%
%TO.P,R4,1*%
%TO.N,B3*%
X92000000Y-95400000D03*
%TO.P,R4,2*%
%TO.N,Net-(C4-Pad1)*%
X92000000Y-93575000D03*
%TD*%
D11*
%TO.P,R3,1*%
%TO.N,B2*%
X110800000Y-67400000D03*
%TO.P,R3,2*%
%TO.N,Net-(C3-Pad1)*%
X110800000Y-69225000D03*
%TD*%
%TO.P,R2,1*%
%TO.N,B1*%
X104600000Y-67487500D03*
%TO.P,R2,2*%
%TO.N,Net-(C2-Pad1)*%
X104600000Y-69312500D03*
%TD*%
%TO.P,R1,1*%
%TO.N,B0*%
X98400000Y-67400000D03*
%TO.P,R1,2*%
%TO.N,Net-(C1-Pad1)*%
X98400000Y-69225000D03*
%TD*%
D12*
%TO.P,Q8,1,G*%
%TO.N,Net-(Q8-Pad1)*%
X119200000Y-93600000D03*
%TO.P,Q8,2,S*%
%TO.N,GND*%
X119200000Y-95500000D03*
%TO.P,Q8,3,D*%
%TO.N,B7*%
X121075000Y-94550000D03*
%TD*%
%TO.P,Q7,1,G*%
%TO.N,Net-(Q7-Pad1)*%
X113125000Y-93600000D03*
%TO.P,Q7,2,S*%
%TO.N,B7*%
X113125000Y-95500000D03*
%TO.P,Q7,3,D*%
%TO.N,B6*%
X115000000Y-94550000D03*
%TD*%
%TO.P,Q6,1,G*%
%TO.N,Net-(Q6-Pad1)*%
X107000000Y-93600000D03*
%TO.P,Q6,2,S*%
%TO.N,B6*%
X107000000Y-95500000D03*
%TO.P,Q6,3,D*%
%TO.N,B5*%
X108875000Y-94550000D03*
%TD*%
%TO.P,Q5,1,G*%
%TO.N,Net-(Q5-Pad1)*%
X100600000Y-93600000D03*
%TO.P,Q5,2,S*%
%TO.N,B5*%
X100600000Y-95500000D03*
%TO.P,Q5,3,D*%
%TO.N,B4*%
X102475000Y-94550000D03*
%TD*%
%TO.P,Q4,1,G*%
%TO.N,Net-(Q4-Pad1)*%
X94525000Y-93650000D03*
%TO.P,Q4,2,S*%
%TO.N,B4*%
X94525000Y-95550000D03*
%TO.P,Q4,3,D*%
%TO.N,B3*%
X96400000Y-94600000D03*
%TD*%
%TO.P,Q3,1,G*%
%TO.N,Net-(Q3-Pad1)*%
X113000000Y-67300000D03*
%TO.P,Q3,2,S*%
%TO.N,B3*%
X113000000Y-69200000D03*
%TO.P,Q3,3,D*%
%TO.N,B2*%
X114875000Y-68250000D03*
%TD*%
D13*
%TO.P,Q2,1,G*%
%TO.N,Net-(Q2-Pad1)*%
X108600000Y-69200000D03*
%TO.P,Q2,2,S*%
%TO.N,B2*%
X108600000Y-67300000D03*
%TO.P,Q2,3,D*%
%TO.N,B1*%
X106725000Y-68250000D03*
%TD*%
%TO.P,Q1,1,G*%
%TO.N,Net-(Q1-Pad1)*%
X102337500Y-69350000D03*
%TO.P,Q1,2,S*%
%TO.N,B1*%
X102337500Y-67450000D03*
%TO.P,Q1,3,D*%
%TO.N,B0*%
X100462500Y-68400000D03*
%TD*%
D14*
%TO.P,J1,1,Pin_1*%
%TO.N,B0*%
X94640000Y-77100000D03*
%TO.P,J1,2,Pin_2*%
X97640000Y-77100000D03*
%TO.P,J1,3,Pin_3*%
%TO.N,B1*%
X100640000Y-77100000D03*
%TO.P,J1,4,Pin_4*%
X103640000Y-77100000D03*
%TO.P,J1,5,Pin_5*%
%TO.N,B2*%
X106640000Y-77100000D03*
%TO.P,J1,6,Pin_6*%
X109640000Y-77100000D03*
%TO.P,J1,7,Pin_7*%
%TO.N,B3*%
X112640000Y-77100000D03*
%TO.P,J1,8,Pin_8*%
X115640000Y-77100000D03*
%TO.P,J1,9,Pin_9*%
%TO.N,B4*%
X118640000Y-77100000D03*
%TO.P,J1,10,Pin_10*%
X94640000Y-86500000D03*
%TO.P,J1,11,Pin_11*%
%TO.N,B5*%
X97640000Y-86500000D03*
%TO.P,J1,12,Pin_12*%
X100640000Y-86500000D03*
%TO.P,J1,13,Pin_13*%
%TO.N,B6*%
X103640000Y-86500000D03*
%TO.P,J1,14,Pin_14*%
X106640000Y-86500000D03*
%TO.P,J1,15,Pin_15*%
%TO.N,B7*%
X109640000Y-86500000D03*
%TO.P,J1,16,Pin_16*%
X112640000Y-86500000D03*
%TO.P,J1,17,Pin_17*%
%TO.N,GND*%
X115640000Y-86500000D03*
%TO.P,J1,18,Pin_18*%
X118640000Y-86500000D03*
%TD*%
D15*
%TO.P,IC8,1,NC_1*%
%TO.N,unconnected-(IC8-Pad1)*%
X119000000Y-90050000D03*
%TO.P,IC8,2,VDD*%
%TO.N,GND*%
X119000000Y-91000000D03*
%TO.P,IC8,3,VSS*%
%TO.N,Net-(C8-Pad1)*%
X119000000Y-91950000D03*
%TO.P,IC8,4,NC_2*%
%TO.N,unconnected-(IC8-Pad4)*%
X121500000Y-91950000D03*
%TO.P,IC8,5,NC_3*%
%TO.N,unconnected-(IC8-Pad5)*%
X121500000Y-91000000D03*
%TO.P,IC8,6,OUT*%
%TO.N,Net-(Q8-Pad1)*%
X121500000Y-90050000D03*
%TD*%
%TO.P,IC7,1,NC_1*%
%TO.N,unconnected-(IC7-Pad1)*%
X112800000Y-90050000D03*
%TO.P,IC7,2,VDD*%
%TO.N,B7*%
X112800000Y-91000000D03*
%TO.P,IC7,3,VSS*%
%TO.N,Net-(C7-Pad1)*%
X112800000Y-91950000D03*
%TO.P,IC7,4,NC_2*%
%TO.N,unconnected-(IC7-Pad4)*%
X115300000Y-91950000D03*
%TO.P,IC7,5,NC_3*%
%TO.N,unconnected-(IC7-Pad5)*%
X115300000Y-91000000D03*
%TO.P,IC7,6,OUT*%
%TO.N,Net-(Q7-Pad1)*%
X115300000Y-90050000D03*
%TD*%
%TO.P,IC6,1,NC_1*%
%TO.N,unconnected-(IC6-Pad1)*%
X106750000Y-90050000D03*
%TO.P,IC6,2,VDD*%
%TO.N,B6*%
X106750000Y-91000000D03*
%TO.P,IC6,3,VSS*%
%TO.N,Net-(C6-Pad1)*%
X106750000Y-91950000D03*
%TO.P,IC6,4,NC_2*%
%TO.N,unconnected-(IC6-Pad4)*%
X109250000Y-91950000D03*
%TO.P,IC6,5,NC_3*%
%TO.N,unconnected-(IC6-Pad5)*%
X109250000Y-91000000D03*
%TO.P,IC6,6,OUT*%
%TO.N,Net-(Q6-Pad1)*%
X109250000Y-90050000D03*
%TD*%
%TO.P,IC5,1,NC_1*%
%TO.N,unconnected-(IC5-Pad1)*%
X100400000Y-90050000D03*
%TO.P,IC5,2,VDD*%
%TO.N,B5*%
X100400000Y-91000000D03*
%TO.P,IC5,3,VSS*%
%TO.N,Net-(C5-Pad1)*%
X100400000Y-91950000D03*
%TO.P,IC5,4,NC_2*%
%TO.N,unconnected-(IC5-Pad4)*%
X102900000Y-91950000D03*
%TO.P,IC5,5,NC_3*%
%TO.N,unconnected-(IC5-Pad5)*%
X102900000Y-91000000D03*
%TO.P,IC5,6,OUT*%
%TO.N,Net-(Q5-Pad1)*%
X102900000Y-90050000D03*
%TD*%
%TO.P,IC4,1,NC_1*%
%TO.N,unconnected-(IC4-Pad1)*%
X93950000Y-90050000D03*
%TO.P,IC4,2,VDD*%
%TO.N,B4*%
X93950000Y-91000000D03*
%TO.P,IC4,3,VSS*%
%TO.N,Net-(C4-Pad1)*%
X93950000Y-91950000D03*
%TO.P,IC4,4,NC_2*%
%TO.N,unconnected-(IC4-Pad4)*%
X96450000Y-91950000D03*
%TO.P,IC4,5,NC_3*%
%TO.N,unconnected-(IC4-Pad5)*%
X96450000Y-91000000D03*
%TO.P,IC4,6,OUT*%
%TO.N,Net-(Q4-Pad1)*%
X96450000Y-90050000D03*
%TD*%
%TO.P,IC3,1,NC_1*%
%TO.N,unconnected-(IC3-Pad1)*%
X112750000Y-71050000D03*
%TO.P,IC3,2,VDD*%
%TO.N,B3*%
X112750000Y-72000000D03*
%TO.P,IC3,3,VSS*%
%TO.N,Net-(C3-Pad1)*%
X112750000Y-72950000D03*
%TO.P,IC3,4,NC_2*%
%TO.N,unconnected-(IC3-Pad4)*%
X115250000Y-72950000D03*
%TO.P,IC3,5,NC_3*%
%TO.N,unconnected-(IC3-Pad5)*%
X115250000Y-72000000D03*
%TO.P,IC3,6,OUT*%
%TO.N,Net-(Q3-Pad1)*%
X115250000Y-71050000D03*
%TD*%
%TO.P,IC2,1,NC_1*%
%TO.N,unconnected-(IC2-Pad1)*%
X106400000Y-71100000D03*
%TO.P,IC2,2,VDD*%
%TO.N,B2*%
X106400000Y-72050000D03*
%TO.P,IC2,3,VSS*%
%TO.N,Net-(C2-Pad1)*%
X106400000Y-73000000D03*
%TO.P,IC2,4,NC_2*%
%TO.N,unconnected-(IC2-Pad4)*%
X108900000Y-73000000D03*
%TO.P,IC2,5,NC_3*%
%TO.N,unconnected-(IC2-Pad5)*%
X108900000Y-72050000D03*
%TO.P,IC2,6,OUT*%
%TO.N,Net-(Q2-Pad1)*%
X108900000Y-71100000D03*
%TD*%
%TO.P,IC1,1,NC_1*%
%TO.N,unconnected-(IC1-Pad1)*%
X100200000Y-71100000D03*
%TO.P,IC1,2,VDD*%
%TO.N,B1*%
X100200000Y-72050000D03*
%TO.P,IC1,3,VSS*%
%TO.N,Net-(C1-Pad1)*%
X100200000Y-73000000D03*
%TO.P,IC1,4,NC_2*%
%TO.N,unconnected-(IC1-Pad4)*%
X102700000Y-73000000D03*
%TO.P,IC1,5,NC_3*%
%TO.N,unconnected-(IC1-Pad5)*%
X102700000Y-72050000D03*
%TO.P,IC1,6,OUT*%
%TO.N,Net-(Q1-Pad1)*%
X102700000Y-71100000D03*
%TD*%
D16*
%TO.P,C8,1*%
%TO.N,Net-(C8-Pad1)*%
X117200000Y-91950000D03*
%TO.P,C8,2*%
%TO.N,GND*%
X117200000Y-90050000D03*
%TD*%
%TO.P,C7,1*%
%TO.N,Net-(C7-Pad1)*%
X111000000Y-92100000D03*
%TO.P,C7,2*%
%TO.N,B7*%
X111000000Y-90200000D03*
%TD*%
%TO.P,C6,1*%
%TO.N,Net-(C6-Pad1)*%
X104800000Y-92000000D03*
%TO.P,C6,2*%
%TO.N,B6*%
X104800000Y-90100000D03*
%TD*%
%TO.P,C5,1*%
%TO.N,Net-(C5-Pad1)*%
X98400000Y-91950000D03*
%TO.P,C5,2*%
%TO.N,B5*%
X98400000Y-90050000D03*
%TD*%
%TO.P,C4,1*%
%TO.N,Net-(C4-Pad1)*%
X92000000Y-91950000D03*
%TO.P,C4,2*%
%TO.N,B4*%
X92000000Y-90050000D03*
%TD*%
%TO.P,C3,1*%
%TO.N,Net-(C3-Pad1)*%
X110800000Y-72900000D03*
%TO.P,C3,2*%
%TO.N,B3*%
X110800000Y-71000000D03*
%TD*%
%TO.P,C2,1*%
%TO.N,Net-(C2-Pad1)*%
X104600000Y-73000000D03*
%TO.P,C2,2*%
%TO.N,B2*%
X104600000Y-71100000D03*
%TD*%
%TO.P,C1,1*%
%TO.N,Net-(C1-Pad1)*%
X98400000Y-72900000D03*
%TO.P,C1,2*%
%TO.N,B1*%
X98400000Y-71000000D03*
%TD*%
D17*
%TO.N,GND*%
X92000000Y-66000000D03*
X122000000Y-66000000D03*
%TO.N,B4*%
X102800000Y-93600000D03*
X108400000Y-84000000D03*
%TO.N,B7*%
X114025000Y-95425000D03*
X111800000Y-91000000D03*
%TO.N,B6*%
X108600000Y-95600000D03*
X106000000Y-91000000D03*
%TO.N,B5*%
X101900000Y-95500000D03*
X99351996Y-90997059D03*
%TO.N,B3*%
X95400000Y-94550500D03*
X96600000Y-84000000D03*
%TO.N,Net-(C3-Pad1)*%
X111850000Y-72950000D03*
X109742448Y-68256244D03*
%TO.N,B2*%
X107486145Y-72386738D03*
X107400000Y-67200000D03*
%TO.N,B1*%
X101286145Y-72386738D03*
X101200000Y-67400000D03*
%TD*%
D18*
%TO.N,B4*%
X102800000Y-93600000D02*
X102800000Y-94225000D01*
X102800000Y-94225000D02*
X102475000Y-94550000D01*
X118640000Y-79760000D02*
X114400000Y-84000000D01*
X114400000Y-84000000D02*
X108400000Y-84000000D01*
X118640000Y-77100000D02*
X118640000Y-79760000D01*
%TO.N,B7*%
X114025000Y-95425000D02*
X113200000Y-95425000D01*
X117200000Y-95425000D02*
X114025000Y-95425000D01*
X112800000Y-91000000D02*
X111800000Y-91000000D01*
%TO.N,B6*%
X111000000Y-95600000D02*
X108600000Y-95600000D01*
X108600000Y-95600000D02*
X107100000Y-95600000D01*
X106750000Y-91000000D02*
X106000000Y-91000000D01*
X105700000Y-91000000D02*
X106000000Y-91000000D01*
%TO.N,B5*%
X101900000Y-95500000D02*
X104700000Y-95500000D01*
X100600000Y-95500000D02*
X101900000Y-95500000D01*
X99354937Y-91000000D02*
X99351996Y-90997059D01*
X100400000Y-91000000D02*
X99354937Y-91000000D01*
%TO.N,Net-(Q5-Pad1)*%
X101950000Y-90050000D02*
X102900000Y-90050000D01*
X101600000Y-90400000D02*
X101950000Y-90050000D01*
X101600000Y-92600000D02*
X101600000Y-90400000D01*
X100600000Y-93600000D02*
X101600000Y-92600000D01*
%TO.N,B3*%
X105740000Y-84000000D02*
X96600000Y-84000000D01*
X112640000Y-77100000D02*
X105740000Y-84000000D01*
%TO.N,Net-(C3-Pad1)*%
X111850000Y-72950000D02*
X110850000Y-72950000D01*
X112750000Y-72950000D02*
X111850000Y-72950000D01*
X110711204Y-69225000D02*
X109742448Y-68256244D01*
X110800000Y-69225000D02*
X110711204Y-69225000D01*
%TO.N,B2*%
X107500000Y-67300000D02*
X107400000Y-67200000D01*
X108600000Y-67300000D02*
X107500000Y-67300000D01*
%TO.N,B1*%
X101250000Y-67450000D02*
X101200000Y-67400000D01*
X102337500Y-67450000D02*
X101250000Y-67450000D01*
%TO.N,B6*%
X115000000Y-94550000D02*
X112050000Y-94550000D01*
X112050000Y-94550000D02*
X111000000Y-95600000D01*
%TO.N,B7*%
X113200000Y-95425000D02*
X113125000Y-95500000D01*
X118075000Y-94550000D02*
X117200000Y-95425000D01*
X121075000Y-94550000D02*
X118075000Y-94550000D01*
%TO.N,Net-(Q8-Pad1)*%
X120475489Y-90250489D02*
X120675978Y-90050000D01*
X120675978Y-90050000D02*
X121500000Y-90050000D01*
X120475489Y-92324511D02*
X120475489Y-90250489D01*
X119200000Y-93600000D02*
X120475489Y-92324511D01*
%TO.N,Net-(C8-Pad1)*%
X117200000Y-93600000D02*
X117200000Y-91950000D01*
X119000000Y-91950000D02*
X117200000Y-91950000D01*
%TO.N,GND*%
X118150000Y-91000000D02*
X117200000Y-90050000D01*
X119000000Y-91000000D02*
X118150000Y-91000000D01*
X117200000Y-88060000D02*
X115640000Y-86500000D01*
X117200000Y-90050000D02*
X117200000Y-88060000D01*
%TO.N,Net-(Q7-Pad1)*%
X114350000Y-90050000D02*
X115300000Y-90050000D01*
X114200000Y-90200000D02*
X114350000Y-90050000D01*
X114200000Y-92525000D02*
X114200000Y-90200000D01*
X113125000Y-93600000D02*
X114200000Y-92525000D01*
%TO.N,B7*%
X111000000Y-89000000D02*
X111000000Y-90200000D01*
X109640000Y-87640000D02*
X111000000Y-89000000D01*
X109640000Y-86500000D02*
X109640000Y-87640000D01*
X111800000Y-91000000D02*
X111000000Y-90200000D01*
%TO.N,Net-(C7-Pad1)*%
X111150000Y-91950000D02*
X111000000Y-92100000D01*
X112800000Y-91950000D02*
X111150000Y-91950000D01*
X111000000Y-93775000D02*
X111000000Y-92100000D01*
%TO.N,Net-(C6-Pad1)*%
X104800000Y-92000000D02*
X104800000Y-93775000D01*
X104850000Y-91950000D02*
X104800000Y-92000000D01*
X106750000Y-91950000D02*
X104850000Y-91950000D01*
%TO.N,Net-(Q6-Pad1)*%
X108550000Y-90050000D02*
X109250000Y-90050000D01*
X108000000Y-90600000D02*
X108550000Y-90050000D01*
X108000000Y-92600000D02*
X108000000Y-90600000D01*
X107000000Y-93600000D02*
X108000000Y-92600000D01*
%TO.N,B6*%
X107100000Y-95600000D02*
X107000000Y-95500000D01*
%TO.N,B5*%
X104800000Y-95600000D02*
X105850000Y-94550000D01*
X105850000Y-94550000D02*
X108875000Y-94550000D01*
%TO.N,B6*%
X103640000Y-88940000D02*
X104800000Y-90100000D01*
X103640000Y-86500000D02*
X103640000Y-88940000D01*
X104800000Y-90100000D02*
X105700000Y-91000000D01*
%TO.N,B5*%
X104700000Y-95500000D02*
X104800000Y-95600000D01*
%TO.N,B4*%
X99250000Y-94550000D02*
X98400000Y-95400000D01*
X102475000Y-94550000D02*
X99250000Y-94550000D01*
X94675000Y-95400000D02*
X94525000Y-95550000D01*
X98400000Y-95400000D02*
X94675000Y-95400000D01*
%TO.N,Net-(C5-Pad1)*%
X100400000Y-91950000D02*
X98400000Y-91950000D01*
X98400000Y-91950000D02*
X98400000Y-93575000D01*
%TO.N,B5*%
X99350000Y-91000000D02*
X98400000Y-90050000D01*
X100400000Y-91000000D02*
X99350000Y-91000000D01*
X98400000Y-87260000D02*
X97640000Y-86500000D01*
X98400000Y-90050000D02*
X98400000Y-87260000D01*
%TO.N,B4*%
X94640000Y-87410000D02*
X92000000Y-90050000D01*
X94640000Y-86500000D02*
X94640000Y-87410000D01*
X90825480Y-95927250D02*
X90825480Y-91224520D01*
X90825480Y-91224520D02*
X92000000Y-90050000D01*
X91260250Y-96362020D02*
X90825480Y-95927250D01*
X93712980Y-96362020D02*
X91260250Y-96362020D01*
X94525000Y-95550000D02*
X93712980Y-96362020D01*
%TO.N,Net-(Q4-Pad1)*%
X94974511Y-93200489D02*
X94525000Y-93650000D01*
X95625978Y-90050000D02*
X94974511Y-90701467D01*
X94974511Y-90701467D02*
X94974511Y-93200489D01*
X96450000Y-90050000D02*
X95625978Y-90050000D01*
%TO.N,B3*%
X92800000Y-94600000D02*
X92000000Y-95400000D01*
X96400000Y-94600000D02*
X92800000Y-94600000D01*
%TO.N,Net-(C4-Pad1)*%
X92000000Y-93575000D02*
X92000000Y-91950000D01*
X93950000Y-91950000D02*
X92000000Y-91950000D01*
%TO.N,B4*%
X92950000Y-91000000D02*
X92000000Y-90050000D01*
X93950000Y-91000000D02*
X92950000Y-91000000D01*
%TO.N,B0*%
X96525961Y-69274039D02*
X98400000Y-67400000D01*
X96525961Y-75985961D02*
X96525961Y-69274039D01*
X97640000Y-77100000D02*
X96525961Y-75985961D01*
%TO.N,B1*%
X101224511Y-76515489D02*
X101224511Y-72424511D01*
X101224511Y-72424511D02*
X100850000Y-72050000D01*
X100640000Y-77100000D02*
X101224511Y-76515489D01*
X100850000Y-72050000D02*
X100200000Y-72050000D01*
%TO.N,GND*%
X115640000Y-86500000D02*
X118640000Y-86500000D01*
%TO.N,B7*%
X109640000Y-86500000D02*
X112640000Y-86500000D01*
%TO.N,B6*%
X103640000Y-86500000D02*
X106640000Y-86500000D01*
%TO.N,B5*%
X100640000Y-86500000D02*
X97640000Y-86500000D01*
%TO.N,B3*%
X115640000Y-77100000D02*
X112640000Y-77100000D01*
%TO.N,B1*%
X103640000Y-77100000D02*
X100640000Y-77100000D01*
%TO.N,B0*%
X97640000Y-77100000D02*
X94640000Y-77100000D01*
%TO.N,Net-(Q1-Pad1)*%
X102700000Y-69712500D02*
X102337500Y-69350000D01*
X102700000Y-71100000D02*
X102700000Y-69712500D01*
%TO.N,Net-(Q3-Pad1)*%
X116062020Y-67662020D02*
X115700000Y-67300000D01*
X116062020Y-70237980D02*
X116062020Y-67662020D01*
X115250000Y-71050000D02*
X116062020Y-70237980D01*
X115700000Y-67300000D02*
X113000000Y-67300000D01*
%TO.N,B3*%
X113775000Y-69975000D02*
X113775000Y-72425000D01*
X113000000Y-69200000D02*
X113775000Y-69975000D01*
X113775000Y-75330000D02*
X113775000Y-72425000D01*
X113775000Y-72425000D02*
X113775000Y-72200978D01*
%TO.N,Net-(C3-Pad1)*%
X110850000Y-72950000D02*
X110800000Y-72900000D01*
%TO.N,B3*%
X111800000Y-72000000D02*
X112750000Y-72000000D01*
X110800000Y-71000000D02*
X111800000Y-72000000D01*
X113574022Y-72000000D02*
X112750000Y-72000000D01*
X112640000Y-76465000D02*
X113775000Y-75330000D01*
X113775000Y-72200978D02*
X113574022Y-72000000D01*
X112640000Y-77100000D02*
X112640000Y-76465000D01*
%TO.N,B2*%
X109640000Y-77100000D02*
X106640000Y-77100000D01*
X107050000Y-72050000D02*
X106400000Y-72050000D01*
X107424511Y-72424511D02*
X107050000Y-72050000D01*
X107424511Y-76315489D02*
X107424511Y-72424511D01*
X106640000Y-77100000D02*
X107424511Y-76315489D01*
%TO.N,B1*%
X104562500Y-67450000D02*
X104600000Y-67487500D01*
X102337500Y-67450000D02*
X104562500Y-67450000D01*
X106725000Y-68250000D02*
X105362500Y-68250000D01*
X105362500Y-68250000D02*
X104600000Y-67487500D01*
%TO.N,B2*%
X105550000Y-72050000D02*
X104600000Y-71100000D01*
X106400000Y-72050000D02*
X105550000Y-72050000D01*
%TO.N,Net-(C2-Pad1)*%
X106400000Y-73000000D02*
X104600000Y-73000000D01*
%TO.N,Net-(Q2-Pad1)*%
X108900000Y-69500000D02*
X108600000Y-69200000D01*
X108900000Y-71100000D02*
X108900000Y-69500000D01*
%TO.N,B2*%
X111650000Y-68250000D02*
X110800000Y-67400000D01*
X114875000Y-68250000D02*
X111650000Y-68250000D01*
X110700000Y-67300000D02*
X110800000Y-67400000D01*
X108600000Y-67300000D02*
X110700000Y-67300000D01*
%TO.N,B0*%
X99400000Y-68400000D02*
X98400000Y-67400000D01*
X100462500Y-68400000D02*
X99400000Y-68400000D01*
%TO.N,Net-(C1-Pad1)*%
X97225480Y-71725480D02*
X97225480Y-70399520D01*
X98400000Y-72900000D02*
X97225480Y-71725480D01*
X97225480Y-70399520D02*
X98400000Y-69225000D01*
%TO.N,B1*%
X99450000Y-72050000D02*
X100200000Y-72050000D01*
X98400000Y-71000000D02*
X99450000Y-72050000D01*
%TO.N,Net-(C1-Pad1)*%
X98500000Y-73000000D02*
X98400000Y-72900000D01*
X100200000Y-73000000D02*
X98500000Y-73000000D01*
%TD*%
%TA.AperFunction,Conductor*%
%TO.N,GND*%
G36*
X123434121Y-65528002D02*
G01*
X123480614Y-65581658D01*
X123492000Y-65634000D01*
X123492000Y-96366000D01*
X123471998Y-96434121D01*
X123418342Y-96480614D01*
X123366000Y-96492000D01*
X120116960Y-96492000D01*
X120048839Y-96471998D01*
X120002346Y-96418342D01*
X119992242Y-96348068D01*
X120021736Y-96283488D01*
X120052821Y-96257546D01*
X120187177Y-96178089D01*
X120199604Y-96168449D01*
X120305949Y-96062104D01*
X120315589Y-96049678D01*
X120392148Y-95920221D01*
X120398393Y-95905790D01*
X120437439Y-95771395D01*
X120437399Y-95757294D01*
X120430130Y-95754000D01*
X119072000Y-95754000D01*
X119003879Y-95733998D01*
X118957386Y-95680342D01*
X118946000Y-95628000D01*
X118946000Y-95434500D01*
X118966002Y-95366379D01*
X119019658Y-95319886D01*
X119072000Y-95308500D01*
X120203746Y-95308500D01*
X120238898Y-95313503D01*
X120377489Y-95353767D01*
X120377493Y-95353768D01*
X120383669Y-95355562D01*
X120390074Y-95356066D01*
X120390079Y-95356067D01*
X120418542Y-95358307D01*
X120418550Y-95358307D01*
X120420998Y-95358500D01*
X121729002Y-95358500D01*
X121731450Y-95358307D01*
X121731458Y-95358307D01*
X121759921Y-95356067D01*
X121759926Y-95356066D01*
X121766331Y-95355562D01*
X121911101Y-95313503D01*
X121918488Y-95311357D01*
X121918490Y-95311356D01*
X121926101Y-95309145D01*
X121954911Y-95292107D01*
X122062480Y-95228491D01*
X122062483Y-95228489D01*
X122069307Y-95224453D01*
X122186953Y-95106807D01*
X122190989Y-95099983D01*
X122190991Y-95099980D01*
X122267608Y-94970427D01*
X122271645Y-94963601D01*
X122318062Y-94803831D01*
X122321000Y-94766502D01*
X122321000Y-94333498D01*
X122318062Y-94296169D01*
X122271645Y-94136399D01*
X122254607Y-94107589D01*
X122190991Y-94000020D01*
X122190989Y-94000017D01*
X122186953Y-93993193D01*
X122069307Y-93875547D01*
X122062483Y-93871511D01*
X122062480Y-93871509D01*
X121932927Y-93794892D01*
X121932928Y-93794892D01*
X121926101Y-93790855D01*
X121918490Y-93788644D01*
X121918488Y-93788643D01*
X121843154Y-93766757D01*
X121766331Y-93744438D01*
X121759926Y-93743934D01*
X121759921Y-93743933D01*
X121731458Y-93741693D01*
X121731450Y-93741693D01*
X121729002Y-93741500D01*
X120572000Y-93741500D01*
X120503879Y-93721498D01*
X120457386Y-93667842D01*
X120446000Y-93615500D01*
X120446000Y-93478871D01*
X120466002Y-93410750D01*
X120482905Y-93389776D01*
X120964400Y-92908281D01*
X120978812Y-92895895D01*
X120990407Y-92887362D01*
X120990412Y-92887357D01*
X120996307Y-92883019D01*
X121001046Y-92877441D01*
X121001049Y-92877438D01*
X121030524Y-92842743D01*
X121037454Y-92835227D01*
X121043149Y-92829532D01*
X121045420Y-92826661D01*
X121045432Y-92826648D01*
X121060784Y-92807243D01*
X121063594Y-92803816D01*
X121064376Y-92802896D01*
X121123734Y-92763947D01*
X121160380Y-92758500D01*
X122123134Y-92758500D01*
X122185316Y-92751745D01*
X122321705Y-92700615D01*
X122438261Y-92613261D01*
X122525615Y-92496705D01*
X122576745Y-92360316D01*
X122583500Y-92298134D01*
X122583500Y-91601866D01*
X122576745Y-91539684D01*
X122569077Y-91519230D01*
X122563894Y-91448423D01*
X122569077Y-91430770D01*
X122576745Y-91410316D01*
X122583500Y-91348134D01*
X122583500Y-90651866D01*
X122576745Y-90589684D01*
X122569077Y-90569230D01*
X122563894Y-90498423D01*
X122569077Y-90480770D01*
X122576745Y-90460316D01*
X122583500Y-90398134D01*
X122583500Y-89701866D01*
X122576745Y-89639684D01*
X122525615Y-89503295D01*
X122438261Y-89386739D01*
X122321705Y-89299385D01*
X122185316Y-89248255D01*
X122123134Y-89241500D01*
X120876866Y-89241500D01*
X120873469Y-89241869D01*
X120822534Y-89247402D01*
X120822532Y-89247402D01*
X120814684Y-89248255D01*
X120807291Y-89251027D01*
X120807289Y-89251027D01*
X120730896Y-89279665D01*
X120696883Y-89287268D01*
X120657401Y-89290480D01*
X120649959Y-89291085D01*
X120639745Y-89291500D01*
X120631685Y-89291500D01*
X120618415Y-89293047D01*
X120603471Y-89294789D01*
X120599096Y-89295222D01*
X120533639Y-89300546D01*
X120533636Y-89300547D01*
X120526341Y-89301140D01*
X120519377Y-89303396D01*
X120513418Y-89304587D01*
X120507563Y-89305971D01*
X120500297Y-89306818D01*
X120431651Y-89331735D01*
X120427523Y-89333152D01*
X120365042Y-89353393D01*
X120365040Y-89353394D01*
X120358079Y-89355649D01*
X120351824Y-89359445D01*
X120346350Y-89361951D01*
X120340920Y-89364670D01*
X120334041Y-89367167D01*
X120273002Y-89407186D01*
X120269305Y-89409518D01*
X120269283Y-89409532D01*
X120211671Y-89444491D01*
X120211666Y-89444495D01*
X120206870Y-89447405D01*
X120198494Y-89454803D01*
X120198471Y-89454777D01*
X120195481Y-89457426D01*
X120192243Y-89460134D01*
X120186126Y-89464144D01*
X120181095Y-89469454D01*
X120175476Y-89474153D01*
X120174203Y-89472631D01*
X120121481Y-89503298D01*
X120050554Y-89500150D01*
X119990553Y-89456512D01*
X119955340Y-89409528D01*
X119938261Y-89386739D01*
X119821705Y-89299385D01*
X119685316Y-89248255D01*
X119623134Y-89241500D01*
X118376866Y-89241500D01*
X118373469Y-89241869D01*
X118322534Y-89247402D01*
X118322532Y-89247402D01*
X118314684Y-89248255D01*
X118307293Y-89251026D01*
X118307288Y-89251027D01*
X118303739Y-89252358D01*
X118300782Y-89252575D01*
X118299602Y-89252855D01*
X118299557Y-89252664D01*
X118232932Y-89257542D01*
X118170490Y-89223550D01*
X118153171Y-89206261D01*
X118141760Y-89197249D01*
X118003757Y-89112184D01*
X117990576Y-89106037D01*
X117836290Y-89054862D01*
X117822914Y-89051995D01*
X117728562Y-89042328D01*
X117722145Y-89042000D01*
X117472115Y-89042000D01*
X117456876Y-89046475D01*
X117455671Y-89047865D01*
X117454000Y-89055548D01*
X117454000Y-90178000D01*
X117433998Y-90246121D01*
X117380342Y-90292614D01*
X117328000Y-90304000D01*
X117072000Y-90304000D01*
X117003879Y-90283998D01*
X116957386Y-90230342D01*
X116946000Y-90178000D01*
X116946000Y-89060116D01*
X116941525Y-89044877D01*
X116940135Y-89043672D01*
X116932452Y-89042001D01*
X116677905Y-89042001D01*
X116671386Y-89042338D01*
X116575794Y-89052257D01*
X116562400Y-89055149D01*
X116408216Y-89106588D01*
X116395038Y-89112761D01*
X116257193Y-89198063D01*
X116245792Y-89207099D01*
X116202331Y-89250636D01*
X116140049Y-89284715D01*
X116068929Y-89279600D01*
X115985316Y-89248255D01*
X115923134Y-89241500D01*
X114676866Y-89241500D01*
X114673469Y-89241869D01*
X114622534Y-89247402D01*
X114622532Y-89247402D01*
X114614684Y-89248255D01*
X114607291Y-89251027D01*
X114607289Y-89251027D01*
X114520716Y-89283482D01*
X114476487Y-89291500D01*
X114417070Y-89291500D01*
X114398120Y-89290067D01*
X114383885Y-89287901D01*
X114383881Y-89287901D01*
X114376651Y-89286801D01*
X114369359Y-89287394D01*
X114369356Y-89287394D01*
X114323982Y-89291085D01*
X114313767Y-89291500D01*
X114305707Y-89291500D01*
X114292437Y-89293047D01*
X114277493Y-89294789D01*
X114273118Y-89295222D01*
X114207661Y-89300546D01*
X114207658Y-89300547D01*
X114200363Y-89301140D01*
X114193399Y-89303396D01*
X114187440Y-89304587D01*
X114181585Y-89305971D01*
X114174319Y-89306818D01*
X114105673Y-89331735D01*
X114101545Y-89333152D01*
X114039064Y-89353393D01*
X114039062Y-89353394D01*
X114032101Y-89355649D01*
X114025846Y-89359445D01*
X114020372Y-89361951D01*
X114014942Y-89364670D01*
X114008063Y-89367167D01*
X114001943Y-89371180D01*
X114001942Y-89371180D01*
X113947024Y-89407186D01*
X113943305Y-89409532D01*
X113911777Y-89428664D01*
X113843164Y-89446904D01*
X113775581Y-89425153D01*
X113745586Y-89396513D01*
X113743641Y-89393918D01*
X113738261Y-89386739D01*
X113621705Y-89299385D01*
X113485316Y-89248255D01*
X113423134Y-89241500D01*
X112176866Y-89241500D01*
X112114684Y-89248255D01*
X111980669Y-89298495D01*
X111979210Y-89299042D01*
X111978295Y-89299385D01*
X111978167Y-89299042D01*
X111914476Y-89312972D01*
X111857209Y-89294543D01*
X111818384Y-89270611D01*
X111770891Y-89217839D01*
X111758500Y-89163351D01*
X111758500Y-89067063D01*
X111759933Y-89048114D01*
X111760609Y-89043672D01*
X111763198Y-89026651D01*
X111762404Y-89016882D01*
X111758915Y-88973991D01*
X111758500Y-88963777D01*
X111758500Y-88955707D01*
X111758078Y-88952087D01*
X111758077Y-88952069D01*
X111755208Y-88927461D01*
X111754775Y-88923086D01*
X111754577Y-88920644D01*
X111748860Y-88850363D01*
X111746604Y-88843399D01*
X111745413Y-88837440D01*
X111744029Y-88831585D01*
X111743182Y-88824319D01*
X111718265Y-88755673D01*
X111716848Y-88751545D01*
X111696607Y-88689064D01*
X111696606Y-88689062D01*
X111694351Y-88682101D01*
X111690555Y-88675846D01*
X111688049Y-88670372D01*
X111685330Y-88664942D01*
X111682833Y-88658063D01*
X111642809Y-88597016D01*
X111640472Y-88593312D01*
X111605509Y-88535693D01*
X111605505Y-88535688D01*
X111602595Y-88530892D01*
X111595197Y-88522516D01*
X111595223Y-88522493D01*
X111592574Y-88519503D01*
X111589866Y-88516264D01*
X111585856Y-88510148D01*
X111580549Y-88505121D01*
X111580546Y-88505117D01*
X111529617Y-88456872D01*
X111527175Y-88454494D01*
X110820405Y-87747724D01*
X110786379Y-87685412D01*
X110783500Y-87658629D01*
X110783500Y-87384500D01*
X110803502Y-87316379D01*
X110857158Y-87269886D01*
X110909500Y-87258500D01*
X111370500Y-87258500D01*
X111438621Y-87278502D01*
X111485114Y-87332158D01*
X111496500Y-87384500D01*
X111496500Y-87818134D01*
X111503255Y-87880316D01*
X111554385Y-88016705D01*
X111641739Y-88133261D01*
X111758295Y-88220615D01*
X111894684Y-88271745D01*
X111956866Y-88278500D01*
X113323134Y-88278500D01*
X113385316Y-88271745D01*
X113521705Y-88220615D01*
X113638261Y-88133261D01*
X113725615Y-88016705D01*
X113776745Y-87880316D01*
X113783500Y-87818134D01*
X113783500Y-87814669D01*
X114497001Y-87814669D01*
X114497371Y-87821490D01*
X114502895Y-87872352D01*
X114506521Y-87887604D01*
X114551676Y-88008054D01*
X114560214Y-88023649D01*
X114636715Y-88125724D01*
X114649276Y-88138285D01*
X114751351Y-88214786D01*
X114766946Y-88223324D01*
X114887394Y-88268478D01*
X114902649Y-88272105D01*
X114953514Y-88277631D01*
X114960328Y-88278000D01*
X115367885Y-88278000D01*
X115383124Y-88273525D01*
X115384329Y-88272135D01*
X115386000Y-88264452D01*
X115386000Y-88259884D01*
X115894000Y-88259884D01*
X115898475Y-88275123D01*
X115899865Y-88276328D01*
X115907548Y-88277999D01*
X116319669Y-88277999D01*
X116326490Y-88277629D01*
X116377352Y-88272105D01*
X116392604Y-88268479D01*
X116513054Y-88223324D01*
X116528649Y-88214786D01*
X116630724Y-88138285D01*
X116643285Y-88125724D01*
X116719786Y-88023649D01*
X116728324Y-88008054D01*
X116773478Y-87887606D01*
X116777105Y-87872351D01*
X116782631Y-87821486D01*
X116783000Y-87814672D01*
X116783000Y-87814669D01*
X117497001Y-87814669D01*
X117497371Y-87821490D01*
X117502895Y-87872352D01*
X117506521Y-87887604D01*
X117551676Y-88008054D01*
X117560214Y-88023649D01*
X117636715Y-88125724D01*
X117649276Y-88138285D01*
X117751351Y-88214786D01*
X117766946Y-88223324D01*
X117887394Y-88268478D01*
X117902649Y-88272105D01*
X117953514Y-88277631D01*
X117960328Y-88278000D01*
X118367885Y-88278000D01*
X118383124Y-88273525D01*
X118384329Y-88272135D01*
X118386000Y-88264452D01*
X118386000Y-88259884D01*
X118894000Y-88259884D01*
X118898475Y-88275123D01*
X118899865Y-88276328D01*
X118907548Y-88277999D01*
X119319669Y-88277999D01*
X119326490Y-88277629D01*
X119377352Y-88272105D01*
X119392604Y-88268479D01*
X119513054Y-88223324D01*
X119528649Y-88214786D01*
X119630724Y-88138285D01*
X119643285Y-88125724D01*
X119719786Y-88023649D01*
X119728324Y-88008054D01*
X119773478Y-87887606D01*
X119777105Y-87872351D01*
X119782631Y-87821486D01*
X119783000Y-87814672D01*
X119783000Y-86772115D01*
X119778525Y-86756876D01*
X119777135Y-86755671D01*
X119769452Y-86754000D01*
X118912115Y-86754000D01*
X118896876Y-86758475D01*
X118895671Y-86759865D01*
X118894000Y-86767548D01*
X118894000Y-88259884D01*
X118386000Y-88259884D01*
X118386000Y-86772115D01*
X118381525Y-86756876D01*
X118380135Y-86755671D01*
X118372452Y-86754000D01*
X117515116Y-86754000D01*
X117499877Y-86758475D01*
X117498672Y-86759865D01*
X117497001Y-86767548D01*
X117497001Y-87814669D01*
X116783000Y-87814669D01*
X116783000Y-86772115D01*
X116778525Y-86756876D01*
X116777135Y-86755671D01*
X116769452Y-86754000D01*
X115912115Y-86754000D01*
X115896876Y-86758475D01*
X115895671Y-86759865D01*
X115894000Y-86767548D01*
X115894000Y-88259884D01*
X115386000Y-88259884D01*
X115386000Y-86772115D01*
X115381525Y-86756876D01*
X115380135Y-86755671D01*
X115372452Y-86754000D01*
X114515116Y-86754000D01*
X114499877Y-86758475D01*
X114498672Y-86759865D01*
X114497001Y-86767548D01*
X114497001Y-87814669D01*
X113783500Y-87814669D01*
X113783500Y-85181866D01*
X113776745Y-85119684D01*
X113725615Y-84983295D01*
X113708205Y-84960065D01*
X113683357Y-84893559D01*
X113698410Y-84824176D01*
X113748584Y-84773946D01*
X113809031Y-84758500D01*
X114332930Y-84758500D01*
X114351880Y-84759933D01*
X114366115Y-84762099D01*
X114366119Y-84762099D01*
X114373349Y-84763199D01*
X114380641Y-84762606D01*
X114380644Y-84762606D01*
X114426018Y-84758915D01*
X114436233Y-84758500D01*
X114444293Y-84758500D01*
X114447928Y-84758076D01*
X114447932Y-84758076D01*
X114452637Y-84757527D01*
X114458916Y-84756795D01*
X114528893Y-84768773D01*
X114581288Y-84816683D01*
X114599462Y-84885314D01*
X114574334Y-84957511D01*
X114560214Y-84976352D01*
X114551676Y-84991946D01*
X114506522Y-85112394D01*
X114502895Y-85127649D01*
X114497369Y-85178514D01*
X114497000Y-85185328D01*
X114497000Y-86227885D01*
X114501475Y-86243124D01*
X114502865Y-86244329D01*
X114510548Y-86246000D01*
X115367885Y-86246000D01*
X115383124Y-86241525D01*
X115384329Y-86240135D01*
X115386000Y-86232452D01*
X115386000Y-86227885D01*
X115894000Y-86227885D01*
X115898475Y-86243124D01*
X115899865Y-86244329D01*
X115907548Y-86246000D01*
X116764884Y-86246000D01*
X116780123Y-86241525D01*
X116781328Y-86240135D01*
X116782999Y-86232452D01*
X116782999Y-86227885D01*
X117497000Y-86227885D01*
X117501475Y-86243124D01*
X117502865Y-86244329D01*
X117510548Y-86246000D01*
X118367885Y-86246000D01*
X118383124Y-86241525D01*
X118384329Y-86240135D01*
X118386000Y-86232452D01*
X118386000Y-86227885D01*
X118894000Y-86227885D01*
X118898475Y-86243124D01*
X118899865Y-86244329D01*
X118907548Y-86246000D01*
X119764884Y-86246000D01*
X119780123Y-86241525D01*
X119781328Y-86240135D01*
X119782999Y-86232452D01*
X119782999Y-85185331D01*
X119782629Y-85178510D01*
X119777105Y-85127648D01*
X119773479Y-85112396D01*
X119728324Y-84991946D01*
X119719786Y-84976351D01*
X119643285Y-84874276D01*
X119630724Y-84861715D01*
X119528649Y-84785214D01*
X119513054Y-84776676D01*
X119392606Y-84731522D01*
X119377351Y-84727895D01*
X119326486Y-84722369D01*
X119319672Y-84722000D01*
X118912115Y-84722000D01*
X118896876Y-84726475D01*
X118895671Y-84727865D01*
X118894000Y-84735548D01*
X118894000Y-86227885D01*
X118386000Y-86227885D01*
X118386000Y-84740116D01*
X118381525Y-84724877D01*
X118380135Y-84723672D01*
X118372452Y-84722001D01*
X117960331Y-84722001D01*
X117953510Y-84722371D01*
X117902648Y-84727895D01*
X117887396Y-84731521D01*
X117766946Y-84776676D01*
X117751351Y-84785214D01*
X117649276Y-84861715D01*
X117636715Y-84874276D01*
X117560214Y-84976351D01*
X117551676Y-84991946D01*
X117506522Y-85112394D01*
X117502895Y-85127649D01*
X117497369Y-85178514D01*
X117497000Y-85185328D01*
X117497000Y-86227885D01*
X116782999Y-86227885D01*
X116782999Y-85185331D01*
X116782629Y-85178510D01*
X116777105Y-85127648D01*
X116773479Y-85112396D01*
X116728324Y-84991946D01*
X116719786Y-84976351D01*
X116643285Y-84874276D01*
X116630724Y-84861715D01*
X116528649Y-84785214D01*
X116513054Y-84776676D01*
X116392606Y-84731522D01*
X116377351Y-84727895D01*
X116326486Y-84722369D01*
X116319672Y-84722000D01*
X115912115Y-84722000D01*
X115896876Y-84726475D01*
X115895671Y-84727865D01*
X115894000Y-84735548D01*
X115894000Y-86227885D01*
X115386000Y-86227885D01*
X115386000Y-84740116D01*
X115381525Y-84724877D01*
X115380135Y-84723672D01*
X115372452Y-84722001D01*
X115054870Y-84722001D01*
X114986749Y-84701999D01*
X114940256Y-84648343D01*
X114930152Y-84578069D01*
X114959646Y-84513489D01*
X114965775Y-84506906D01*
X117762623Y-81710058D01*
X119073812Y-81710058D01*
X119073925Y-81714836D01*
X119077939Y-81885164D01*
X119079954Y-81970685D01*
X119080788Y-81975390D01*
X119112284Y-82153104D01*
X119125448Y-82227384D01*
X119209247Y-82474248D01*
X119329423Y-82705596D01*
X119483210Y-82916104D01*
X119667069Y-83100929D01*
X119670908Y-83103764D01*
X119670912Y-83103768D01*
X119872926Y-83252977D01*
X119872930Y-83252980D01*
X119876769Y-83255815D01*
X119881001Y-83258041D01*
X119881000Y-83258041D01*
X120101807Y-83374214D01*
X120107484Y-83377201D01*
X120112005Y-83378762D01*
X120341908Y-83458148D01*
X120353906Y-83462291D01*
X120358612Y-83463150D01*
X120358614Y-83463151D01*
X120389403Y-83468774D01*
X120610363Y-83509129D01*
X120693770Y-83513500D01*
X120856295Y-83513500D01*
X120858674Y-83513319D01*
X120858675Y-83513319D01*
X121045181Y-83499132D01*
X121045186Y-83499131D01*
X121049948Y-83498769D01*
X121054601Y-83497690D01*
X121054604Y-83497690D01*
X121299250Y-83440984D01*
X121299249Y-83440984D01*
X121303914Y-83439903D01*
X121546054Y-83343299D01*
X121770796Y-83211180D01*
X121972967Y-83046587D01*
X122147915Y-82853307D01*
X122291615Y-82635788D01*
X122368174Y-82469720D01*
X122398753Y-82403388D01*
X122398754Y-82403385D01*
X122400759Y-82399036D01*
X122472837Y-82148499D01*
X122506188Y-81889942D01*
X122502932Y-81751780D01*
X122500159Y-81634095D01*
X122500159Y-81634090D01*
X122500046Y-81629315D01*
X122468533Y-81451501D01*
X122455386Y-81377320D01*
X122455385Y-81377316D01*
X122454552Y-81372616D01*
X122370753Y-81125752D01*
X122250577Y-80894404D01*
X122096790Y-80683896D01*
X121912931Y-80499071D01*
X121909092Y-80496236D01*
X121909088Y-80496232D01*
X121707074Y-80347023D01*
X121707070Y-80347020D01*
X121703231Y-80344185D01*
X121547317Y-80262154D01*
X121476751Y-80225027D01*
X121476749Y-80225026D01*
X121472516Y-80222799D01*
X121324793Y-80171790D01*
X121230618Y-80139271D01*
X121230616Y-80139271D01*
X121226094Y-80137709D01*
X121221388Y-80136850D01*
X121221386Y-80136849D01*
X121161634Y-80125936D01*
X120969637Y-80090871D01*
X120886230Y-80086500D01*
X120723705Y-80086500D01*
X120721326Y-80086681D01*
X120721325Y-80086681D01*
X120534819Y-80100868D01*
X120534814Y-80100869D01*
X120530052Y-80101231D01*
X120525399Y-80102310D01*
X120525396Y-80102310D01*
X120376385Y-80136849D01*
X120276086Y-80160097D01*
X120033946Y-80256701D01*
X119809204Y-80388820D01*
X119607033Y-80553413D01*
X119432085Y-80746693D01*
X119288385Y-80964212D01*
X119286384Y-80968552D01*
X119286382Y-80968556D01*
X119181247Y-81196612D01*
X119179241Y-81200964D01*
X119107163Y-81451501D01*
X119073812Y-81710058D01*
X117762623Y-81710058D01*
X119128911Y-80343770D01*
X119143323Y-80331384D01*
X119154918Y-80322851D01*
X119154923Y-80322846D01*
X119160818Y-80318508D01*
X119165557Y-80312930D01*
X119165560Y-80312927D01*
X119195035Y-80278232D01*
X119201965Y-80270716D01*
X119207661Y-80265020D01*
X119209924Y-80262159D01*
X119209929Y-80262154D01*
X119225293Y-80242734D01*
X119228082Y-80239333D01*
X119270592Y-80189296D01*
X119270594Y-80189294D01*
X119275333Y-80183715D01*
X119278662Y-80177195D01*
X119282028Y-80172148D01*
X119285193Y-80167024D01*
X119289735Y-80161283D01*
X119320637Y-80095164D01*
X119322565Y-80091218D01*
X119352442Y-80032708D01*
X119352443Y-80032706D01*
X119355769Y-80026192D01*
X119357508Y-80019086D01*
X119359609Y-80013436D01*
X119361524Y-80007679D01*
X119364622Y-80001050D01*
X119379491Y-79929565D01*
X119380461Y-79925282D01*
X119396473Y-79859844D01*
X119397808Y-79854390D01*
X119398500Y-79843236D01*
X119398535Y-79843238D01*
X119398775Y-79839266D01*
X119399152Y-79835045D01*
X119400641Y-79827885D01*
X119398546Y-79750458D01*
X119398500Y-79747050D01*
X119398500Y-78954130D01*
X119418502Y-78886009D01*
X119472158Y-78839516D01*
X119480271Y-78836148D01*
X119513295Y-78823768D01*
X119513296Y-78823767D01*
X119521705Y-78820615D01*
X119638261Y-78733261D01*
X119725615Y-78616705D01*
X119776745Y-78480316D01*
X119783500Y-78418134D01*
X119783500Y-75781866D01*
X119776745Y-75719684D01*
X119725615Y-75583295D01*
X119638261Y-75466739D01*
X119521705Y-75379385D01*
X119385316Y-75328255D01*
X119323134Y-75321500D01*
X117956866Y-75321500D01*
X117894684Y-75328255D01*
X117758295Y-75379385D01*
X117641739Y-75466739D01*
X117554385Y-75583295D01*
X117503255Y-75719684D01*
X117496500Y-75781866D01*
X117496500Y-78418134D01*
X117503255Y-78480316D01*
X117554385Y-78616705D01*
X117641739Y-78733261D01*
X117758295Y-78820615D01*
X117766704Y-78823767D01*
X117766705Y-78823768D01*
X117799729Y-78836148D01*
X117856494Y-78878789D01*
X117881194Y-78945350D01*
X117881500Y-78954130D01*
X117881500Y-79393629D01*
X117861498Y-79461750D01*
X117844595Y-79482724D01*
X114122724Y-83204595D01*
X114060412Y-83238621D01*
X114033629Y-83241500D01*
X108942587Y-83241500D01*
X108868528Y-83217437D01*
X108862098Y-83212765D01*
X108862091Y-83212761D01*
X108856752Y-83208882D01*
X108850724Y-83206198D01*
X108850722Y-83206197D01*
X108688319Y-83133891D01*
X108688318Y-83133891D01*
X108682288Y-83131206D01*
X108588888Y-83111353D01*
X108501944Y-83092872D01*
X108501939Y-83092872D01*
X108495487Y-83091500D01*
X108304513Y-83091500D01*
X108298061Y-83092872D01*
X108298056Y-83092872D01*
X108211112Y-83111353D01*
X108117712Y-83131206D01*
X108111685Y-83133889D01*
X108111677Y-83133892D01*
X107952435Y-83204791D01*
X107882068Y-83214225D01*
X107817771Y-83184118D01*
X107779958Y-83124029D01*
X107780634Y-83053036D01*
X107812092Y-83000589D01*
X111897276Y-78915405D01*
X111959588Y-78881379D01*
X111986371Y-78878500D01*
X113323134Y-78878500D01*
X113385316Y-78871745D01*
X113521705Y-78820615D01*
X113638261Y-78733261D01*
X113725615Y-78616705D01*
X113776745Y-78480316D01*
X113783500Y-78418134D01*
X113783500Y-77984500D01*
X113803502Y-77916379D01*
X113857158Y-77869886D01*
X113909500Y-77858500D01*
X114370500Y-77858500D01*
X114438621Y-77878502D01*
X114485114Y-77932158D01*
X114496500Y-77984500D01*
X114496500Y-78418134D01*
X114503255Y-78480316D01*
X114554385Y-78616705D01*
X114641739Y-78733261D01*
X114758295Y-78820615D01*
X114894684Y-78871745D01*
X114956866Y-78878500D01*
X116323134Y-78878500D01*
X116385316Y-78871745D01*
X116521705Y-78820615D01*
X116638261Y-78733261D01*
X116725615Y-78616705D01*
X116776745Y-78480316D01*
X116783500Y-78418134D01*
X116783500Y-75781866D01*
X116776745Y-75719684D01*
X116725615Y-75583295D01*
X116638261Y-75466739D01*
X116521705Y-75379385D01*
X116385316Y-75328255D01*
X116323134Y-75321500D01*
X114956866Y-75321500D01*
X114894684Y-75328255D01*
X114758295Y-75379385D01*
X114735065Y-75396795D01*
X114668559Y-75421643D01*
X114599176Y-75406590D01*
X114548946Y-75356416D01*
X114533500Y-75295969D01*
X114533500Y-73884500D01*
X114553502Y-73816379D01*
X114607158Y-73769886D01*
X114659500Y-73758500D01*
X115873134Y-73758500D01*
X115935316Y-73751745D01*
X116071705Y-73700615D01*
X116188261Y-73613261D01*
X116275615Y-73496705D01*
X116326745Y-73360316D01*
X116333500Y-73298134D01*
X116333500Y-72601866D01*
X116326745Y-72539684D01*
X116319077Y-72519230D01*
X116313894Y-72448423D01*
X116319077Y-72430770D01*
X116326745Y-72410316D01*
X116333500Y-72348134D01*
X116333500Y-71651866D01*
X116326745Y-71589684D01*
X116319077Y-71569230D01*
X116313894Y-71498423D01*
X116319077Y-71480770D01*
X116320026Y-71478238D01*
X116326745Y-71460316D01*
X116333500Y-71398134D01*
X116333500Y-71091371D01*
X116353502Y-71023250D01*
X116370405Y-71002276D01*
X116550931Y-70821750D01*
X116565343Y-70809364D01*
X116576938Y-70800831D01*
X116576943Y-70800826D01*
X116582838Y-70796488D01*
X116587577Y-70790910D01*
X116587580Y-70790907D01*
X116617055Y-70756212D01*
X116623985Y-70748696D01*
X116629681Y-70743000D01*
X116631944Y-70740139D01*
X116631949Y-70740134D01*
X116647313Y-70720714D01*
X116650102Y-70717313D01*
X116666900Y-70697540D01*
X116697353Y-70661695D01*
X116700679Y-70655182D01*
X116704040Y-70650143D01*
X116707216Y-70645001D01*
X116711754Y-70639264D01*
X116742675Y-70573105D01*
X116744581Y-70569205D01*
X116752705Y-70553295D01*
X116777789Y-70504172D01*
X116779528Y-70497063D01*
X116781624Y-70491429D01*
X116783543Y-70485659D01*
X116786642Y-70479030D01*
X116793946Y-70443919D01*
X116801510Y-70407551D01*
X116802481Y-70403262D01*
X116812386Y-70362784D01*
X116819828Y-70332370D01*
X116820243Y-70325690D01*
X116820520Y-70321216D01*
X116820555Y-70321218D01*
X116820795Y-70317246D01*
X116821172Y-70313025D01*
X116822661Y-70305865D01*
X116820566Y-70228438D01*
X116820520Y-70225030D01*
X116820520Y-67729090D01*
X116821953Y-67710140D01*
X116824119Y-67695905D01*
X116824119Y-67695901D01*
X116825219Y-67688671D01*
X116820935Y-67636002D01*
X116820520Y-67625787D01*
X116820520Y-67617727D01*
X116817229Y-67589500D01*
X116816798Y-67585141D01*
X116811474Y-67519682D01*
X116811473Y-67519679D01*
X116810880Y-67512384D01*
X116808624Y-67505420D01*
X116807437Y-67499481D01*
X116806050Y-67493610D01*
X116805202Y-67486339D01*
X116802706Y-67479463D01*
X116802704Y-67479454D01*
X116780295Y-67417722D01*
X116778885Y-67413618D01*
X116756372Y-67344121D01*
X116752576Y-67337866D01*
X116750077Y-67332407D01*
X116747349Y-67326959D01*
X116744853Y-67320083D01*
X116704825Y-67259030D01*
X116702501Y-67255347D01*
X116667520Y-67197700D01*
X116667519Y-67197699D01*
X116664615Y-67192913D01*
X116657218Y-67184537D01*
X116657245Y-67184513D01*
X116654590Y-67181519D01*
X116651888Y-67178288D01*
X116647876Y-67172168D01*
X116591637Y-67118892D01*
X116589195Y-67116514D01*
X116283770Y-66811089D01*
X116271384Y-66796677D01*
X116262851Y-66785082D01*
X116262846Y-66785077D01*
X116258508Y-66779182D01*
X116252930Y-66774443D01*
X116252927Y-66774440D01*
X116218232Y-66744965D01*
X116210716Y-66738035D01*
X116205021Y-66732340D01*
X116185949Y-66717251D01*
X116182749Y-66714719D01*
X116179345Y-66711928D01*
X116129297Y-66669409D01*
X116129295Y-66669408D01*
X116123715Y-66664667D01*
X116117199Y-66661339D01*
X116112150Y-66657972D01*
X116107021Y-66654805D01*
X116101284Y-66650266D01*
X116035125Y-66619345D01*
X116031225Y-66617439D01*
X116031221Y-66617437D01*
X115966192Y-66584231D01*
X115959084Y-66582492D01*
X115953441Y-66580393D01*
X115947678Y-66578476D01*
X115941050Y-66575378D01*
X115869583Y-66560513D01*
X115865299Y-66559543D01*
X115794390Y-66542192D01*
X115788788Y-66541844D01*
X115788785Y-66541844D01*
X115783236Y-66541500D01*
X115783238Y-66541464D01*
X115779245Y-66541225D01*
X115775053Y-66540851D01*
X115767885Y-66539360D01*
X115712622Y-66540855D01*
X115690479Y-66541454D01*
X115687072Y-66541500D01*
X113871254Y-66541500D01*
X113836102Y-66536497D01*
X113697511Y-66496233D01*
X113697507Y-66496232D01*
X113691331Y-66494438D01*
X113684926Y-66493934D01*
X113684921Y-66493933D01*
X113656458Y-66491693D01*
X113656450Y-66491693D01*
X113654002Y-66491500D01*
X112345998Y-66491500D01*
X112343550Y-66491693D01*
X112343542Y-66491693D01*
X112315079Y-66493933D01*
X112315074Y-66493934D01*
X112308669Y-66494438D01*
X112216780Y-66521134D01*
X112156512Y-66538643D01*
X112156510Y-66538644D01*
X112148899Y-66540855D01*
X112142072Y-66544892D01*
X112142073Y-66544892D01*
X112012520Y-66621509D01*
X112012517Y-66621511D01*
X112005693Y-66625547D01*
X111997353Y-66633887D01*
X111994685Y-66635344D01*
X111993825Y-66636011D01*
X111993717Y-66635872D01*
X111935041Y-66667913D01*
X111864226Y-66662848D01*
X111819240Y-66633965D01*
X111728483Y-66543366D01*
X111723303Y-66538195D01*
X111689326Y-66517251D01*
X111578968Y-66449225D01*
X111578966Y-66449224D01*
X111572738Y-66445385D01*
X111412254Y-66392155D01*
X111411389Y-66391868D01*
X111411387Y-66391868D01*
X111404861Y-66389703D01*
X111398025Y-66389003D01*
X111398022Y-66389002D01*
X111354969Y-66384591D01*
X111300400Y-66379000D01*
X110299600Y-66379000D01*
X110296354Y-66379337D01*
X110296350Y-66379337D01*
X110200692Y-66389262D01*
X110200688Y-66389263D01*
X110193834Y-66389974D01*
X110187298Y-66392155D01*
X110187296Y-66392155D01*
X110137160Y-66408882D01*
X110026054Y-66445950D01*
X110019822Y-66449806D01*
X110019823Y-66449806D01*
X109902118Y-66522644D01*
X109835815Y-66541500D01*
X109471254Y-66541500D01*
X109436102Y-66536497D01*
X109297511Y-66496233D01*
X109297507Y-66496232D01*
X109291331Y-66494438D01*
X109284926Y-66493934D01*
X109284921Y-66493933D01*
X109256458Y-66491693D01*
X109256450Y-66491693D01*
X109254002Y-66491500D01*
X108011405Y-66491500D01*
X107943284Y-66471498D01*
X107937344Y-66467436D01*
X107862094Y-66412763D01*
X107862093Y-66412762D01*
X107856752Y-66408882D01*
X107850724Y-66406198D01*
X107850722Y-66406197D01*
X107688319Y-66333891D01*
X107688318Y-66333891D01*
X107682288Y-66331206D01*
X107588888Y-66311353D01*
X107501944Y-66292872D01*
X107501939Y-66292872D01*
X107495487Y-66291500D01*
X107304513Y-66291500D01*
X107298061Y-66292872D01*
X107298056Y-66292872D01*
X107211112Y-66311353D01*
X107117712Y-66331206D01*
X107111682Y-66333891D01*
X107111681Y-66333891D01*
X106949278Y-66406197D01*
X106949276Y-66406198D01*
X106943248Y-66408882D01*
X106788747Y-66521134D01*
X106784326Y-66526044D01*
X106784325Y-66526045D01*
X106665538Y-66657972D01*
X106660960Y-66663056D01*
X106627429Y-66721134D01*
X106579387Y-66804345D01*
X106565473Y-66828444D01*
X106506458Y-67010072D01*
X106505768Y-67016633D01*
X106505768Y-67016635D01*
X106504527Y-67028444D01*
X106486496Y-67200000D01*
X106487186Y-67206565D01*
X106497251Y-67302330D01*
X106484479Y-67372168D01*
X106435977Y-67424015D01*
X106371941Y-67441500D01*
X106070998Y-67441500D01*
X106068550Y-67441693D01*
X106068542Y-67441693D01*
X106040079Y-67443933D01*
X106040074Y-67443934D01*
X106033669Y-67444438D01*
X106027493Y-67446232D01*
X106027489Y-67446233D01*
X105969652Y-67463036D01*
X105898656Y-67462833D01*
X105839040Y-67424279D01*
X105809732Y-67359614D01*
X105808500Y-67342039D01*
X105808500Y-67174600D01*
X105802720Y-67118892D01*
X105798238Y-67075692D01*
X105798237Y-67075688D01*
X105797526Y-67068834D01*
X105782142Y-67022721D01*
X105743868Y-66908002D01*
X105741550Y-66901054D01*
X105648478Y-66750652D01*
X105523303Y-66625695D01*
X105511517Y-66618430D01*
X105378968Y-66536725D01*
X105378966Y-66536724D01*
X105372738Y-66532885D01*
X105262235Y-66496233D01*
X105211389Y-66479368D01*
X105211387Y-66479368D01*
X105204861Y-66477203D01*
X105198025Y-66476503D01*
X105198022Y-66476502D01*
X105149180Y-66471498D01*
X105100400Y-66466500D01*
X104099600Y-66466500D01*
X104096354Y-66466837D01*
X104096350Y-66466837D01*
X104000692Y-66476762D01*
X104000688Y-66476763D01*
X103993834Y-66477474D01*
X103987298Y-66479655D01*
X103987296Y-66479655D01*
X103874608Y-66517251D01*
X103826054Y-66533450D01*
X103675652Y-66626522D01*
X103670479Y-66631704D01*
X103670474Y-66631708D01*
X103647705Y-66654517D01*
X103585423Y-66688597D01*
X103558532Y-66691500D01*
X103208754Y-66691500D01*
X103173602Y-66686497D01*
X103035011Y-66646233D01*
X103035007Y-66646232D01*
X103028831Y-66644438D01*
X103022426Y-66643934D01*
X103022421Y-66643933D01*
X102993958Y-66641693D01*
X102993950Y-66641693D01*
X102991502Y-66641500D01*
X101742587Y-66641500D01*
X101668528Y-66617437D01*
X101662098Y-66612765D01*
X101662091Y-66612761D01*
X101656752Y-66608882D01*
X101650724Y-66606198D01*
X101650722Y-66606197D01*
X101488319Y-66533891D01*
X101488318Y-66533891D01*
X101482288Y-66531206D01*
X101388887Y-66511353D01*
X101301944Y-66492872D01*
X101301939Y-66492872D01*
X101295487Y-66491500D01*
X101104513Y-66491500D01*
X101098061Y-66492872D01*
X101098056Y-66492872D01*
X101011113Y-66511353D01*
X100917712Y-66531206D01*
X100911682Y-66533891D01*
X100911681Y-66533891D01*
X100749278Y-66606197D01*
X100749276Y-66606198D01*
X100743248Y-66608882D01*
X100737907Y-66612762D01*
X100737906Y-66612763D01*
X100705908Y-66636011D01*
X100588747Y-66721134D01*
X100584326Y-66726044D01*
X100584325Y-66726045D01*
X100510054Y-66808532D01*
X100460960Y-66863056D01*
X100402686Y-66963990D01*
X100388713Y-66988192D01*
X100365473Y-67028444D01*
X100306458Y-67210072D01*
X100305768Y-67216633D01*
X100305768Y-67216635D01*
X100290741Y-67359614D01*
X100286496Y-67400000D01*
X100287186Y-67406565D01*
X100291996Y-67452330D01*
X100279224Y-67522168D01*
X100230722Y-67574015D01*
X100166686Y-67591500D01*
X99808498Y-67591500D01*
X99806050Y-67591693D01*
X99806042Y-67591693D01*
X99777579Y-67593933D01*
X99777574Y-67593934D01*
X99771169Y-67594438D01*
X99764994Y-67596232D01*
X99758655Y-67597390D01*
X99758191Y-67594851D01*
X99698624Y-67594666D01*
X99639018Y-67556096D01*
X99609727Y-67491423D01*
X99608500Y-67473881D01*
X99608500Y-67087100D01*
X99608163Y-67083850D01*
X99598238Y-66988192D01*
X99598237Y-66988188D01*
X99597526Y-66981334D01*
X99573061Y-66908002D01*
X99543868Y-66820502D01*
X99541550Y-66813554D01*
X99448478Y-66663152D01*
X99431530Y-66646233D01*
X99328483Y-66543366D01*
X99323303Y-66538195D01*
X99289326Y-66517251D01*
X99178968Y-66449225D01*
X99178966Y-66449224D01*
X99172738Y-66445385D01*
X99012254Y-66392155D01*
X99011389Y-66391868D01*
X99011387Y-66391868D01*
X99004861Y-66389703D01*
X98998025Y-66389003D01*
X98998022Y-66389002D01*
X98954969Y-66384591D01*
X98900400Y-66379000D01*
X97899600Y-66379000D01*
X97896354Y-66379337D01*
X97896350Y-66379337D01*
X97800692Y-66389262D01*
X97800688Y-66389263D01*
X97793834Y-66389974D01*
X97787298Y-66392155D01*
X97787296Y-66392155D01*
X97737160Y-66408882D01*
X97626054Y-66445950D01*
X97475652Y-66539022D01*
X97350695Y-66664197D01*
X97346855Y-66670427D01*
X97346854Y-66670428D01*
X97300909Y-66744965D01*
X97257885Y-66814762D01*
X97202203Y-66982639D01*
X97191500Y-67087100D01*
X97191500Y-67483629D01*
X97171498Y-67551750D01*
X97154595Y-67572724D01*
X96037050Y-68690269D01*
X96022638Y-68702655D01*
X96011043Y-68711188D01*
X96011038Y-68711193D01*
X96005143Y-68715531D01*
X96000404Y-68721109D01*
X96000401Y-68721112D01*
X95970926Y-68755807D01*
X95963996Y-68763323D01*
X95958301Y-68769018D01*
X95956021Y-68771900D01*
X95940680Y-68791290D01*
X95937889Y-68794694D01*
X95895370Y-68844742D01*
X95890628Y-68850324D01*
X95887300Y-68856840D01*
X95883933Y-68861889D01*
X95880766Y-68867018D01*
X95876227Y-68872755D01*
X95845306Y-68938914D01*
X95843403Y-68942808D01*
X95810192Y-69007847D01*
X95808453Y-69014955D01*
X95806354Y-69020598D01*
X95804437Y-69026361D01*
X95801339Y-69032989D01*
X95799849Y-69040151D01*
X95799849Y-69040152D01*
X95786475Y-69104451D01*
X95785505Y-69108735D01*
X95768153Y-69179649D01*
X95767461Y-69190803D01*
X95767425Y-69190801D01*
X95767186Y-69194794D01*
X95766812Y-69198986D01*
X95765321Y-69206154D01*
X95767112Y-69272364D01*
X95767415Y-69283560D01*
X95767461Y-69286967D01*
X95767461Y-75311678D01*
X95747459Y-75379799D01*
X95693803Y-75426292D01*
X95623529Y-75436396D01*
X95565898Y-75412506D01*
X95521705Y-75379385D01*
X95385316Y-75328255D01*
X95323134Y-75321500D01*
X93956866Y-75321500D01*
X93894684Y-75328255D01*
X93758295Y-75379385D01*
X93641739Y-75466739D01*
X93554385Y-75583295D01*
X93503255Y-75719684D01*
X93496500Y-75781866D01*
X93496500Y-78418134D01*
X93503255Y-78480316D01*
X93554385Y-78616705D01*
X93641739Y-78733261D01*
X93758295Y-78820615D01*
X93894684Y-78871745D01*
X93956866Y-78878500D01*
X95323134Y-78878500D01*
X95385316Y-78871745D01*
X95521705Y-78820615D01*
X95638261Y-78733261D01*
X95725615Y-78616705D01*
X95776745Y-78480316D01*
X95783500Y-78418134D01*
X95783500Y-77984500D01*
X95803502Y-77916379D01*
X95857158Y-77869886D01*
X95909500Y-77858500D01*
X96370500Y-77858500D01*
X96438621Y-77878502D01*
X96485114Y-77932158D01*
X96496500Y-77984500D01*
X96496500Y-78418134D01*
X96503255Y-78480316D01*
X96554385Y-78616705D01*
X96641739Y-78733261D01*
X96758295Y-78820615D01*
X96894684Y-78871745D01*
X96956866Y-78878500D01*
X98323134Y-78878500D01*
X98385316Y-78871745D01*
X98521705Y-78820615D01*
X98638261Y-78733261D01*
X98725615Y-78616705D01*
X98776745Y-78480316D01*
X98783500Y-78418134D01*
X98783500Y-75781866D01*
X98776745Y-75719684D01*
X98725615Y-75583295D01*
X98638261Y-75466739D01*
X98521705Y-75379385D01*
X98385316Y-75328255D01*
X98323134Y-75321500D01*
X97410461Y-75321500D01*
X97342340Y-75301498D01*
X97295847Y-75247842D01*
X97284461Y-75195500D01*
X97284461Y-73871901D01*
X97304463Y-73803780D01*
X97358119Y-73757287D01*
X97428393Y-73747183D01*
X97476576Y-73764641D01*
X97532273Y-73798973D01*
X97595090Y-73837694D01*
X97602262Y-73842115D01*
X97635520Y-73853146D01*
X97763611Y-73895632D01*
X97763613Y-73895632D01*
X97770139Y-73897797D01*
X97776975Y-73898497D01*
X97776978Y-73898498D01*
X97820031Y-73902909D01*
X97874600Y-73908500D01*
X98925400Y-73908500D01*
X98928646Y-73908163D01*
X98928650Y-73908163D01*
X99024308Y-73898238D01*
X99024312Y-73898237D01*
X99031166Y-73897526D01*
X99037702Y-73895345D01*
X99037704Y-73895345D01*
X99169806Y-73851272D01*
X99198946Y-73841550D01*
X99302682Y-73777356D01*
X99368985Y-73758500D01*
X99376487Y-73758500D01*
X99420716Y-73766518D01*
X99507289Y-73798973D01*
X99507291Y-73798973D01*
X99514684Y-73801745D01*
X99522532Y-73802598D01*
X99522534Y-73802598D01*
X99573469Y-73808131D01*
X99576866Y-73808500D01*
X100340011Y-73808500D01*
X100408132Y-73828502D01*
X100454625Y-73882158D01*
X100466011Y-73934500D01*
X100466011Y-75195500D01*
X100446009Y-75263621D01*
X100392353Y-75310114D01*
X100340011Y-75321500D01*
X99956866Y-75321500D01*
X99894684Y-75328255D01*
X99758295Y-75379385D01*
X99641739Y-75466739D01*
X99554385Y-75583295D01*
X99503255Y-75719684D01*
X99496500Y-75781866D01*
X99496500Y-78418134D01*
X99503255Y-78480316D01*
X99554385Y-78616705D01*
X99641739Y-78733261D01*
X99758295Y-78820615D01*
X99894684Y-78871745D01*
X99956866Y-78878500D01*
X101323134Y-78878500D01*
X101385316Y-78871745D01*
X101521705Y-78820615D01*
X101638261Y-78733261D01*
X101725615Y-78616705D01*
X101776745Y-78480316D01*
X101783500Y-78418134D01*
X101783500Y-77984500D01*
X101803502Y-77916379D01*
X101857158Y-77869886D01*
X101909500Y-77858500D01*
X102370500Y-77858500D01*
X102438621Y-77878502D01*
X102485114Y-77932158D01*
X102496500Y-77984500D01*
X102496500Y-78418134D01*
X102503255Y-78480316D01*
X102554385Y-78616705D01*
X102641739Y-78733261D01*
X102758295Y-78820615D01*
X102894684Y-78871745D01*
X102956866Y-78878500D01*
X104323134Y-78878500D01*
X104385316Y-78871745D01*
X104521705Y-78820615D01*
X104638261Y-78733261D01*
X104725615Y-78616705D01*
X104776745Y-78480316D01*
X104783500Y-78418134D01*
X104783500Y-75781866D01*
X104776745Y-75719684D01*
X104725615Y-75583295D01*
X104638261Y-75466739D01*
X104521705Y-75379385D01*
X104385316Y-75328255D01*
X104323134Y-75321500D01*
X102956866Y-75321500D01*
X102894684Y-75328255D01*
X102758295Y-75379385D01*
X102641739Y-75466739D01*
X102554385Y-75583295D01*
X102503255Y-75719684D01*
X102496500Y-75781866D01*
X102496500Y-76215500D01*
X102476498Y-76283621D01*
X102422842Y-76330114D01*
X102370500Y-76341500D01*
X102109011Y-76341500D01*
X102040890Y-76321498D01*
X101994397Y-76267842D01*
X101983011Y-76215500D01*
X101983011Y-73934500D01*
X102003013Y-73866379D01*
X102056669Y-73819886D01*
X102109011Y-73808500D01*
X103323134Y-73808500D01*
X103385316Y-73801745D01*
X103392712Y-73798973D01*
X103392718Y-73798971D01*
X103468448Y-73770581D01*
X103539255Y-73765398D01*
X103601695Y-73799390D01*
X103651697Y-73849305D01*
X103657927Y-73853145D01*
X103657928Y-73853146D01*
X103795090Y-73937694D01*
X103802262Y-73942115D01*
X103882005Y-73968564D01*
X103963611Y-73995632D01*
X103963613Y-73995632D01*
X103970139Y-73997797D01*
X103976975Y-73998497D01*
X103976978Y-73998498D01*
X104020031Y-74002909D01*
X104074600Y-74008500D01*
X105125400Y-74008500D01*
X105128646Y-74008163D01*
X105128650Y-74008163D01*
X105224308Y-73998238D01*
X105224312Y-73998237D01*
X105231166Y-73997526D01*
X105237702Y-73995345D01*
X105237704Y-73995345D01*
X105369806Y-73951272D01*
X105398946Y-73941550D01*
X105549348Y-73848478D01*
X105565640Y-73832158D01*
X105570953Y-73826836D01*
X105633236Y-73792757D01*
X105699510Y-73797524D01*
X105699600Y-73797144D01*
X105701928Y-73797698D01*
X105704353Y-73797872D01*
X105707286Y-73798972D01*
X105707289Y-73798973D01*
X105714684Y-73801745D01*
X105776866Y-73808500D01*
X106540011Y-73808500D01*
X106608132Y-73828502D01*
X106654625Y-73882158D01*
X106666011Y-73934500D01*
X106666011Y-75195500D01*
X106646009Y-75263621D01*
X106592353Y-75310114D01*
X106540011Y-75321500D01*
X105956866Y-75321500D01*
X105894684Y-75328255D01*
X105758295Y-75379385D01*
X105641739Y-75466739D01*
X105554385Y-75583295D01*
X105503255Y-75719684D01*
X105496500Y-75781866D01*
X105496500Y-78418134D01*
X105503255Y-78480316D01*
X105554385Y-78616705D01*
X105641739Y-78733261D01*
X105758295Y-78820615D01*
X105894684Y-78871745D01*
X105956866Y-78878500D01*
X107323134Y-78878500D01*
X107385316Y-78871745D01*
X107521705Y-78820615D01*
X107638261Y-78733261D01*
X107725615Y-78616705D01*
X107776745Y-78480316D01*
X107783500Y-78418134D01*
X107783500Y-77984500D01*
X107803502Y-77916379D01*
X107857158Y-77869886D01*
X107909500Y-77858500D01*
X108370500Y-77858500D01*
X108438621Y-77878502D01*
X108485114Y-77932158D01*
X108496500Y-77984500D01*
X108496500Y-78418134D01*
X108503255Y-78480316D01*
X108554385Y-78616705D01*
X108641739Y-78733261D01*
X108758295Y-78820615D01*
X108894684Y-78871745D01*
X108956866Y-78878500D01*
X109484629Y-78878500D01*
X109552750Y-78898502D01*
X109599243Y-78952158D01*
X109609347Y-79022432D01*
X109579853Y-79087012D01*
X109573724Y-79093595D01*
X105462724Y-83204595D01*
X105400412Y-83238621D01*
X105373629Y-83241500D01*
X97142587Y-83241500D01*
X97068528Y-83217437D01*
X97062098Y-83212765D01*
X97062091Y-83212761D01*
X97056752Y-83208882D01*
X97050724Y-83206198D01*
X97050722Y-83206197D01*
X96888319Y-83133891D01*
X96888318Y-83133891D01*
X96882288Y-83131206D01*
X96788888Y-83111353D01*
X96701944Y-83092872D01*
X96701939Y-83092872D01*
X96695487Y-83091500D01*
X96504513Y-83091500D01*
X96498061Y-83092872D01*
X96498056Y-83092872D01*
X96411112Y-83111353D01*
X96317712Y-83131206D01*
X96311682Y-83133891D01*
X96311681Y-83133891D01*
X96149278Y-83206197D01*
X96149276Y-83206198D01*
X96143248Y-83208882D01*
X96137907Y-83212762D01*
X96137906Y-83212763D01*
X96136743Y-83213608D01*
X95988747Y-83321134D01*
X95984326Y-83326044D01*
X95984325Y-83326045D01*
X95936859Y-83378762D01*
X95860960Y-83463056D01*
X95765473Y-83628444D01*
X95706458Y-83810072D01*
X95686496Y-84000000D01*
X95706458Y-84189928D01*
X95765473Y-84371556D01*
X95860960Y-84536944D01*
X95865375Y-84541847D01*
X95865379Y-84541852D01*
X95957488Y-84644149D01*
X95988747Y-84678866D01*
X96066763Y-84735548D01*
X96125884Y-84778502D01*
X96143248Y-84791118D01*
X96149276Y-84793802D01*
X96149278Y-84793803D01*
X96301010Y-84861358D01*
X96317712Y-84868794D01*
X96433514Y-84893409D01*
X96495986Y-84927136D01*
X96530308Y-84989286D01*
X96525298Y-85060884D01*
X96503255Y-85119684D01*
X96496500Y-85181866D01*
X96496500Y-87818134D01*
X96503255Y-87880316D01*
X96554385Y-88016705D01*
X96641739Y-88133261D01*
X96758295Y-88220615D01*
X96894684Y-88271745D01*
X96956866Y-88278500D01*
X97515500Y-88278500D01*
X97583621Y-88298502D01*
X97630114Y-88352158D01*
X97641500Y-88404500D01*
X97641500Y-89013219D01*
X97621498Y-89081340D01*
X97581803Y-89120363D01*
X97450652Y-89201522D01*
X97407380Y-89244870D01*
X97388200Y-89264083D01*
X97325918Y-89298162D01*
X97254799Y-89293047D01*
X97135316Y-89248255D01*
X97073134Y-89241500D01*
X95826866Y-89241500D01*
X95823469Y-89241869D01*
X95772534Y-89247402D01*
X95772532Y-89247402D01*
X95764684Y-89248255D01*
X95757293Y-89251026D01*
X95757292Y-89251026D01*
X95757284Y-89251029D01*
X95680890Y-89279668D01*
X95646880Y-89287270D01*
X95599969Y-89291085D01*
X95589755Y-89291500D01*
X95581685Y-89291500D01*
X95578065Y-89291922D01*
X95578047Y-89291923D01*
X95553439Y-89294792D01*
X95549078Y-89295224D01*
X95523959Y-89297267D01*
X95483639Y-89300546D01*
X95483636Y-89300547D01*
X95476341Y-89301140D01*
X95469377Y-89303396D01*
X95463418Y-89304587D01*
X95457563Y-89305971D01*
X95450297Y-89306818D01*
X95381651Y-89331735D01*
X95377523Y-89333152D01*
X95315042Y-89353393D01*
X95315040Y-89353394D01*
X95308079Y-89355649D01*
X95301824Y-89359445D01*
X95296350Y-89361951D01*
X95290920Y-89364670D01*
X95284041Y-89367167D01*
X95223002Y-89407186D01*
X95219305Y-89409518D01*
X95219283Y-89409532D01*
X95161671Y-89444491D01*
X95161666Y-89444495D01*
X95156870Y-89447405D01*
X95148494Y-89454803D01*
X95148471Y-89454777D01*
X95145481Y-89457426D01*
X95142243Y-89460134D01*
X95136126Y-89464144D01*
X95131095Y-89469454D01*
X95125476Y-89474153D01*
X95124203Y-89472631D01*
X95071481Y-89503298D01*
X95000554Y-89500150D01*
X94940553Y-89456512D01*
X94905340Y-89409528D01*
X94888261Y-89386739D01*
X94771705Y-89299385D01*
X94635316Y-89248255D01*
X94573134Y-89241500D01*
X94185371Y-89241500D01*
X94117250Y-89221498D01*
X94070757Y-89167842D01*
X94060653Y-89097568D01*
X94090147Y-89032988D01*
X94096276Y-89026405D01*
X94807276Y-88315405D01*
X94869588Y-88281379D01*
X94896371Y-88278500D01*
X95323134Y-88278500D01*
X95385316Y-88271745D01*
X95521705Y-88220615D01*
X95638261Y-88133261D01*
X95725615Y-88016705D01*
X95776745Y-87880316D01*
X95783500Y-87818134D01*
X95783500Y-85181866D01*
X95776745Y-85119684D01*
X95725615Y-84983295D01*
X95638261Y-84866739D01*
X95521705Y-84779385D01*
X95385316Y-84728255D01*
X95323134Y-84721500D01*
X93956866Y-84721500D01*
X93894684Y-84728255D01*
X93758295Y-84779385D01*
X93641739Y-84866739D01*
X93554385Y-84983295D01*
X93503255Y-85119684D01*
X93496500Y-85181866D01*
X93496500Y-87428629D01*
X93476498Y-87496750D01*
X93459595Y-87517724D01*
X91972724Y-89004595D01*
X91910412Y-89038621D01*
X91883629Y-89041500D01*
X91474600Y-89041500D01*
X91471354Y-89041837D01*
X91471350Y-89041837D01*
X91375692Y-89051762D01*
X91375688Y-89051763D01*
X91368834Y-89052474D01*
X91362298Y-89054655D01*
X91362296Y-89054655D01*
X91311812Y-89071498D01*
X91201054Y-89108450D01*
X91050652Y-89201522D01*
X90925695Y-89326697D01*
X90921855Y-89332927D01*
X90921854Y-89332928D01*
X90845676Y-89456512D01*
X90832885Y-89477262D01*
X90817773Y-89522825D01*
X90794243Y-89593766D01*
X90777203Y-89645139D01*
X90766500Y-89749600D01*
X90766500Y-90158629D01*
X90746498Y-90226750D01*
X90729595Y-90247724D01*
X90723095Y-90254224D01*
X90660783Y-90288250D01*
X90589968Y-90283185D01*
X90533132Y-90240638D01*
X90508321Y-90174118D01*
X90508000Y-90165129D01*
X90508000Y-81710058D01*
X90773812Y-81710058D01*
X90773925Y-81714836D01*
X90777939Y-81885164D01*
X90779954Y-81970685D01*
X90780788Y-81975390D01*
X90812284Y-82153104D01*
X90825448Y-82227384D01*
X90909247Y-82474248D01*
X91029423Y-82705596D01*
X91183210Y-82916104D01*
X91367069Y-83100929D01*
X91370908Y-83103764D01*
X91370912Y-83103768D01*
X91572926Y-83252977D01*
X91572930Y-83252980D01*
X91576769Y-83255815D01*
X91581001Y-83258041D01*
X91581000Y-83258041D01*
X91801807Y-83374214D01*
X91807484Y-83377201D01*
X91812005Y-83378762D01*
X92041908Y-83458148D01*
X92053906Y-83462291D01*
X92058612Y-83463150D01*
X92058614Y-83463151D01*
X92089403Y-83468774D01*
X92310363Y-83509129D01*
X92393770Y-83513500D01*
X92556295Y-83513500D01*
X92558674Y-83513319D01*
X92558675Y-83513319D01*
X92745181Y-83499132D01*
X92745186Y-83499131D01*
X92749948Y-83498769D01*
X92754601Y-83497690D01*
X92754604Y-83497690D01*
X92999250Y-83440984D01*
X92999249Y-83440984D01*
X93003914Y-83439903D01*
X93246054Y-83343299D01*
X93470796Y-83211180D01*
X93672967Y-83046587D01*
X93847915Y-82853307D01*
X93991615Y-82635788D01*
X94068174Y-82469720D01*
X94098753Y-82403388D01*
X94098754Y-82403385D01*
X94100759Y-82399036D01*
X94172837Y-82148499D01*
X94206188Y-81889942D01*
X94202932Y-81751780D01*
X94200159Y-81634095D01*
X94200159Y-81634090D01*
X94200046Y-81629315D01*
X94168533Y-81451501D01*
X94155386Y-81377320D01*
X94155385Y-81377316D01*
X94154552Y-81372616D01*
X94070753Y-81125752D01*
X93950577Y-80894404D01*
X93796790Y-80683896D01*
X93612931Y-80499071D01*
X93609092Y-80496236D01*
X93609088Y-80496232D01*
X93407074Y-80347023D01*
X93407070Y-80347020D01*
X93403231Y-80344185D01*
X93247317Y-80262154D01*
X93176751Y-80225027D01*
X93176749Y-80225026D01*
X93172516Y-80222799D01*
X93024793Y-80171790D01*
X92930618Y-80139271D01*
X92930616Y-80139271D01*
X92926094Y-80137709D01*
X92921388Y-80136850D01*
X92921386Y-80136849D01*
X92861634Y-80125936D01*
X92669637Y-80090871D01*
X92586230Y-80086500D01*
X92423705Y-80086500D01*
X92421326Y-80086681D01*
X92421325Y-80086681D01*
X92234819Y-80100868D01*
X92234814Y-80100869D01*
X92230052Y-80101231D01*
X92225399Y-80102310D01*
X92225396Y-80102310D01*
X92076385Y-80136849D01*
X91976086Y-80160097D01*
X91733946Y-80256701D01*
X91509204Y-80388820D01*
X91307033Y-80553413D01*
X91132085Y-80746693D01*
X90988385Y-80964212D01*
X90986384Y-80968552D01*
X90986382Y-80968556D01*
X90881247Y-81196612D01*
X90879241Y-81200964D01*
X90807163Y-81451501D01*
X90773812Y-81710058D01*
X90508000Y-81710058D01*
X90508000Y-65634000D01*
X90528002Y-65565879D01*
X90581658Y-65519386D01*
X90634000Y-65508000D01*
X123366000Y-65508000D01*
X123434121Y-65528002D01*
G37*
%TD.AperFunction*%
%TD*%
M02*
