%TF.GenerationSoftware,KiCad,Pcbnew,(6.0.0)*%
%TF.CreationDate,2022-03-28T21:24:56+02:00*%
%TF.ProjectId,BMS,424d532e-6b69-4636-9164-5f7063625858,rev?*%
%TF.SameCoordinates,Original*%
%TF.FileFunction,Legend,Top*%
%TF.FilePolarity,Positive*%
%FSLAX46Y46*%
G04 Gerber Fmt 4.6, Leading zero omitted, Abs format (unit mm)*
G04 Created by KiCad (PCBNEW (6.0.0)) date 2022-03-28 21:24:56*
%MOMM*%
%LPD*%
G01*
G04 APERTURE LIST*
%ADD10C,0.150000*%
%ADD11C,0.254000*%
%ADD12C,0.120000*%
%ADD13C,0.200000*%
G04 APERTURE END LIST*
D10*
%TO.C,C1*%
X97077142Y-72116666D02*
X97124761Y-72164285D01*
X97172380Y-72307142D01*
X97172380Y-72402380D01*
X97124761Y-72545238D01*
X97029523Y-72640476D01*
X96934285Y-72688095D01*
X96743809Y-72735714D01*
X96600952Y-72735714D01*
X96410476Y-72688095D01*
X96315238Y-72640476D01*
X96220000Y-72545238D01*
X96172380Y-72402380D01*
X96172380Y-72307142D01*
X96220000Y-72164285D01*
X96267619Y-72116666D01*
X97172380Y-71164285D02*
X97172380Y-71735714D01*
X97172380Y-71450000D02*
X96172380Y-71450000D01*
X96315238Y-71545238D01*
X96410476Y-71640476D01*
X96458095Y-71735714D01*
%TO.C,C8*%
X115877142Y-91166666D02*
X115924761Y-91214285D01*
X115972380Y-91357142D01*
X115972380Y-91452380D01*
X115924761Y-91595238D01*
X115829523Y-91690476D01*
X115734285Y-91738095D01*
X115543809Y-91785714D01*
X115400952Y-91785714D01*
X115210476Y-91738095D01*
X115115238Y-91690476D01*
X115020000Y-91595238D01*
X114972380Y-91452380D01*
X114972380Y-91357142D01*
X115020000Y-91214285D01*
X115067619Y-91166666D01*
X115400952Y-90595238D02*
X115353333Y-90690476D01*
X115305714Y-90738095D01*
X115210476Y-90785714D01*
X115162857Y-90785714D01*
X115067619Y-90738095D01*
X115020000Y-90690476D01*
X114972380Y-90595238D01*
X114972380Y-90404761D01*
X115020000Y-90309523D01*
X115067619Y-90261904D01*
X115162857Y-90214285D01*
X115210476Y-90214285D01*
X115305714Y-90261904D01*
X115353333Y-90309523D01*
X115400952Y-90404761D01*
X115400952Y-90595238D01*
X115448571Y-90690476D01*
X115496190Y-90738095D01*
X115591428Y-90785714D01*
X115781904Y-90785714D01*
X115877142Y-90738095D01*
X115924761Y-90690476D01*
X115972380Y-90595238D01*
X115972380Y-90404761D01*
X115924761Y-90309523D01*
X115877142Y-90261904D01*
X115781904Y-90214285D01*
X115591428Y-90214285D01*
X115496190Y-90261904D01*
X115448571Y-90309523D01*
X115400952Y-90404761D01*
%TO.C,R15*%
X112357142Y-96802380D02*
X112023809Y-96326190D01*
X111785714Y-96802380D02*
X111785714Y-95802380D01*
X112166666Y-95802380D01*
X112261904Y-95850000D01*
X112309523Y-95897619D01*
X112357142Y-95992857D01*
X112357142Y-96135714D01*
X112309523Y-96230952D01*
X112261904Y-96278571D01*
X112166666Y-96326190D01*
X111785714Y-96326190D01*
X113309523Y-96802380D02*
X112738095Y-96802380D01*
X113023809Y-96802380D02*
X113023809Y-95802380D01*
X112928571Y-95945238D01*
X112833333Y-96040476D01*
X112738095Y-96088095D01*
X114214285Y-95802380D02*
X113738095Y-95802380D01*
X113690476Y-96278571D01*
X113738095Y-96230952D01*
X113833333Y-96183333D01*
X114071428Y-96183333D01*
X114166666Y-96230952D01*
X114214285Y-96278571D01*
X114261904Y-96373809D01*
X114261904Y-96611904D01*
X114214285Y-96707142D01*
X114166666Y-96754761D01*
X114071428Y-96802380D01*
X113833333Y-96802380D01*
X113738095Y-96754761D01*
X113690476Y-96707142D01*
%TO.C,C3*%
X109477142Y-72116666D02*
X109524761Y-72164285D01*
X109572380Y-72307142D01*
X109572380Y-72402380D01*
X109524761Y-72545238D01*
X109429523Y-72640476D01*
X109334285Y-72688095D01*
X109143809Y-72735714D01*
X109000952Y-72735714D01*
X108810476Y-72688095D01*
X108715238Y-72640476D01*
X108620000Y-72545238D01*
X108572380Y-72402380D01*
X108572380Y-72307142D01*
X108620000Y-72164285D01*
X108667619Y-72116666D01*
X108572380Y-71783333D02*
X108572380Y-71164285D01*
X108953333Y-71497619D01*
X108953333Y-71354761D01*
X109000952Y-71259523D01*
X109048571Y-71211904D01*
X109143809Y-71164285D01*
X109381904Y-71164285D01*
X109477142Y-71211904D01*
X109524761Y-71259523D01*
X109572380Y-71354761D01*
X109572380Y-71640476D01*
X109524761Y-71735714D01*
X109477142Y-71783333D01*
%TO.C,R10*%
X104444642Y-63802380D02*
X104111309Y-63326190D01*
X103873214Y-63802380D02*
X103873214Y-62802380D01*
X104254166Y-62802380D01*
X104349404Y-62850000D01*
X104397023Y-62897619D01*
X104444642Y-62992857D01*
X104444642Y-63135714D01*
X104397023Y-63230952D01*
X104349404Y-63278571D01*
X104254166Y-63326190D01*
X103873214Y-63326190D01*
X105397023Y-63802380D02*
X104825595Y-63802380D01*
X105111309Y-63802380D02*
X105111309Y-62802380D01*
X105016071Y-62945238D01*
X104920833Y-63040476D01*
X104825595Y-63088095D01*
X106016071Y-62802380D02*
X106111309Y-62802380D01*
X106206547Y-62850000D01*
X106254166Y-62897619D01*
X106301785Y-62992857D01*
X106349404Y-63183333D01*
X106349404Y-63421428D01*
X106301785Y-63611904D01*
X106254166Y-63707142D01*
X106206547Y-63754761D01*
X106111309Y-63802380D01*
X106016071Y-63802380D01*
X105920833Y-63754761D01*
X105873214Y-63707142D01*
X105825595Y-63611904D01*
X105777976Y-63421428D01*
X105777976Y-63183333D01*
X105825595Y-62992857D01*
X105873214Y-62897619D01*
X105920833Y-62850000D01*
X106016071Y-62802380D01*
%TO.C,C4*%
X90677142Y-91166666D02*
X90724761Y-91214285D01*
X90772380Y-91357142D01*
X90772380Y-91452380D01*
X90724761Y-91595238D01*
X90629523Y-91690476D01*
X90534285Y-91738095D01*
X90343809Y-91785714D01*
X90200952Y-91785714D01*
X90010476Y-91738095D01*
X89915238Y-91690476D01*
X89820000Y-91595238D01*
X89772380Y-91452380D01*
X89772380Y-91357142D01*
X89820000Y-91214285D01*
X89867619Y-91166666D01*
X90105714Y-90309523D02*
X90772380Y-90309523D01*
X89724761Y-90547619D02*
X90439047Y-90785714D01*
X90439047Y-90166666D01*
%TO.C,C6*%
X103477142Y-91216666D02*
X103524761Y-91264285D01*
X103572380Y-91407142D01*
X103572380Y-91502380D01*
X103524761Y-91645238D01*
X103429523Y-91740476D01*
X103334285Y-91788095D01*
X103143809Y-91835714D01*
X103000952Y-91835714D01*
X102810476Y-91788095D01*
X102715238Y-91740476D01*
X102620000Y-91645238D01*
X102572380Y-91502380D01*
X102572380Y-91407142D01*
X102620000Y-91264285D01*
X102667619Y-91216666D01*
X102572380Y-90359523D02*
X102572380Y-90550000D01*
X102620000Y-90645238D01*
X102667619Y-90692857D01*
X102810476Y-90788095D01*
X103000952Y-90835714D01*
X103381904Y-90835714D01*
X103477142Y-90788095D01*
X103524761Y-90740476D01*
X103572380Y-90645238D01*
X103572380Y-90454761D01*
X103524761Y-90359523D01*
X103477142Y-90311904D01*
X103381904Y-90264285D01*
X103143809Y-90264285D01*
X103048571Y-90311904D01*
X103000952Y-90359523D01*
X102953333Y-90454761D01*
X102953333Y-90645238D01*
X103000952Y-90740476D01*
X103048571Y-90788095D01*
X103143809Y-90835714D01*
%TO.C,Q3*%
X113842261Y-66397619D02*
X113747023Y-66350000D01*
X113651785Y-66254761D01*
X113508928Y-66111904D01*
X113413690Y-66064285D01*
X113318452Y-66064285D01*
X113366071Y-66302380D02*
X113270833Y-66254761D01*
X113175595Y-66159523D01*
X113127976Y-65969047D01*
X113127976Y-65635714D01*
X113175595Y-65445238D01*
X113270833Y-65350000D01*
X113366071Y-65302380D01*
X113556547Y-65302380D01*
X113651785Y-65350000D01*
X113747023Y-65445238D01*
X113794642Y-65635714D01*
X113794642Y-65969047D01*
X113747023Y-66159523D01*
X113651785Y-66254761D01*
X113556547Y-66302380D01*
X113366071Y-66302380D01*
X114127976Y-65302380D02*
X114747023Y-65302380D01*
X114413690Y-65683333D01*
X114556547Y-65683333D01*
X114651785Y-65730952D01*
X114699404Y-65778571D01*
X114747023Y-65873809D01*
X114747023Y-66111904D01*
X114699404Y-66207142D01*
X114651785Y-66254761D01*
X114556547Y-66302380D01*
X114270833Y-66302380D01*
X114175595Y-66254761D01*
X114127976Y-66207142D01*
%TO.C,R3*%
X112902380Y-68479166D02*
X112426190Y-68812500D01*
X112902380Y-69050595D02*
X111902380Y-69050595D01*
X111902380Y-68669642D01*
X111950000Y-68574404D01*
X111997619Y-68526785D01*
X112092857Y-68479166D01*
X112235714Y-68479166D01*
X112330952Y-68526785D01*
X112378571Y-68574404D01*
X112426190Y-68669642D01*
X112426190Y-69050595D01*
X111902380Y-68145833D02*
X111902380Y-67526785D01*
X112283333Y-67860119D01*
X112283333Y-67717261D01*
X112330952Y-67622023D01*
X112378571Y-67574404D01*
X112473809Y-67526785D01*
X112711904Y-67526785D01*
X112807142Y-67574404D01*
X112854761Y-67622023D01*
X112902380Y-67717261D01*
X112902380Y-68002976D01*
X112854761Y-68098214D01*
X112807142Y-68145833D01*
%TO.C,Q4*%
X95367261Y-92747619D02*
X95272023Y-92700000D01*
X95176785Y-92604761D01*
X95033928Y-92461904D01*
X94938690Y-92414285D01*
X94843452Y-92414285D01*
X94891071Y-92652380D02*
X94795833Y-92604761D01*
X94700595Y-92509523D01*
X94652976Y-92319047D01*
X94652976Y-91985714D01*
X94700595Y-91795238D01*
X94795833Y-91700000D01*
X94891071Y-91652380D01*
X95081547Y-91652380D01*
X95176785Y-91700000D01*
X95272023Y-91795238D01*
X95319642Y-91985714D01*
X95319642Y-92319047D01*
X95272023Y-92509523D01*
X95176785Y-92604761D01*
X95081547Y-92652380D01*
X94891071Y-92652380D01*
X96176785Y-91985714D02*
X96176785Y-92652380D01*
X95938690Y-91604761D02*
X95700595Y-92319047D01*
X96319642Y-92319047D01*
%TO.C,Q1*%
X101304761Y-71347619D02*
X101209523Y-71300000D01*
X101114285Y-71204761D01*
X100971428Y-71061904D01*
X100876190Y-71014285D01*
X100780952Y-71014285D01*
X100828571Y-71252380D02*
X100733333Y-71204761D01*
X100638095Y-71109523D01*
X100590476Y-70919047D01*
X100590476Y-70585714D01*
X100638095Y-70395238D01*
X100733333Y-70300000D01*
X100828571Y-70252380D01*
X101019047Y-70252380D01*
X101114285Y-70300000D01*
X101209523Y-70395238D01*
X101257142Y-70585714D01*
X101257142Y-70919047D01*
X101209523Y-71109523D01*
X101114285Y-71204761D01*
X101019047Y-71252380D01*
X100828571Y-71252380D01*
X102209523Y-71252380D02*
X101638095Y-71252380D01*
X101923809Y-71252380D02*
X101923809Y-70252380D01*
X101828571Y-70395238D01*
X101733333Y-70490476D01*
X101638095Y-70538095D01*
%TO.C,R6*%
X103602380Y-94854166D02*
X103126190Y-95187500D01*
X103602380Y-95425595D02*
X102602380Y-95425595D01*
X102602380Y-95044642D01*
X102650000Y-94949404D01*
X102697619Y-94901785D01*
X102792857Y-94854166D01*
X102935714Y-94854166D01*
X103030952Y-94901785D01*
X103078571Y-94949404D01*
X103126190Y-95044642D01*
X103126190Y-95425595D01*
X102602380Y-93997023D02*
X102602380Y-94187500D01*
X102650000Y-94282738D01*
X102697619Y-94330357D01*
X102840476Y-94425595D01*
X103030952Y-94473214D01*
X103411904Y-94473214D01*
X103507142Y-94425595D01*
X103554761Y-94377976D01*
X103602380Y-94282738D01*
X103602380Y-94092261D01*
X103554761Y-93997023D01*
X103507142Y-93949404D01*
X103411904Y-93901785D01*
X103173809Y-93901785D01*
X103078571Y-93949404D01*
X103030952Y-93997023D01*
X102983333Y-94092261D01*
X102983333Y-94282738D01*
X103030952Y-94377976D01*
X103078571Y-94425595D01*
X103173809Y-94473214D01*
%TO.C,R16*%
X118444642Y-96802380D02*
X118111309Y-96326190D01*
X117873214Y-96802380D02*
X117873214Y-95802380D01*
X118254166Y-95802380D01*
X118349404Y-95850000D01*
X118397023Y-95897619D01*
X118444642Y-95992857D01*
X118444642Y-96135714D01*
X118397023Y-96230952D01*
X118349404Y-96278571D01*
X118254166Y-96326190D01*
X117873214Y-96326190D01*
X119397023Y-96802380D02*
X118825595Y-96802380D01*
X119111309Y-96802380D02*
X119111309Y-95802380D01*
X119016071Y-95945238D01*
X118920833Y-96040476D01*
X118825595Y-96088095D01*
X120254166Y-95802380D02*
X120063690Y-95802380D01*
X119968452Y-95850000D01*
X119920833Y-95897619D01*
X119825595Y-96040476D01*
X119777976Y-96230952D01*
X119777976Y-96611904D01*
X119825595Y-96707142D01*
X119873214Y-96754761D01*
X119968452Y-96802380D01*
X120158928Y-96802380D01*
X120254166Y-96754761D01*
X120301785Y-96707142D01*
X120349404Y-96611904D01*
X120349404Y-96373809D01*
X120301785Y-96278571D01*
X120254166Y-96230952D01*
X120158928Y-96183333D01*
X119968452Y-96183333D01*
X119873214Y-96230952D01*
X119825595Y-96278571D01*
X119777976Y-96373809D01*
%TO.C,J1*%
X106306666Y-74082380D02*
X106306666Y-74796666D01*
X106259047Y-74939523D01*
X106163809Y-75034761D01*
X106020952Y-75082380D01*
X105925714Y-75082380D01*
X107306666Y-75082380D02*
X106735238Y-75082380D01*
X107020952Y-75082380D02*
X107020952Y-74082380D01*
X106925714Y-74225238D01*
X106830476Y-74320476D01*
X106735238Y-74368095D01*
%TO.C,Q5*%
X101442261Y-92697619D02*
X101347023Y-92650000D01*
X101251785Y-92554761D01*
X101108928Y-92411904D01*
X101013690Y-92364285D01*
X100918452Y-92364285D01*
X100966071Y-92602380D02*
X100870833Y-92554761D01*
X100775595Y-92459523D01*
X100727976Y-92269047D01*
X100727976Y-91935714D01*
X100775595Y-91745238D01*
X100870833Y-91650000D01*
X100966071Y-91602380D01*
X101156547Y-91602380D01*
X101251785Y-91650000D01*
X101347023Y-91745238D01*
X101394642Y-91935714D01*
X101394642Y-92269047D01*
X101347023Y-92459523D01*
X101251785Y-92554761D01*
X101156547Y-92602380D01*
X100966071Y-92602380D01*
X102299404Y-91602380D02*
X101823214Y-91602380D01*
X101775595Y-92078571D01*
X101823214Y-92030952D01*
X101918452Y-91983333D01*
X102156547Y-91983333D01*
X102251785Y-92030952D01*
X102299404Y-92078571D01*
X102347023Y-92173809D01*
X102347023Y-92411904D01*
X102299404Y-92507142D01*
X102251785Y-92554761D01*
X102156547Y-92602380D01*
X101918452Y-92602380D01*
X101823214Y-92554761D01*
X101775595Y-92507142D01*
%TO.C,C7*%
X109677142Y-91316666D02*
X109724761Y-91364285D01*
X109772380Y-91507142D01*
X109772380Y-91602380D01*
X109724761Y-91745238D01*
X109629523Y-91840476D01*
X109534285Y-91888095D01*
X109343809Y-91935714D01*
X109200952Y-91935714D01*
X109010476Y-91888095D01*
X108915238Y-91840476D01*
X108820000Y-91745238D01*
X108772380Y-91602380D01*
X108772380Y-91507142D01*
X108820000Y-91364285D01*
X108867619Y-91316666D01*
X108772380Y-90983333D02*
X108772380Y-90316666D01*
X109772380Y-90745238D01*
%TO.C,C2*%
X103277142Y-72216666D02*
X103324761Y-72264285D01*
X103372380Y-72407142D01*
X103372380Y-72502380D01*
X103324761Y-72645238D01*
X103229523Y-72740476D01*
X103134285Y-72788095D01*
X102943809Y-72835714D01*
X102800952Y-72835714D01*
X102610476Y-72788095D01*
X102515238Y-72740476D01*
X102420000Y-72645238D01*
X102372380Y-72502380D01*
X102372380Y-72407142D01*
X102420000Y-72264285D01*
X102467619Y-72216666D01*
X102467619Y-71835714D02*
X102420000Y-71788095D01*
X102372380Y-71692857D01*
X102372380Y-71454761D01*
X102420000Y-71359523D01*
X102467619Y-71311904D01*
X102562857Y-71264285D01*
X102658095Y-71264285D01*
X102800952Y-71311904D01*
X103372380Y-71883333D01*
X103372380Y-71264285D01*
D11*
%TO.C,IC1*%
X100210238Y-72624523D02*
X100210238Y-71354523D01*
X101540714Y-72503571D02*
X101480238Y-72564047D01*
X101298809Y-72624523D01*
X101177857Y-72624523D01*
X100996428Y-72564047D01*
X100875476Y-72443095D01*
X100815000Y-72322142D01*
X100754523Y-72080238D01*
X100754523Y-71898809D01*
X100815000Y-71656904D01*
X100875476Y-71535952D01*
X100996428Y-71415000D01*
X101177857Y-71354523D01*
X101298809Y-71354523D01*
X101480238Y-71415000D01*
X101540714Y-71475476D01*
X102750238Y-72624523D02*
X102024523Y-72624523D01*
X102387380Y-72624523D02*
X102387380Y-71354523D01*
X102266428Y-71535952D01*
X102145476Y-71656904D01*
X102024523Y-71717380D01*
D10*
%TO.C,R13*%
X99357142Y-96802380D02*
X99023809Y-96326190D01*
X98785714Y-96802380D02*
X98785714Y-95802380D01*
X99166666Y-95802380D01*
X99261904Y-95850000D01*
X99309523Y-95897619D01*
X99357142Y-95992857D01*
X99357142Y-96135714D01*
X99309523Y-96230952D01*
X99261904Y-96278571D01*
X99166666Y-96326190D01*
X98785714Y-96326190D01*
X100309523Y-96802380D02*
X99738095Y-96802380D01*
X100023809Y-96802380D02*
X100023809Y-95802380D01*
X99928571Y-95945238D01*
X99833333Y-96040476D01*
X99738095Y-96088095D01*
X100642857Y-95802380D02*
X101261904Y-95802380D01*
X100928571Y-96183333D01*
X101071428Y-96183333D01*
X101166666Y-96230952D01*
X101214285Y-96278571D01*
X101261904Y-96373809D01*
X101261904Y-96611904D01*
X101214285Y-96707142D01*
X101166666Y-96754761D01*
X101071428Y-96802380D01*
X100785714Y-96802380D01*
X100690476Y-96754761D01*
X100642857Y-96707142D01*
%TO.C,Q6*%
X107842261Y-92697619D02*
X107747023Y-92650000D01*
X107651785Y-92554761D01*
X107508928Y-92411904D01*
X107413690Y-92364285D01*
X107318452Y-92364285D01*
X107366071Y-92602380D02*
X107270833Y-92554761D01*
X107175595Y-92459523D01*
X107127976Y-92269047D01*
X107127976Y-91935714D01*
X107175595Y-91745238D01*
X107270833Y-91650000D01*
X107366071Y-91602380D01*
X107556547Y-91602380D01*
X107651785Y-91650000D01*
X107747023Y-91745238D01*
X107794642Y-91935714D01*
X107794642Y-92269047D01*
X107747023Y-92459523D01*
X107651785Y-92554761D01*
X107556547Y-92602380D01*
X107366071Y-92602380D01*
X108651785Y-91602380D02*
X108461309Y-91602380D01*
X108366071Y-91650000D01*
X108318452Y-91697619D01*
X108223214Y-91840476D01*
X108175595Y-92030952D01*
X108175595Y-92411904D01*
X108223214Y-92507142D01*
X108270833Y-92554761D01*
X108366071Y-92602380D01*
X108556547Y-92602380D01*
X108651785Y-92554761D01*
X108699404Y-92507142D01*
X108747023Y-92411904D01*
X108747023Y-92173809D01*
X108699404Y-92078571D01*
X108651785Y-92030952D01*
X108556547Y-91983333D01*
X108366071Y-91983333D01*
X108270833Y-92030952D01*
X108223214Y-92078571D01*
X108175595Y-92173809D01*
D11*
%TO.C,IC4*%
X93960238Y-91574523D02*
X93960238Y-90304523D01*
X95290714Y-91453571D02*
X95230238Y-91514047D01*
X95048809Y-91574523D01*
X94927857Y-91574523D01*
X94746428Y-91514047D01*
X94625476Y-91393095D01*
X94565000Y-91272142D01*
X94504523Y-91030238D01*
X94504523Y-90848809D01*
X94565000Y-90606904D01*
X94625476Y-90485952D01*
X94746428Y-90365000D01*
X94927857Y-90304523D01*
X95048809Y-90304523D01*
X95230238Y-90365000D01*
X95290714Y-90425476D01*
X96379285Y-90727857D02*
X96379285Y-91574523D01*
X96076904Y-90244047D02*
X95774523Y-91151190D01*
X96560714Y-91151190D01*
D10*
%TO.C,Q7*%
X113967261Y-92697619D02*
X113872023Y-92650000D01*
X113776785Y-92554761D01*
X113633928Y-92411904D01*
X113538690Y-92364285D01*
X113443452Y-92364285D01*
X113491071Y-92602380D02*
X113395833Y-92554761D01*
X113300595Y-92459523D01*
X113252976Y-92269047D01*
X113252976Y-91935714D01*
X113300595Y-91745238D01*
X113395833Y-91650000D01*
X113491071Y-91602380D01*
X113681547Y-91602380D01*
X113776785Y-91650000D01*
X113872023Y-91745238D01*
X113919642Y-91935714D01*
X113919642Y-92269047D01*
X113872023Y-92459523D01*
X113776785Y-92554761D01*
X113681547Y-92602380D01*
X113491071Y-92602380D01*
X114252976Y-91602380D02*
X114919642Y-91602380D01*
X114491071Y-92602380D01*
D11*
%TO.C,IC5*%
X100410238Y-91574523D02*
X100410238Y-90304523D01*
X101740714Y-91453571D02*
X101680238Y-91514047D01*
X101498809Y-91574523D01*
X101377857Y-91574523D01*
X101196428Y-91514047D01*
X101075476Y-91393095D01*
X101015000Y-91272142D01*
X100954523Y-91030238D01*
X100954523Y-90848809D01*
X101015000Y-90606904D01*
X101075476Y-90485952D01*
X101196428Y-90365000D01*
X101377857Y-90304523D01*
X101498809Y-90304523D01*
X101680238Y-90365000D01*
X101740714Y-90425476D01*
X102889761Y-90304523D02*
X102285000Y-90304523D01*
X102224523Y-90909285D01*
X102285000Y-90848809D01*
X102405952Y-90788333D01*
X102708333Y-90788333D01*
X102829285Y-90848809D01*
X102889761Y-90909285D01*
X102950238Y-91030238D01*
X102950238Y-91332619D01*
X102889761Y-91453571D01*
X102829285Y-91514047D01*
X102708333Y-91574523D01*
X102405952Y-91574523D01*
X102285000Y-91514047D01*
X102224523Y-91453571D01*
D10*
%TO.C,R12*%
X94269642Y-96802380D02*
X93936309Y-96326190D01*
X93698214Y-96802380D02*
X93698214Y-95802380D01*
X94079166Y-95802380D01*
X94174404Y-95850000D01*
X94222023Y-95897619D01*
X94269642Y-95992857D01*
X94269642Y-96135714D01*
X94222023Y-96230952D01*
X94174404Y-96278571D01*
X94079166Y-96326190D01*
X93698214Y-96326190D01*
X95222023Y-96802380D02*
X94650595Y-96802380D01*
X94936309Y-96802380D02*
X94936309Y-95802380D01*
X94841071Y-95945238D01*
X94745833Y-96040476D01*
X94650595Y-96088095D01*
X95602976Y-95897619D02*
X95650595Y-95850000D01*
X95745833Y-95802380D01*
X95983928Y-95802380D01*
X96079166Y-95850000D01*
X96126785Y-95897619D01*
X96174404Y-95992857D01*
X96174404Y-96088095D01*
X96126785Y-96230952D01*
X95555357Y-96802380D01*
X96174404Y-96802380D01*
%TO.C,R14*%
X106269642Y-96802380D02*
X105936309Y-96326190D01*
X105698214Y-96802380D02*
X105698214Y-95802380D01*
X106079166Y-95802380D01*
X106174404Y-95850000D01*
X106222023Y-95897619D01*
X106269642Y-95992857D01*
X106269642Y-96135714D01*
X106222023Y-96230952D01*
X106174404Y-96278571D01*
X106079166Y-96326190D01*
X105698214Y-96326190D01*
X107222023Y-96802380D02*
X106650595Y-96802380D01*
X106936309Y-96802380D02*
X106936309Y-95802380D01*
X106841071Y-95945238D01*
X106745833Y-96040476D01*
X106650595Y-96088095D01*
X108079166Y-96135714D02*
X108079166Y-96802380D01*
X107841071Y-95754761D02*
X107602976Y-96469047D01*
X108222023Y-96469047D01*
%TO.C,R8*%
X116002380Y-94679166D02*
X115526190Y-95012500D01*
X116002380Y-95250595D02*
X115002380Y-95250595D01*
X115002380Y-94869642D01*
X115050000Y-94774404D01*
X115097619Y-94726785D01*
X115192857Y-94679166D01*
X115335714Y-94679166D01*
X115430952Y-94726785D01*
X115478571Y-94774404D01*
X115526190Y-94869642D01*
X115526190Y-95250595D01*
X115430952Y-94107738D02*
X115383333Y-94202976D01*
X115335714Y-94250595D01*
X115240476Y-94298214D01*
X115192857Y-94298214D01*
X115097619Y-94250595D01*
X115050000Y-94202976D01*
X115002380Y-94107738D01*
X115002380Y-93917261D01*
X115050000Y-93822023D01*
X115097619Y-93774404D01*
X115192857Y-93726785D01*
X115240476Y-93726785D01*
X115335714Y-93774404D01*
X115383333Y-93822023D01*
X115430952Y-93917261D01*
X115430952Y-94107738D01*
X115478571Y-94202976D01*
X115526190Y-94250595D01*
X115621428Y-94298214D01*
X115811904Y-94298214D01*
X115907142Y-94250595D01*
X115954761Y-94202976D01*
X116002380Y-94107738D01*
X116002380Y-93917261D01*
X115954761Y-93822023D01*
X115907142Y-93774404D01*
X115811904Y-93726785D01*
X115621428Y-93726785D01*
X115526190Y-93774404D01*
X115478571Y-93822023D01*
X115430952Y-93917261D01*
%TO.C,R5*%
X97202380Y-94654166D02*
X96726190Y-94987500D01*
X97202380Y-95225595D02*
X96202380Y-95225595D01*
X96202380Y-94844642D01*
X96250000Y-94749404D01*
X96297619Y-94701785D01*
X96392857Y-94654166D01*
X96535714Y-94654166D01*
X96630952Y-94701785D01*
X96678571Y-94749404D01*
X96726190Y-94844642D01*
X96726190Y-95225595D01*
X96202380Y-93749404D02*
X96202380Y-94225595D01*
X96678571Y-94273214D01*
X96630952Y-94225595D01*
X96583333Y-94130357D01*
X96583333Y-93892261D01*
X96630952Y-93797023D01*
X96678571Y-93749404D01*
X96773809Y-93701785D01*
X97011904Y-93701785D01*
X97107142Y-93749404D01*
X97154761Y-93797023D01*
X97202380Y-93892261D01*
X97202380Y-94130357D01*
X97154761Y-94225595D01*
X97107142Y-94273214D01*
D11*
%TO.C,IC2*%
X106410238Y-72624523D02*
X106410238Y-71354523D01*
X107740714Y-72503571D02*
X107680238Y-72564047D01*
X107498809Y-72624523D01*
X107377857Y-72624523D01*
X107196428Y-72564047D01*
X107075476Y-72443095D01*
X107015000Y-72322142D01*
X106954523Y-72080238D01*
X106954523Y-71898809D01*
X107015000Y-71656904D01*
X107075476Y-71535952D01*
X107196428Y-71415000D01*
X107377857Y-71354523D01*
X107498809Y-71354523D01*
X107680238Y-71415000D01*
X107740714Y-71475476D01*
X108224523Y-71475476D02*
X108285000Y-71415000D01*
X108405952Y-71354523D01*
X108708333Y-71354523D01*
X108829285Y-71415000D01*
X108889761Y-71475476D01*
X108950238Y-71596428D01*
X108950238Y-71717380D01*
X108889761Y-71898809D01*
X108164047Y-72624523D01*
X108950238Y-72624523D01*
%TO.C,IC6*%
X106760238Y-91574523D02*
X106760238Y-90304523D01*
X108090714Y-91453571D02*
X108030238Y-91514047D01*
X107848809Y-91574523D01*
X107727857Y-91574523D01*
X107546428Y-91514047D01*
X107425476Y-91393095D01*
X107365000Y-91272142D01*
X107304523Y-91030238D01*
X107304523Y-90848809D01*
X107365000Y-90606904D01*
X107425476Y-90485952D01*
X107546428Y-90365000D01*
X107727857Y-90304523D01*
X107848809Y-90304523D01*
X108030238Y-90365000D01*
X108090714Y-90425476D01*
X109179285Y-90304523D02*
X108937380Y-90304523D01*
X108816428Y-90365000D01*
X108755952Y-90425476D01*
X108635000Y-90606904D01*
X108574523Y-90848809D01*
X108574523Y-91332619D01*
X108635000Y-91453571D01*
X108695476Y-91514047D01*
X108816428Y-91574523D01*
X109058333Y-91574523D01*
X109179285Y-91514047D01*
X109239761Y-91453571D01*
X109300238Y-91332619D01*
X109300238Y-91030238D01*
X109239761Y-90909285D01*
X109179285Y-90848809D01*
X109058333Y-90788333D01*
X108816428Y-90788333D01*
X108695476Y-90848809D01*
X108635000Y-90909285D01*
X108574523Y-91030238D01*
D10*
%TO.C,C5*%
X97077142Y-91166666D02*
X97124761Y-91214285D01*
X97172380Y-91357142D01*
X97172380Y-91452380D01*
X97124761Y-91595238D01*
X97029523Y-91690476D01*
X96934285Y-91738095D01*
X96743809Y-91785714D01*
X96600952Y-91785714D01*
X96410476Y-91738095D01*
X96315238Y-91690476D01*
X96220000Y-91595238D01*
X96172380Y-91452380D01*
X96172380Y-91357142D01*
X96220000Y-91214285D01*
X96267619Y-91166666D01*
X96172380Y-90261904D02*
X96172380Y-90738095D01*
X96648571Y-90785714D01*
X96600952Y-90738095D01*
X96553333Y-90642857D01*
X96553333Y-90404761D01*
X96600952Y-90309523D01*
X96648571Y-90261904D01*
X96743809Y-90214285D01*
X96981904Y-90214285D01*
X97077142Y-90261904D01*
X97124761Y-90309523D01*
X97172380Y-90404761D01*
X97172380Y-90642857D01*
X97124761Y-90738095D01*
X97077142Y-90785714D01*
D11*
%TO.C,IC3*%
X112760238Y-72574523D02*
X112760238Y-71304523D01*
X114090714Y-72453571D02*
X114030238Y-72514047D01*
X113848809Y-72574523D01*
X113727857Y-72574523D01*
X113546428Y-72514047D01*
X113425476Y-72393095D01*
X113365000Y-72272142D01*
X113304523Y-72030238D01*
X113304523Y-71848809D01*
X113365000Y-71606904D01*
X113425476Y-71485952D01*
X113546428Y-71365000D01*
X113727857Y-71304523D01*
X113848809Y-71304523D01*
X114030238Y-71365000D01*
X114090714Y-71425476D01*
X114514047Y-71304523D02*
X115300238Y-71304523D01*
X114876904Y-71788333D01*
X115058333Y-71788333D01*
X115179285Y-71848809D01*
X115239761Y-71909285D01*
X115300238Y-72030238D01*
X115300238Y-72332619D01*
X115239761Y-72453571D01*
X115179285Y-72514047D01*
X115058333Y-72574523D01*
X114695476Y-72574523D01*
X114574523Y-72514047D01*
X114514047Y-72453571D01*
D10*
%TO.C,R9*%
X99745833Y-63802380D02*
X99412500Y-63326190D01*
X99174404Y-63802380D02*
X99174404Y-62802380D01*
X99555357Y-62802380D01*
X99650595Y-62850000D01*
X99698214Y-62897619D01*
X99745833Y-62992857D01*
X99745833Y-63135714D01*
X99698214Y-63230952D01*
X99650595Y-63278571D01*
X99555357Y-63326190D01*
X99174404Y-63326190D01*
X100222023Y-63802380D02*
X100412500Y-63802380D01*
X100507738Y-63754761D01*
X100555357Y-63707142D01*
X100650595Y-63564285D01*
X100698214Y-63373809D01*
X100698214Y-62992857D01*
X100650595Y-62897619D01*
X100602976Y-62850000D01*
X100507738Y-62802380D01*
X100317261Y-62802380D01*
X100222023Y-62850000D01*
X100174404Y-62897619D01*
X100126785Y-62992857D01*
X100126785Y-63230952D01*
X100174404Y-63326190D01*
X100222023Y-63373809D01*
X100317261Y-63421428D01*
X100507738Y-63421428D01*
X100602976Y-63373809D01*
X100650595Y-63326190D01*
X100698214Y-63230952D01*
%TO.C,R11*%
X111357142Y-63802380D02*
X111023809Y-63326190D01*
X110785714Y-63802380D02*
X110785714Y-62802380D01*
X111166666Y-62802380D01*
X111261904Y-62850000D01*
X111309523Y-62897619D01*
X111357142Y-62992857D01*
X111357142Y-63135714D01*
X111309523Y-63230952D01*
X111261904Y-63278571D01*
X111166666Y-63326190D01*
X110785714Y-63326190D01*
X112309523Y-63802380D02*
X111738095Y-63802380D01*
X112023809Y-63802380D02*
X112023809Y-62802380D01*
X111928571Y-62945238D01*
X111833333Y-63040476D01*
X111738095Y-63088095D01*
X113261904Y-63802380D02*
X112690476Y-63802380D01*
X112976190Y-63802380D02*
X112976190Y-62802380D01*
X112880952Y-62945238D01*
X112785714Y-63040476D01*
X112690476Y-63088095D01*
%TO.C,R7*%
X109802380Y-94854166D02*
X109326190Y-95187500D01*
X109802380Y-95425595D02*
X108802380Y-95425595D01*
X108802380Y-95044642D01*
X108850000Y-94949404D01*
X108897619Y-94901785D01*
X108992857Y-94854166D01*
X109135714Y-94854166D01*
X109230952Y-94901785D01*
X109278571Y-94949404D01*
X109326190Y-95044642D01*
X109326190Y-95425595D01*
X108802380Y-94520833D02*
X108802380Y-93854166D01*
X109802380Y-94282738D01*
%TO.C,Q8*%
X120042261Y-92697619D02*
X119947023Y-92650000D01*
X119851785Y-92554761D01*
X119708928Y-92411904D01*
X119613690Y-92364285D01*
X119518452Y-92364285D01*
X119566071Y-92602380D02*
X119470833Y-92554761D01*
X119375595Y-92459523D01*
X119327976Y-92269047D01*
X119327976Y-91935714D01*
X119375595Y-91745238D01*
X119470833Y-91650000D01*
X119566071Y-91602380D01*
X119756547Y-91602380D01*
X119851785Y-91650000D01*
X119947023Y-91745238D01*
X119994642Y-91935714D01*
X119994642Y-92269047D01*
X119947023Y-92459523D01*
X119851785Y-92554761D01*
X119756547Y-92602380D01*
X119566071Y-92602380D01*
X120566071Y-92030952D02*
X120470833Y-91983333D01*
X120423214Y-91935714D01*
X120375595Y-91840476D01*
X120375595Y-91792857D01*
X120423214Y-91697619D01*
X120470833Y-91650000D01*
X120566071Y-91602380D01*
X120756547Y-91602380D01*
X120851785Y-91650000D01*
X120899404Y-91697619D01*
X120947023Y-91792857D01*
X120947023Y-91840476D01*
X120899404Y-91935714D01*
X120851785Y-91983333D01*
X120756547Y-92030952D01*
X120566071Y-92030952D01*
X120470833Y-92078571D01*
X120423214Y-92126190D01*
X120375595Y-92221428D01*
X120375595Y-92411904D01*
X120423214Y-92507142D01*
X120470833Y-92554761D01*
X120566071Y-92602380D01*
X120756547Y-92602380D01*
X120851785Y-92554761D01*
X120899404Y-92507142D01*
X120947023Y-92411904D01*
X120947023Y-92221428D01*
X120899404Y-92126190D01*
X120851785Y-92078571D01*
X120756547Y-92030952D01*
%TO.C,R4*%
X90802380Y-94654166D02*
X90326190Y-94987500D01*
X90802380Y-95225595D02*
X89802380Y-95225595D01*
X89802380Y-94844642D01*
X89850000Y-94749404D01*
X89897619Y-94701785D01*
X89992857Y-94654166D01*
X90135714Y-94654166D01*
X90230952Y-94701785D01*
X90278571Y-94749404D01*
X90326190Y-94844642D01*
X90326190Y-95225595D01*
X90135714Y-93797023D02*
X90802380Y-93797023D01*
X89754761Y-94035119D02*
X90469047Y-94273214D01*
X90469047Y-93654166D01*
%TO.C,Q2*%
X107567261Y-71197619D02*
X107472023Y-71150000D01*
X107376785Y-71054761D01*
X107233928Y-70911904D01*
X107138690Y-70864285D01*
X107043452Y-70864285D01*
X107091071Y-71102380D02*
X106995833Y-71054761D01*
X106900595Y-70959523D01*
X106852976Y-70769047D01*
X106852976Y-70435714D01*
X106900595Y-70245238D01*
X106995833Y-70150000D01*
X107091071Y-70102380D01*
X107281547Y-70102380D01*
X107376785Y-70150000D01*
X107472023Y-70245238D01*
X107519642Y-70435714D01*
X107519642Y-70769047D01*
X107472023Y-70959523D01*
X107376785Y-71054761D01*
X107281547Y-71102380D01*
X107091071Y-71102380D01*
X107900595Y-70197619D02*
X107948214Y-70150000D01*
X108043452Y-70102380D01*
X108281547Y-70102380D01*
X108376785Y-70150000D01*
X108424404Y-70197619D01*
X108472023Y-70292857D01*
X108472023Y-70388095D01*
X108424404Y-70530952D01*
X107852976Y-71102380D01*
X108472023Y-71102380D01*
D11*
%TO.C,IC8*%
X119010238Y-91574523D02*
X119010238Y-90304523D01*
X120340714Y-91453571D02*
X120280238Y-91514047D01*
X120098809Y-91574523D01*
X119977857Y-91574523D01*
X119796428Y-91514047D01*
X119675476Y-91393095D01*
X119615000Y-91272142D01*
X119554523Y-91030238D01*
X119554523Y-90848809D01*
X119615000Y-90606904D01*
X119675476Y-90485952D01*
X119796428Y-90365000D01*
X119977857Y-90304523D01*
X120098809Y-90304523D01*
X120280238Y-90365000D01*
X120340714Y-90425476D01*
X121066428Y-90848809D02*
X120945476Y-90788333D01*
X120885000Y-90727857D01*
X120824523Y-90606904D01*
X120824523Y-90546428D01*
X120885000Y-90425476D01*
X120945476Y-90365000D01*
X121066428Y-90304523D01*
X121308333Y-90304523D01*
X121429285Y-90365000D01*
X121489761Y-90425476D01*
X121550238Y-90546428D01*
X121550238Y-90606904D01*
X121489761Y-90727857D01*
X121429285Y-90788333D01*
X121308333Y-90848809D01*
X121066428Y-90848809D01*
X120945476Y-90909285D01*
X120885000Y-90969761D01*
X120824523Y-91090714D01*
X120824523Y-91332619D01*
X120885000Y-91453571D01*
X120945476Y-91514047D01*
X121066428Y-91574523D01*
X121308333Y-91574523D01*
X121429285Y-91514047D01*
X121489761Y-91453571D01*
X121550238Y-91332619D01*
X121550238Y-91090714D01*
X121489761Y-90969761D01*
X121429285Y-90909285D01*
X121308333Y-90848809D01*
D10*
%TO.C,R2*%
X106702380Y-68566666D02*
X106226190Y-68900000D01*
X106702380Y-69138095D02*
X105702380Y-69138095D01*
X105702380Y-68757142D01*
X105750000Y-68661904D01*
X105797619Y-68614285D01*
X105892857Y-68566666D01*
X106035714Y-68566666D01*
X106130952Y-68614285D01*
X106178571Y-68661904D01*
X106226190Y-68757142D01*
X106226190Y-69138095D01*
X105797619Y-68185714D02*
X105750000Y-68138095D01*
X105702380Y-68042857D01*
X105702380Y-67804761D01*
X105750000Y-67709523D01*
X105797619Y-67661904D01*
X105892857Y-67614285D01*
X105988095Y-67614285D01*
X106130952Y-67661904D01*
X106702380Y-68233333D01*
X106702380Y-67614285D01*
D11*
%TO.C,IC7*%
X112810238Y-91574523D02*
X112810238Y-90304523D01*
X114140714Y-91453571D02*
X114080238Y-91514047D01*
X113898809Y-91574523D01*
X113777857Y-91574523D01*
X113596428Y-91514047D01*
X113475476Y-91393095D01*
X113415000Y-91272142D01*
X113354523Y-91030238D01*
X113354523Y-90848809D01*
X113415000Y-90606904D01*
X113475476Y-90485952D01*
X113596428Y-90365000D01*
X113777857Y-90304523D01*
X113898809Y-90304523D01*
X114080238Y-90365000D01*
X114140714Y-90425476D01*
X114564047Y-90304523D02*
X115410714Y-90304523D01*
X114866428Y-91574523D01*
D10*
%TO.C,R1*%
X100502380Y-68479166D02*
X100026190Y-68812500D01*
X100502380Y-69050595D02*
X99502380Y-69050595D01*
X99502380Y-68669642D01*
X99550000Y-68574404D01*
X99597619Y-68526785D01*
X99692857Y-68479166D01*
X99835714Y-68479166D01*
X99930952Y-68526785D01*
X99978571Y-68574404D01*
X100026190Y-68669642D01*
X100026190Y-69050595D01*
X100502380Y-67526785D02*
X100502380Y-68098214D01*
X100502380Y-67812500D02*
X99502380Y-67812500D01*
X99645238Y-67907738D01*
X99740476Y-68002976D01*
X99788095Y-68098214D01*
D12*
%TO.C,C1*%
X99135000Y-72211252D02*
X99135000Y-71688748D01*
X97665000Y-72211252D02*
X97665000Y-71688748D01*
%TO.C,C8*%
X116465000Y-91261252D02*
X116465000Y-90738748D01*
X117935000Y-91261252D02*
X117935000Y-90738748D01*
%TO.C,R15*%
X112772936Y-98735000D02*
X113227064Y-98735000D01*
X112772936Y-97265000D02*
X113227064Y-97265000D01*
%TO.C,C3*%
X111535000Y-72211252D02*
X111535000Y-71688748D01*
X110065000Y-72211252D02*
X110065000Y-71688748D01*
%TO.C,R10*%
X104860436Y-65735000D02*
X105314564Y-65735000D01*
X104860436Y-64265000D02*
X105314564Y-64265000D01*
%TO.C,C4*%
X92735000Y-91261252D02*
X92735000Y-90738748D01*
X91265000Y-91261252D02*
X91265000Y-90738748D01*
%TO.C,C6*%
X104065000Y-91311252D02*
X104065000Y-90788748D01*
X105535000Y-91311252D02*
X105535000Y-90788748D01*
%TO.C,Q3*%
X113937500Y-66690000D02*
X112262500Y-66690000D01*
X113937500Y-69810000D02*
X113287500Y-69810000D01*
X113937500Y-69810000D02*
X114587500Y-69810000D01*
X113937500Y-66690000D02*
X114587500Y-66690000D01*
%TO.C,R3*%
X111535000Y-68085436D02*
X111535000Y-68539564D01*
X110065000Y-68085436D02*
X110065000Y-68539564D01*
%TO.C,Q4*%
X95462500Y-93040000D02*
X93787500Y-93040000D01*
X95462500Y-96160000D02*
X94812500Y-96160000D01*
X95462500Y-96160000D02*
X96112500Y-96160000D01*
X95462500Y-93040000D02*
X96112500Y-93040000D01*
%TO.C,Q1*%
X101400000Y-69960000D02*
X103075000Y-69960000D01*
X101400000Y-66840000D02*
X102050000Y-66840000D01*
X101400000Y-66840000D02*
X100750000Y-66840000D01*
X101400000Y-69960000D02*
X100750000Y-69960000D01*
%TO.C,R6*%
X104065000Y-94914564D02*
X104065000Y-94460436D01*
X105535000Y-94914564D02*
X105535000Y-94460436D01*
%TO.C,R16*%
X118860436Y-98735000D02*
X119314564Y-98735000D01*
X118860436Y-97265000D02*
X119314564Y-97265000D01*
%TO.C,J1*%
X120655000Y-78250000D02*
X119535000Y-78250000D01*
X93745000Y-78250000D02*
X93745000Y-75830000D01*
X122075000Y-85340000D02*
X119535000Y-85340000D01*
X122075000Y-82885000D02*
X122075000Y-85340000D01*
X91205000Y-85340000D02*
X93745000Y-85340000D01*
X120655000Y-77750000D02*
X120655000Y-78250000D01*
X91205000Y-82885000D02*
X91205000Y-85340000D01*
X91205000Y-77750000D02*
X92625000Y-77750000D01*
X122075000Y-77750000D02*
X120655000Y-77750000D01*
X122075000Y-80715000D02*
X122075000Y-77750000D01*
X92625000Y-77750000D02*
X92625000Y-78250000D01*
X92625000Y-78250000D02*
X93745000Y-78250000D01*
X91205000Y-80715000D02*
X91205000Y-77750000D01*
%TO.C,Q5*%
X101537500Y-96110000D02*
X102187500Y-96110000D01*
X101537500Y-92990000D02*
X102187500Y-92990000D01*
X101537500Y-96110000D02*
X100887500Y-96110000D01*
X101537500Y-92990000D02*
X99862500Y-92990000D01*
%TO.C,C7*%
X110265000Y-91411252D02*
X110265000Y-90888748D01*
X111735000Y-91411252D02*
X111735000Y-90888748D01*
%TO.C,C2*%
X103865000Y-72311252D02*
X103865000Y-71788748D01*
X105335000Y-72311252D02*
X105335000Y-71788748D01*
D13*
%TO.C,IC1*%
X101125000Y-73500000D02*
X101125000Y-70600000D01*
X101125000Y-70600000D02*
X101775000Y-70600000D01*
X99625000Y-70450000D02*
X100775000Y-70450000D01*
X101775000Y-73500000D02*
X101125000Y-73500000D01*
X101775000Y-70600000D02*
X101775000Y-73500000D01*
D12*
%TO.C,R13*%
X99772936Y-98735000D02*
X100227064Y-98735000D01*
X99772936Y-97265000D02*
X100227064Y-97265000D01*
%TO.C,Q6*%
X107937500Y-92990000D02*
X108587500Y-92990000D01*
X107937500Y-96110000D02*
X107287500Y-96110000D01*
X107937500Y-96110000D02*
X108587500Y-96110000D01*
X107937500Y-92990000D02*
X106262500Y-92990000D01*
D13*
%TO.C,IC4*%
X94875000Y-92450000D02*
X94875000Y-89550000D01*
X95525000Y-89550000D02*
X95525000Y-92450000D01*
X94875000Y-89550000D02*
X95525000Y-89550000D01*
X95525000Y-92450000D02*
X94875000Y-92450000D01*
X93375000Y-89400000D02*
X94525000Y-89400000D01*
D12*
%TO.C,Q7*%
X114062500Y-92990000D02*
X112387500Y-92990000D01*
X114062500Y-96110000D02*
X114712500Y-96110000D01*
X114062500Y-92990000D02*
X114712500Y-92990000D01*
X114062500Y-96110000D02*
X113412500Y-96110000D01*
D13*
%TO.C,IC5*%
X101325000Y-92450000D02*
X101325000Y-89550000D01*
X99825000Y-89400000D02*
X100975000Y-89400000D01*
X101325000Y-89550000D02*
X101975000Y-89550000D01*
X101975000Y-89550000D02*
X101975000Y-92450000D01*
X101975000Y-92450000D02*
X101325000Y-92450000D01*
D12*
%TO.C,R12*%
X94685436Y-98735000D02*
X95139564Y-98735000D01*
X94685436Y-97265000D02*
X95139564Y-97265000D01*
%TO.C,R14*%
X106685436Y-97265000D02*
X107139564Y-97265000D01*
X106685436Y-98735000D02*
X107139564Y-98735000D01*
%TO.C,R8*%
X117935000Y-94739564D02*
X117935000Y-94285436D01*
X116465000Y-94739564D02*
X116465000Y-94285436D01*
%TO.C,R5*%
X99135000Y-94714564D02*
X99135000Y-94260436D01*
X97665000Y-94714564D02*
X97665000Y-94260436D01*
D13*
%TO.C,IC2*%
X107325000Y-70600000D02*
X107975000Y-70600000D01*
X107975000Y-70600000D02*
X107975000Y-73500000D01*
X105825000Y-70450000D02*
X106975000Y-70450000D01*
X107325000Y-73500000D02*
X107325000Y-70600000D01*
X107975000Y-73500000D02*
X107325000Y-73500000D01*
%TO.C,IC6*%
X107675000Y-89550000D02*
X108325000Y-89550000D01*
X108325000Y-89550000D02*
X108325000Y-92450000D01*
X107675000Y-92450000D02*
X107675000Y-89550000D01*
X108325000Y-92450000D02*
X107675000Y-92450000D01*
X106175000Y-89400000D02*
X107325000Y-89400000D01*
D12*
%TO.C,C5*%
X99135000Y-91261252D02*
X99135000Y-90738748D01*
X97665000Y-91261252D02*
X97665000Y-90738748D01*
D13*
%TO.C,IC3*%
X114325000Y-73450000D02*
X113675000Y-73450000D01*
X114325000Y-70550000D02*
X114325000Y-73450000D01*
X112175000Y-70400000D02*
X113325000Y-70400000D01*
X113675000Y-70550000D02*
X114325000Y-70550000D01*
X113675000Y-73450000D02*
X113675000Y-70550000D01*
D12*
%TO.C,R9*%
X99685436Y-65735000D02*
X100139564Y-65735000D01*
X99685436Y-64265000D02*
X100139564Y-64265000D01*
%TO.C,R11*%
X111772936Y-65735000D02*
X112227064Y-65735000D01*
X111772936Y-64265000D02*
X112227064Y-64265000D01*
%TO.C,R7*%
X111735000Y-94914564D02*
X111735000Y-94460436D01*
X110265000Y-94914564D02*
X110265000Y-94460436D01*
%TO.C,Q8*%
X120137500Y-96110000D02*
X120787500Y-96110000D01*
X120137500Y-92990000D02*
X120787500Y-92990000D01*
X120137500Y-96110000D02*
X119487500Y-96110000D01*
X120137500Y-92990000D02*
X118462500Y-92990000D01*
%TO.C,R4*%
X91265000Y-94714564D02*
X91265000Y-94260436D01*
X92735000Y-94714564D02*
X92735000Y-94260436D01*
%TO.C,Q2*%
X107662500Y-66690000D02*
X107012500Y-66690000D01*
X107662500Y-69810000D02*
X109337500Y-69810000D01*
X107662500Y-66690000D02*
X108312500Y-66690000D01*
X107662500Y-69810000D02*
X107012500Y-69810000D01*
D13*
%TO.C,IC8*%
X119925000Y-92450000D02*
X119925000Y-89550000D01*
X120575000Y-89550000D02*
X120575000Y-92450000D01*
X119925000Y-89550000D02*
X120575000Y-89550000D01*
X120575000Y-92450000D02*
X119925000Y-92450000D01*
X118425000Y-89400000D02*
X119575000Y-89400000D01*
D12*
%TO.C,R2*%
X105335000Y-68172936D02*
X105335000Y-68627064D01*
X103865000Y-68172936D02*
X103865000Y-68627064D01*
D13*
%TO.C,IC7*%
X113725000Y-92450000D02*
X113725000Y-89550000D01*
X112225000Y-89400000D02*
X113375000Y-89400000D01*
X113725000Y-89550000D02*
X114375000Y-89550000D01*
X114375000Y-92450000D02*
X113725000Y-92450000D01*
X114375000Y-89550000D02*
X114375000Y-92450000D01*
D12*
%TO.C,R1*%
X99135000Y-68085436D02*
X99135000Y-68539564D01*
X97665000Y-68085436D02*
X97665000Y-68539564D01*
%TD*%
M02*
