%TF.GenerationSoftware,KiCad,Pcbnew,(6.0.0)*%
%TF.CreationDate,2022-03-28T21:02:23+02:00*%
%TF.ProjectId,BMS,424d532e-6b69-4636-9164-5f7063625858,rev?*%
%TF.SameCoordinates,Original*%
%TF.FileFunction,Soldermask,Top*%
%TF.FilePolarity,Negative*%
%FSLAX46Y46*%
G04 Gerber Fmt 4.6, Leading zero omitted, Abs format (unit mm)*
G04 Created by KiCad (PCBNEW (6.0.0)) date 2022-03-28 21:02:23*
%MOMM*%
%LPD*%
G01*
G04 APERTURE LIST*
G04 Aperture macros list*
%AMRoundRect*
0 Rectangle with rounded corners*
0 $1 Rounding radius*
0 $2 $3 $4 $5 $6 $7 $8 $9 X,Y pos of 4 corners*
0 Add a 4 corners polygon primitive as box body*
4,1,4,$2,$3,$4,$5,$6,$7,$8,$9,$2,$3,0*
0 Add four circle primitives for the rounded corners*
1,1,$1+$1,$2,$3*
1,1,$1+$1,$4,$5*
1,1,$1+$1,$6,$7*
1,1,$1+$1,$8,$9*
0 Add four rect primitives between the rounded corners*
20,1,$1+$1,$2,$3,$4,$5,0*
20,1,$1+$1,$4,$5,$6,$7,0*
20,1,$1+$1,$6,$7,$8,$9,0*
20,1,$1+$1,$8,$9,$2,$3,0*%
G04 Aperture macros list end*
%ADD10RoundRect,0.250000X0.450000X-0.262500X0.450000X0.262500X-0.450000X0.262500X-0.450000X-0.262500X0*%
%ADD11RoundRect,0.250000X-0.450000X0.262500X-0.450000X-0.262500X0.450000X-0.262500X0.450000X0.262500X0*%
%ADD12RoundRect,0.150000X-0.587500X-0.150000X0.587500X-0.150000X0.587500X0.150000X-0.587500X0.150000X0*%
%ADD13RoundRect,0.150000X0.587500X0.150000X-0.587500X0.150000X-0.587500X-0.150000X0.587500X-0.150000X0*%
%ADD14C,2.410000*%
%ADD15R,1.270000X2.540000*%
%ADD16R,1.150000X0.600000*%
%ADD17RoundRect,0.250000X0.475000X-0.250000X0.475000X0.250000X-0.475000X0.250000X-0.475000X-0.250000X0*%
G04 APERTURE END LIST*
D10*
%TO.C,R8*%
X117200000Y-95425000D03*
X117200000Y-93600000D03*
%TD*%
%TO.C,R7*%
X111000000Y-95600000D03*
X111000000Y-93775000D03*
%TD*%
%TO.C,R6*%
X104800000Y-95600000D03*
X104800000Y-93775000D03*
%TD*%
%TO.C,R5*%
X98400000Y-95400000D03*
X98400000Y-93575000D03*
%TD*%
%TO.C,R4*%
X92000000Y-95400000D03*
X92000000Y-93575000D03*
%TD*%
D11*
%TO.C,R3*%
X110800000Y-67400000D03*
X110800000Y-69225000D03*
%TD*%
%TO.C,R2*%
X104600000Y-67487500D03*
X104600000Y-69312500D03*
%TD*%
%TO.C,R1*%
X98400000Y-67400000D03*
X98400000Y-69225000D03*
%TD*%
D12*
%TO.C,Q8*%
X119200000Y-93600000D03*
X119200000Y-95500000D03*
X121075000Y-94550000D03*
%TD*%
%TO.C,Q7*%
X113125000Y-93600000D03*
X113125000Y-95500000D03*
X115000000Y-94550000D03*
%TD*%
%TO.C,Q6*%
X107000000Y-93600000D03*
X107000000Y-95500000D03*
X108875000Y-94550000D03*
%TD*%
%TO.C,Q5*%
X100600000Y-93600000D03*
X100600000Y-95500000D03*
X102475000Y-94550000D03*
%TD*%
%TO.C,Q4*%
X94525000Y-93650000D03*
X94525000Y-95550000D03*
X96400000Y-94600000D03*
%TD*%
%TO.C,Q3*%
X113000000Y-67300000D03*
X113000000Y-69200000D03*
X114875000Y-68250000D03*
%TD*%
D13*
%TO.C,Q2*%
X108600000Y-69200000D03*
X108600000Y-67300000D03*
X106725000Y-68250000D03*
%TD*%
%TO.C,Q1*%
X102337500Y-69350000D03*
X102337500Y-67450000D03*
X100462500Y-68400000D03*
%TD*%
D14*
%TO.C,J1*%
X92490000Y-81800000D03*
X120790000Y-81800000D03*
D15*
X94640000Y-77100000D03*
X97640000Y-77100000D03*
X100640000Y-77100000D03*
X103640000Y-77100000D03*
X106640000Y-77100000D03*
X109640000Y-77100000D03*
X112640000Y-77100000D03*
X115640000Y-77100000D03*
X118640000Y-77100000D03*
X94640000Y-86500000D03*
X97640000Y-86500000D03*
X100640000Y-86500000D03*
X103640000Y-86500000D03*
X106640000Y-86500000D03*
X109640000Y-86500000D03*
X112640000Y-86500000D03*
X115640000Y-86500000D03*
X118640000Y-86500000D03*
%TD*%
D16*
%TO.C,IC8*%
X119000000Y-90050000D03*
X119000000Y-91000000D03*
X119000000Y-91950000D03*
X121500000Y-91950000D03*
X121500000Y-91000000D03*
X121500000Y-90050000D03*
%TD*%
%TO.C,IC7*%
X112800000Y-90050000D03*
X112800000Y-91000000D03*
X112800000Y-91950000D03*
X115300000Y-91950000D03*
X115300000Y-91000000D03*
X115300000Y-90050000D03*
%TD*%
%TO.C,IC6*%
X106750000Y-90050000D03*
X106750000Y-91000000D03*
X106750000Y-91950000D03*
X109250000Y-91950000D03*
X109250000Y-91000000D03*
X109250000Y-90050000D03*
%TD*%
%TO.C,IC5*%
X100400000Y-90050000D03*
X100400000Y-91000000D03*
X100400000Y-91950000D03*
X102900000Y-91950000D03*
X102900000Y-91000000D03*
X102900000Y-90050000D03*
%TD*%
%TO.C,IC4*%
X93950000Y-90050000D03*
X93950000Y-91000000D03*
X93950000Y-91950000D03*
X96450000Y-91950000D03*
X96450000Y-91000000D03*
X96450000Y-90050000D03*
%TD*%
%TO.C,IC3*%
X112750000Y-71050000D03*
X112750000Y-72000000D03*
X112750000Y-72950000D03*
X115250000Y-72950000D03*
X115250000Y-72000000D03*
X115250000Y-71050000D03*
%TD*%
%TO.C,IC2*%
X106400000Y-71100000D03*
X106400000Y-72050000D03*
X106400000Y-73000000D03*
X108900000Y-73000000D03*
X108900000Y-72050000D03*
X108900000Y-71100000D03*
%TD*%
%TO.C,IC1*%
X100200000Y-71100000D03*
X100200000Y-72050000D03*
X100200000Y-73000000D03*
X102700000Y-73000000D03*
X102700000Y-72050000D03*
X102700000Y-71100000D03*
%TD*%
D17*
%TO.C,C8*%
X117200000Y-91950000D03*
X117200000Y-90050000D03*
%TD*%
%TO.C,C7*%
X111000000Y-92100000D03*
X111000000Y-90200000D03*
%TD*%
%TO.C,C6*%
X104800000Y-92000000D03*
X104800000Y-90100000D03*
%TD*%
%TO.C,C5*%
X98400000Y-91950000D03*
X98400000Y-90050000D03*
%TD*%
%TO.C,C4*%
X92000000Y-91950000D03*
X92000000Y-90050000D03*
%TD*%
%TO.C,C3*%
X110800000Y-72900000D03*
X110800000Y-71000000D03*
%TD*%
%TO.C,C2*%
X104600000Y-73000000D03*
X104600000Y-71100000D03*
%TD*%
%TO.C,C1*%
X98400000Y-72900000D03*
X98400000Y-71000000D03*
%TD*%
M02*
