%TF.GenerationSoftware,KiCad,Pcbnew,(6.0.0)*%
%TF.CreationDate,2022-03-28T21:24:56+02:00*%
%TF.ProjectId,BMS,424d532e-6b69-4636-9164-5f7063625858,rev?*%
%TF.SameCoordinates,Original*%
%TF.FileFunction,Copper,L2,Bot*%
%TF.FilePolarity,Positive*%
%FSLAX46Y46*%
G04 Gerber Fmt 4.6, Leading zero omitted, Abs format (unit mm)*
G04 Created by KiCad (PCBNEW (6.0.0)) date 2022-03-28 21:24:56*
%MOMM*%
%LPD*%
G01*
G04 APERTURE LIST*
%TA.AperFunction,ViaPad*%
%ADD10C,0.800000*%
%TD*%
%TA.AperFunction,Conductor*%
%ADD11C,0.500000*%
%TD*%
G04 APERTURE END LIST*
D10*
%TO.N,B1*%
X101286145Y-72386738D03*
X101200000Y-67400000D03*
%TO.N,Net-(C2-Pad1)*%
X103322235Y-68564425D03*
X105600000Y-73000000D03*
%TO.N,B2*%
X107400000Y-67200000D03*
X107486145Y-72386738D03*
%TO.N,Net-(C3-Pad1)*%
X111850000Y-72950000D03*
X109742448Y-68256244D03*
%TO.N,B3*%
X93000000Y-94800000D03*
X96600000Y-84000000D03*
X92700000Y-98000000D03*
%TO.N,B4*%
X99087500Y-96512500D03*
X108400000Y-84000000D03*
%TO.N,B5*%
X99351996Y-90997059D03*
X101900000Y-95500000D03*
%TO.N,B6*%
X108600000Y-95600000D03*
X106000000Y-91000000D03*
%TO.N,B7*%
X114025000Y-95425000D03*
X111800000Y-91000000D03*
%TO.N,GND*%
X92000000Y-66000000D03*
X117975000Y-90825000D03*
X119200000Y-94700000D03*
X122000000Y-66000000D03*
%TO.N,Net-(Q3-Pad3)*%
X114084585Y-68489056D03*
X114000000Y-65000000D03*
%TO.N,Net-(Q4-Pad3)*%
X96500000Y-93900000D03*
X96700000Y-98000000D03*
%TO.N,Net-(Q5-Pad3)*%
X102600000Y-98100000D03*
X102800000Y-93900000D03*
%TO.N,Net-(Q6-Pad3)*%
X108900000Y-93600000D03*
X109100000Y-98000000D03*
%TO.N,Net-(Q7-Pad3)*%
X115100000Y-93700000D03*
X115600000Y-97800000D03*
%TD*%
D11*
%TO.N,B1*%
X101200000Y-72300593D02*
X101286145Y-72386738D01*
X101200000Y-67400000D02*
X101200000Y-72300593D01*
%TO.N,Net-(C2-Pad1)*%
X105600000Y-73000000D02*
X103322235Y-70722235D01*
X103322235Y-70722235D02*
X103322235Y-68564425D01*
%TO.N,B2*%
X107400000Y-67200000D02*
X107400000Y-72300593D01*
X107400000Y-72300593D02*
X107486145Y-72386738D01*
%TO.N,Net-(C3-Pad1)*%
X109742448Y-68256244D02*
X109742448Y-70842448D01*
X109742448Y-70842448D02*
X111850000Y-72950000D01*
%TO.N,B3*%
X96600000Y-84000000D02*
X93000000Y-87600000D01*
X93000000Y-94800000D02*
X93000000Y-97700000D01*
X93000000Y-87600000D02*
X93000000Y-94800000D01*
X93000000Y-97700000D02*
X92700000Y-98000000D01*
%TO.N,B4*%
X98502485Y-90645179D02*
X98502485Y-95927485D01*
X102800000Y-89600000D02*
X99547664Y-89600000D01*
X108400000Y-84000000D02*
X102800000Y-89600000D01*
X99547664Y-89600000D02*
X98502485Y-90645179D01*
X98502485Y-95927485D02*
X99087500Y-96512500D01*
%TO.N,B5*%
X99351996Y-90997059D02*
X99351996Y-92951996D01*
X99351996Y-92951996D02*
X101900000Y-95500000D01*
%TO.N,B6*%
X106000000Y-93000000D02*
X108600000Y-95600000D01*
X106000000Y-91000000D02*
X106000000Y-93000000D01*
%TO.N,B7*%
X111800000Y-93200000D02*
X114025000Y-95425000D01*
X111800000Y-91000000D02*
X111800000Y-93200000D01*
%TO.N,GND*%
X119200000Y-94700000D02*
X119200000Y-92050000D01*
X119200000Y-92050000D02*
X117975000Y-90825000D01*
%TO.N,Net-(Q3-Pad3)*%
X114084585Y-65084585D02*
X114000000Y-65000000D01*
X114084585Y-68489056D02*
X114084585Y-65084585D01*
%TO.N,Net-(Q4-Pad3)*%
X96700000Y-98000000D02*
X96700000Y-94100000D01*
X96700000Y-94100000D02*
X96500000Y-93900000D01*
%TO.N,Net-(Q5-Pad3)*%
X102800000Y-97900000D02*
X102800000Y-93900000D01*
X102600000Y-98100000D02*
X102800000Y-97900000D01*
%TO.N,Net-(Q6-Pad3)*%
X109449511Y-97650489D02*
X109449511Y-94149511D01*
X109100000Y-98000000D02*
X109449511Y-97650489D01*
X109449511Y-94149511D02*
X108900000Y-93600000D01*
%TO.N,Net-(Q7-Pad3)*%
X115600000Y-97800000D02*
X115600000Y-94200000D01*
X115600000Y-94200000D02*
X115100000Y-93700000D01*
%TD*%
%TA.AperFunction,Conductor*%
%TO.N,GND*%
G36*
X123434121Y-63528002D02*
G01*
X123480614Y-63581658D01*
X123492000Y-63634000D01*
X123492000Y-99366000D01*
X123471998Y-99434121D01*
X123418342Y-99480614D01*
X123366000Y-99492000D01*
X90634000Y-99492000D01*
X90565879Y-99471998D01*
X90519386Y-99418342D01*
X90508000Y-99366000D01*
X90508000Y-98000000D01*
X91786496Y-98000000D01*
X91787186Y-98006565D01*
X91805423Y-98180076D01*
X91806458Y-98189928D01*
X91865473Y-98371556D01*
X91960960Y-98536944D01*
X91965378Y-98541851D01*
X91965379Y-98541852D01*
X92079678Y-98668794D01*
X92088747Y-98678866D01*
X92127646Y-98707128D01*
X92226385Y-98778866D01*
X92243248Y-98791118D01*
X92249276Y-98793802D01*
X92249278Y-98793803D01*
X92411681Y-98866109D01*
X92417712Y-98868794D01*
X92504479Y-98887237D01*
X92598056Y-98907128D01*
X92598061Y-98907128D01*
X92604513Y-98908500D01*
X92795487Y-98908500D01*
X92801939Y-98907128D01*
X92801944Y-98907128D01*
X92895521Y-98887237D01*
X92982288Y-98868794D01*
X92988319Y-98866109D01*
X93150722Y-98793803D01*
X93150724Y-98793802D01*
X93156752Y-98791118D01*
X93173616Y-98778866D01*
X93272354Y-98707128D01*
X93311253Y-98678866D01*
X93320322Y-98668794D01*
X93434621Y-98541852D01*
X93434622Y-98541851D01*
X93439040Y-98536944D01*
X93534527Y-98371556D01*
X93593542Y-98189928D01*
X93595227Y-98190475D01*
X93618029Y-98144084D01*
X93635333Y-98123715D01*
X93638658Y-98117203D01*
X93642020Y-98112163D01*
X93645196Y-98107021D01*
X93649734Y-98101284D01*
X93680655Y-98035125D01*
X93682561Y-98031225D01*
X93695153Y-98006565D01*
X93715769Y-97966192D01*
X93717508Y-97959084D01*
X93719607Y-97953441D01*
X93721524Y-97947678D01*
X93724622Y-97941050D01*
X93739487Y-97869583D01*
X93740457Y-97865299D01*
X93757808Y-97794390D01*
X93758500Y-97783236D01*
X93758536Y-97783238D01*
X93758775Y-97779245D01*
X93759149Y-97775053D01*
X93760640Y-97767885D01*
X93758546Y-97690479D01*
X93758500Y-97687072D01*
X93758500Y-95336999D01*
X93775381Y-95273999D01*
X93831223Y-95177279D01*
X93831224Y-95177278D01*
X93834527Y-95171556D01*
X93893542Y-94989928D01*
X93913504Y-94800000D01*
X93901038Y-94681393D01*
X93894232Y-94616635D01*
X93894232Y-94616633D01*
X93893542Y-94610072D01*
X93834527Y-94428444D01*
X93775381Y-94326000D01*
X93758500Y-94263001D01*
X93758500Y-93900000D01*
X95586496Y-93900000D01*
X95587186Y-93906565D01*
X95605129Y-94077279D01*
X95606458Y-94089928D01*
X95665473Y-94271556D01*
X95760960Y-94436944D01*
X95765378Y-94441851D01*
X95765379Y-94441852D01*
X95884325Y-94573955D01*
X95888747Y-94578866D01*
X95894091Y-94582749D01*
X95898998Y-94587167D01*
X95897112Y-94589262D01*
X95932900Y-94635641D01*
X95941500Y-94681393D01*
X95941500Y-97463001D01*
X95924619Y-97526000D01*
X95865473Y-97628444D01*
X95806458Y-97810072D01*
X95805768Y-97816633D01*
X95805768Y-97816635D01*
X95796593Y-97903930D01*
X95786496Y-98000000D01*
X95787186Y-98006565D01*
X95805423Y-98180076D01*
X95806458Y-98189928D01*
X95865473Y-98371556D01*
X95960960Y-98536944D01*
X95965378Y-98541851D01*
X95965379Y-98541852D01*
X96079678Y-98668794D01*
X96088747Y-98678866D01*
X96127646Y-98707128D01*
X96226385Y-98778866D01*
X96243248Y-98791118D01*
X96249276Y-98793802D01*
X96249278Y-98793803D01*
X96411681Y-98866109D01*
X96417712Y-98868794D01*
X96504479Y-98887237D01*
X96598056Y-98907128D01*
X96598061Y-98907128D01*
X96604513Y-98908500D01*
X96795487Y-98908500D01*
X96801939Y-98907128D01*
X96801944Y-98907128D01*
X96895521Y-98887237D01*
X96982288Y-98868794D01*
X96988319Y-98866109D01*
X97150722Y-98793803D01*
X97150724Y-98793802D01*
X97156752Y-98791118D01*
X97173616Y-98778866D01*
X97272354Y-98707128D01*
X97311253Y-98678866D01*
X97320322Y-98668794D01*
X97434621Y-98541852D01*
X97434622Y-98541851D01*
X97439040Y-98536944D01*
X97534527Y-98371556D01*
X97593542Y-98189928D01*
X97594578Y-98180076D01*
X97612814Y-98006565D01*
X97613504Y-98000000D01*
X97603407Y-97903930D01*
X97594232Y-97816635D01*
X97594232Y-97816633D01*
X97593542Y-97810072D01*
X97534527Y-97628444D01*
X97475381Y-97526000D01*
X97458500Y-97463001D01*
X97458500Y-95900834D01*
X97739286Y-95900834D01*
X97739879Y-95908126D01*
X97739879Y-95908129D01*
X97743570Y-95953503D01*
X97743985Y-95963718D01*
X97743985Y-95971778D01*
X97744626Y-95977279D01*
X97747274Y-95999992D01*
X97747707Y-96004367D01*
X97753625Y-96077122D01*
X97755881Y-96084086D01*
X97757072Y-96090045D01*
X97758456Y-96095900D01*
X97759303Y-96103166D01*
X97784220Y-96171812D01*
X97785637Y-96175940D01*
X97808134Y-96245384D01*
X97811930Y-96251639D01*
X97814436Y-96257113D01*
X97817155Y-96262543D01*
X97819652Y-96269422D01*
X97823665Y-96275542D01*
X97823665Y-96275543D01*
X97859671Y-96330461D01*
X97862008Y-96334165D01*
X97899890Y-96396592D01*
X97903606Y-96400800D01*
X97903607Y-96400801D01*
X97907288Y-96404969D01*
X97907261Y-96404993D01*
X97909914Y-96407985D01*
X97912617Y-96411218D01*
X97916629Y-96417337D01*
X97970948Y-96468794D01*
X97972868Y-96470613D01*
X97975310Y-96472991D01*
X98167375Y-96665056D01*
X98198113Y-96715214D01*
X98252973Y-96884056D01*
X98348460Y-97049444D01*
X98476247Y-97191366D01*
X98554043Y-97247888D01*
X98621312Y-97296762D01*
X98630748Y-97303618D01*
X98636776Y-97306302D01*
X98636778Y-97306303D01*
X98681021Y-97326001D01*
X98805212Y-97381294D01*
X98898612Y-97401147D01*
X98985556Y-97419628D01*
X98985561Y-97419628D01*
X98992013Y-97421000D01*
X99182987Y-97421000D01*
X99189439Y-97419628D01*
X99189444Y-97419628D01*
X99276388Y-97401147D01*
X99369788Y-97381294D01*
X99493979Y-97326001D01*
X99538222Y-97306303D01*
X99538224Y-97306302D01*
X99544252Y-97303618D01*
X99553689Y-97296762D01*
X99620957Y-97247888D01*
X99698753Y-97191366D01*
X99826540Y-97049444D01*
X99922027Y-96884056D01*
X99981042Y-96702428D01*
X99988182Y-96634500D01*
X100000314Y-96519065D01*
X100001004Y-96512500D01*
X99997815Y-96482158D01*
X99981732Y-96329135D01*
X99981732Y-96329133D01*
X99981042Y-96322572D01*
X99922027Y-96140944D01*
X99826540Y-95975556D01*
X99817280Y-95965271D01*
X99703175Y-95838545D01*
X99703174Y-95838544D01*
X99698753Y-95833634D01*
X99544252Y-95721382D01*
X99538224Y-95718698D01*
X99538222Y-95718697D01*
X99375819Y-95646391D01*
X99375818Y-95646391D01*
X99369788Y-95643706D01*
X99360788Y-95641793D01*
X99359459Y-95641075D01*
X99357048Y-95640292D01*
X99357191Y-95639851D01*
X99298315Y-95608065D01*
X99263993Y-95545915D01*
X99260985Y-95518546D01*
X99260985Y-94237856D01*
X99280987Y-94169735D01*
X99334643Y-94123242D01*
X99404917Y-94113138D01*
X99469497Y-94142632D01*
X99476080Y-94148761D01*
X100979875Y-95652556D01*
X101010613Y-95702714D01*
X101065473Y-95871556D01*
X101068776Y-95877278D01*
X101068777Y-95877279D01*
X101078200Y-95893600D01*
X101160960Y-96036944D01*
X101165378Y-96041851D01*
X101165379Y-96041852D01*
X101208772Y-96090045D01*
X101288747Y-96178866D01*
X101370717Y-96238421D01*
X101426385Y-96278866D01*
X101443248Y-96291118D01*
X101449276Y-96293802D01*
X101449278Y-96293803D01*
X101531614Y-96330461D01*
X101617712Y-96368794D01*
X101704479Y-96387237D01*
X101798056Y-96407128D01*
X101798061Y-96407128D01*
X101804513Y-96408500D01*
X101915500Y-96408500D01*
X101983621Y-96428502D01*
X102030114Y-96482158D01*
X102041500Y-96534500D01*
X102041500Y-97318607D01*
X102021498Y-97386728D01*
X101997942Y-97411661D01*
X101998998Y-97412833D01*
X101994091Y-97417251D01*
X101988747Y-97421134D01*
X101860960Y-97563056D01*
X101765473Y-97728444D01*
X101706458Y-97910072D01*
X101705768Y-97916633D01*
X101705768Y-97916635D01*
X101698928Y-97981714D01*
X101686496Y-98100000D01*
X101687186Y-98106565D01*
X101696608Y-98196206D01*
X101706458Y-98289928D01*
X101765473Y-98471556D01*
X101860960Y-98636944D01*
X101988747Y-98778866D01*
X102143248Y-98891118D01*
X102149276Y-98893802D01*
X102149278Y-98893803D01*
X102311681Y-98966109D01*
X102317712Y-98968794D01*
X102411112Y-98988647D01*
X102498056Y-99007128D01*
X102498061Y-99007128D01*
X102504513Y-99008500D01*
X102695487Y-99008500D01*
X102701939Y-99007128D01*
X102701944Y-99007128D01*
X102788888Y-98988647D01*
X102882288Y-98968794D01*
X102888319Y-98966109D01*
X103050722Y-98893803D01*
X103050724Y-98893802D01*
X103056752Y-98891118D01*
X103211253Y-98778866D01*
X103339040Y-98636944D01*
X103434527Y-98471556D01*
X103476671Y-98341852D01*
X103491502Y-98296207D01*
X103491502Y-98296205D01*
X103493542Y-98289928D01*
X103501710Y-98212212D01*
X103511248Y-98180076D01*
X103509889Y-98179571D01*
X103512441Y-98172710D01*
X103515769Y-98166192D01*
X103517508Y-98159086D01*
X103519602Y-98153455D01*
X103521523Y-98147679D01*
X103524622Y-98141050D01*
X103530709Y-98111789D01*
X103539490Y-98069571D01*
X103540461Y-98065282D01*
X103545388Y-98045148D01*
X103557808Y-97994390D01*
X103558500Y-97983236D01*
X103558535Y-97983238D01*
X103558775Y-97979266D01*
X103559152Y-97975045D01*
X103560641Y-97967885D01*
X103558546Y-97890458D01*
X103558500Y-97887050D01*
X103558500Y-94436999D01*
X103575381Y-94373999D01*
X103631223Y-94277279D01*
X103631224Y-94277278D01*
X103634527Y-94271556D01*
X103693542Y-94089928D01*
X103694872Y-94077279D01*
X103712814Y-93906565D01*
X103713504Y-93900000D01*
X103705678Y-93825541D01*
X103694232Y-93716635D01*
X103694232Y-93716633D01*
X103693542Y-93710072D01*
X103634527Y-93528444D01*
X103630881Y-93522128D01*
X103588345Y-93448455D01*
X103539040Y-93363056D01*
X103526958Y-93349637D01*
X103415675Y-93226045D01*
X103415674Y-93226044D01*
X103411253Y-93221134D01*
X103256752Y-93108882D01*
X103250724Y-93106198D01*
X103250722Y-93106197D01*
X103088319Y-93033891D01*
X103088318Y-93033891D01*
X103082288Y-93031206D01*
X102988888Y-93011353D01*
X102901944Y-92992872D01*
X102901939Y-92992872D01*
X102895487Y-92991500D01*
X102704513Y-92991500D01*
X102698061Y-92992872D01*
X102698056Y-92992872D01*
X102611112Y-93011353D01*
X102517712Y-93031206D01*
X102511682Y-93033891D01*
X102511681Y-93033891D01*
X102349278Y-93106197D01*
X102349276Y-93106198D01*
X102343248Y-93108882D01*
X102188747Y-93221134D01*
X102184326Y-93226044D01*
X102184325Y-93226045D01*
X102073043Y-93349637D01*
X102060960Y-93363056D01*
X102011655Y-93448455D01*
X101969120Y-93522128D01*
X101965473Y-93528444D01*
X101906458Y-93710072D01*
X101905768Y-93716633D01*
X101905768Y-93716635D01*
X101894322Y-93825541D01*
X101886496Y-93900000D01*
X101887186Y-93906565D01*
X101905129Y-94077279D01*
X101906458Y-94089928D01*
X101909775Y-94100137D01*
X101909844Y-94102537D01*
X101909871Y-94102666D01*
X101909847Y-94102671D01*
X101911801Y-94171103D01*
X101875138Y-94231900D01*
X101811425Y-94263225D01*
X101740892Y-94255131D01*
X101700846Y-94228165D01*
X100147401Y-92674720D01*
X100113375Y-92612408D01*
X100110496Y-92585625D01*
X100110496Y-91534058D01*
X100127377Y-91471058D01*
X100183219Y-91374338D01*
X100183220Y-91374337D01*
X100186523Y-91368615D01*
X100245538Y-91186987D01*
X100265191Y-91000000D01*
X105086496Y-91000000D01*
X105106458Y-91189928D01*
X105165473Y-91371556D01*
X105168776Y-91377278D01*
X105168777Y-91377279D01*
X105224619Y-91473999D01*
X105241500Y-91536999D01*
X105241500Y-92932930D01*
X105240067Y-92951880D01*
X105236801Y-92973349D01*
X105237394Y-92980641D01*
X105237394Y-92980644D01*
X105241085Y-93026018D01*
X105241500Y-93036233D01*
X105241500Y-93044293D01*
X105241925Y-93047937D01*
X105244789Y-93072507D01*
X105245222Y-93076882D01*
X105248141Y-93112763D01*
X105251140Y-93149637D01*
X105253396Y-93156601D01*
X105254587Y-93162560D01*
X105255971Y-93168415D01*
X105256818Y-93175681D01*
X105281735Y-93244327D01*
X105283152Y-93248455D01*
X105305649Y-93317899D01*
X105309445Y-93324154D01*
X105311951Y-93329628D01*
X105314670Y-93335058D01*
X105317167Y-93341937D01*
X105321180Y-93348057D01*
X105321180Y-93348058D01*
X105357186Y-93402976D01*
X105359523Y-93406680D01*
X105397405Y-93469107D01*
X105401121Y-93473315D01*
X105401122Y-93473316D01*
X105404803Y-93477484D01*
X105404776Y-93477508D01*
X105407429Y-93480500D01*
X105410132Y-93483733D01*
X105414144Y-93489852D01*
X105435489Y-93510072D01*
X105470383Y-93543128D01*
X105472825Y-93545506D01*
X107679875Y-95752556D01*
X107710613Y-95802714D01*
X107765473Y-95971556D01*
X107768776Y-95977278D01*
X107768777Y-95977279D01*
X107783152Y-96002177D01*
X107860960Y-96136944D01*
X107865378Y-96141851D01*
X107865379Y-96141852D01*
X107984325Y-96273955D01*
X107988747Y-96278866D01*
X108143248Y-96391118D01*
X108149276Y-96393802D01*
X108149278Y-96393803D01*
X108182394Y-96408547D01*
X108317712Y-96468794D01*
X108411113Y-96488647D01*
X108498056Y-96507128D01*
X108498061Y-96507128D01*
X108504513Y-96508500D01*
X108565011Y-96508500D01*
X108633132Y-96528502D01*
X108679625Y-96582158D01*
X108691011Y-96634500D01*
X108691011Y-97109980D01*
X108671009Y-97178101D01*
X108639072Y-97211916D01*
X108488747Y-97321134D01*
X108360960Y-97463056D01*
X108265473Y-97628444D01*
X108206458Y-97810072D01*
X108205768Y-97816633D01*
X108205768Y-97816635D01*
X108196593Y-97903930D01*
X108186496Y-98000000D01*
X108187186Y-98006565D01*
X108205423Y-98180076D01*
X108206458Y-98189928D01*
X108265473Y-98371556D01*
X108360960Y-98536944D01*
X108365378Y-98541851D01*
X108365379Y-98541852D01*
X108479678Y-98668794D01*
X108488747Y-98678866D01*
X108527646Y-98707128D01*
X108626385Y-98778866D01*
X108643248Y-98791118D01*
X108649276Y-98793802D01*
X108649278Y-98793803D01*
X108811681Y-98866109D01*
X108817712Y-98868794D01*
X108904479Y-98887237D01*
X108998056Y-98907128D01*
X108998061Y-98907128D01*
X109004513Y-98908500D01*
X109195487Y-98908500D01*
X109201939Y-98907128D01*
X109201944Y-98907128D01*
X109295521Y-98887237D01*
X109382288Y-98868794D01*
X109388319Y-98866109D01*
X109550722Y-98793803D01*
X109550724Y-98793802D01*
X109556752Y-98791118D01*
X109573616Y-98778866D01*
X109672354Y-98707128D01*
X109711253Y-98678866D01*
X109720322Y-98668794D01*
X109834621Y-98541852D01*
X109834622Y-98541851D01*
X109839040Y-98536944D01*
X109934527Y-98371556D01*
X109989574Y-98202140D01*
X110015177Y-98157504D01*
X110017171Y-98155510D01*
X110019444Y-98152637D01*
X110019452Y-98152628D01*
X110034792Y-98133238D01*
X110037583Y-98129834D01*
X110080102Y-98079786D01*
X110080103Y-98079784D01*
X110084844Y-98074204D01*
X110088172Y-98067688D01*
X110091539Y-98062639D01*
X110094706Y-98057510D01*
X110099245Y-98051773D01*
X110130166Y-97985614D01*
X110132072Y-97981714D01*
X110136670Y-97972710D01*
X110165280Y-97916681D01*
X110167019Y-97909573D01*
X110169118Y-97903930D01*
X110171035Y-97898167D01*
X110174133Y-97891539D01*
X110188998Y-97820072D01*
X110189968Y-97815788D01*
X110195438Y-97793435D01*
X110207319Y-97744879D01*
X110208011Y-97733725D01*
X110208047Y-97733727D01*
X110208286Y-97729734D01*
X110208660Y-97725542D01*
X110210151Y-97718374D01*
X110208057Y-97640968D01*
X110208011Y-97637561D01*
X110208011Y-94216581D01*
X110209444Y-94197631D01*
X110211610Y-94183396D01*
X110211610Y-94183392D01*
X110212710Y-94176162D01*
X110211971Y-94167070D01*
X110208426Y-94123493D01*
X110208011Y-94113278D01*
X110208011Y-94105218D01*
X110207419Y-94100135D01*
X110204722Y-94077008D01*
X110204289Y-94072632D01*
X110198371Y-93999875D01*
X110196116Y-93992914D01*
X110194929Y-93986974D01*
X110193540Y-93981099D01*
X110192693Y-93973830D01*
X110167775Y-93905181D01*
X110166358Y-93901053D01*
X110146118Y-93838575D01*
X110146117Y-93838573D01*
X110143862Y-93831612D01*
X110140066Y-93825357D01*
X110137560Y-93819883D01*
X110134841Y-93814453D01*
X110132344Y-93807574D01*
X110092325Y-93746535D01*
X110089978Y-93742816D01*
X110085654Y-93735690D01*
X110052106Y-93680404D01*
X110044708Y-93672027D01*
X110044735Y-93672003D01*
X110042082Y-93669011D01*
X110039379Y-93665778D01*
X110035367Y-93659659D01*
X109979128Y-93606383D01*
X109976686Y-93604005D01*
X109820125Y-93447444D01*
X109789387Y-93397285D01*
X109782368Y-93375681D01*
X109734527Y-93228444D01*
X109639040Y-93063056D01*
X109614889Y-93036233D01*
X109515675Y-92926045D01*
X109515674Y-92926044D01*
X109511253Y-92921134D01*
X109356752Y-92808882D01*
X109350724Y-92806198D01*
X109350722Y-92806197D01*
X109188319Y-92733891D01*
X109188318Y-92733891D01*
X109182288Y-92731206D01*
X109088887Y-92711353D01*
X109001944Y-92692872D01*
X109001939Y-92692872D01*
X108995487Y-92691500D01*
X108804513Y-92691500D01*
X108798061Y-92692872D01*
X108798056Y-92692872D01*
X108711113Y-92711353D01*
X108617712Y-92731206D01*
X108611682Y-92733891D01*
X108611681Y-92733891D01*
X108449278Y-92806197D01*
X108449276Y-92806198D01*
X108443248Y-92808882D01*
X108288747Y-92921134D01*
X108284326Y-92926044D01*
X108284325Y-92926045D01*
X108185112Y-93036233D01*
X108160960Y-93063056D01*
X108065473Y-93228444D01*
X108006458Y-93410072D01*
X108005768Y-93416633D01*
X108005768Y-93416635D01*
X107994618Y-93522721D01*
X107986496Y-93600000D01*
X107987186Y-93606565D01*
X107987186Y-93610315D01*
X107967184Y-93678436D01*
X107913528Y-93724929D01*
X107843254Y-93735033D01*
X107778674Y-93705539D01*
X107772091Y-93699410D01*
X106795405Y-92722724D01*
X106761379Y-92660412D01*
X106758500Y-92633629D01*
X106758500Y-91536999D01*
X106775381Y-91473999D01*
X106831223Y-91377279D01*
X106831224Y-91377278D01*
X106834527Y-91371556D01*
X106893542Y-91189928D01*
X106913504Y-91000000D01*
X110886496Y-91000000D01*
X110906458Y-91189928D01*
X110965473Y-91371556D01*
X110968776Y-91377278D01*
X110968777Y-91377279D01*
X111024619Y-91473999D01*
X111041500Y-91536999D01*
X111041500Y-93132930D01*
X111040067Y-93151880D01*
X111038367Y-93163056D01*
X111036801Y-93173349D01*
X111037394Y-93180641D01*
X111037394Y-93180644D01*
X111041085Y-93226018D01*
X111041500Y-93236233D01*
X111041500Y-93244293D01*
X111041925Y-93247937D01*
X111044789Y-93272507D01*
X111045222Y-93276882D01*
X111050514Y-93341937D01*
X111051140Y-93349637D01*
X111053396Y-93356601D01*
X111054587Y-93362560D01*
X111055971Y-93368415D01*
X111056818Y-93375681D01*
X111081735Y-93444327D01*
X111083152Y-93448455D01*
X111101080Y-93503794D01*
X111105649Y-93517899D01*
X111109445Y-93524154D01*
X111111951Y-93529628D01*
X111114670Y-93535058D01*
X111117167Y-93541937D01*
X111121180Y-93548057D01*
X111121180Y-93548058D01*
X111157186Y-93602976D01*
X111159523Y-93606680D01*
X111197405Y-93669107D01*
X111201121Y-93673315D01*
X111201122Y-93673316D01*
X111204803Y-93677484D01*
X111204776Y-93677508D01*
X111207429Y-93680500D01*
X111210132Y-93683733D01*
X111214144Y-93689852D01*
X111231787Y-93706565D01*
X111270383Y-93743128D01*
X111272825Y-93745506D01*
X113104875Y-95577556D01*
X113135613Y-95627714D01*
X113190473Y-95796556D01*
X113285960Y-95961944D01*
X113290378Y-95966851D01*
X113290379Y-95966852D01*
X113409325Y-96098955D01*
X113413747Y-96103866D01*
X113466030Y-96141852D01*
X113547622Y-96201132D01*
X113568248Y-96216118D01*
X113574276Y-96218802D01*
X113574278Y-96218803D01*
X113736681Y-96291109D01*
X113742712Y-96293794D01*
X113836113Y-96313647D01*
X113923056Y-96332128D01*
X113923061Y-96332128D01*
X113929513Y-96333500D01*
X114120487Y-96333500D01*
X114126939Y-96332128D01*
X114126944Y-96332128D01*
X114213887Y-96313647D01*
X114307288Y-96293794D01*
X114313319Y-96291109D01*
X114475722Y-96218803D01*
X114475724Y-96218802D01*
X114481752Y-96216118D01*
X114502379Y-96201132D01*
X114583970Y-96141852D01*
X114636253Y-96103866D01*
X114636900Y-96104757D01*
X114695190Y-96076780D01*
X114765644Y-96085540D01*
X114820178Y-96131000D01*
X114841500Y-96201132D01*
X114841500Y-97263001D01*
X114824619Y-97326000D01*
X114765473Y-97428444D01*
X114706458Y-97610072D01*
X114705768Y-97616633D01*
X114705768Y-97616635D01*
X114704527Y-97628444D01*
X114686496Y-97800000D01*
X114687186Y-97806565D01*
X114705755Y-97983236D01*
X114706458Y-97989928D01*
X114765473Y-98171556D01*
X114768776Y-98177278D01*
X114768777Y-98177279D01*
X114776080Y-98189928D01*
X114860960Y-98336944D01*
X114988747Y-98478866D01*
X115143248Y-98591118D01*
X115149276Y-98593802D01*
X115149278Y-98593803D01*
X115233332Y-98631226D01*
X115317712Y-98668794D01*
X115383365Y-98682749D01*
X115498056Y-98707128D01*
X115498061Y-98707128D01*
X115504513Y-98708500D01*
X115695487Y-98708500D01*
X115701939Y-98707128D01*
X115701944Y-98707128D01*
X115816635Y-98682749D01*
X115882288Y-98668794D01*
X115966668Y-98631226D01*
X116050722Y-98593803D01*
X116050724Y-98593802D01*
X116056752Y-98591118D01*
X116211253Y-98478866D01*
X116339040Y-98336944D01*
X116423920Y-98189928D01*
X116431223Y-98177279D01*
X116431224Y-98177278D01*
X116434527Y-98171556D01*
X116493542Y-97989928D01*
X116494246Y-97983236D01*
X116512814Y-97806565D01*
X116513504Y-97800000D01*
X116495473Y-97628444D01*
X116494232Y-97616635D01*
X116494232Y-97616633D01*
X116493542Y-97610072D01*
X116434527Y-97428444D01*
X116375381Y-97326000D01*
X116358500Y-97263001D01*
X116358500Y-94267070D01*
X116359933Y-94248120D01*
X116362099Y-94233885D01*
X116362099Y-94233881D01*
X116363199Y-94226651D01*
X116358915Y-94173982D01*
X116358500Y-94163767D01*
X116358500Y-94155707D01*
X116357691Y-94148761D01*
X116355211Y-94127497D01*
X116354778Y-94123121D01*
X116354393Y-94118391D01*
X116348860Y-94050364D01*
X116346605Y-94043403D01*
X116345418Y-94037463D01*
X116344029Y-94031588D01*
X116343182Y-94024319D01*
X116318264Y-93955670D01*
X116316847Y-93951542D01*
X116296607Y-93889064D01*
X116296606Y-93889062D01*
X116294351Y-93882101D01*
X116290555Y-93875846D01*
X116288049Y-93870372D01*
X116285330Y-93864942D01*
X116282833Y-93858063D01*
X116265491Y-93831612D01*
X116242814Y-93797024D01*
X116240467Y-93793305D01*
X116238418Y-93789928D01*
X116202595Y-93730893D01*
X116195197Y-93722516D01*
X116195224Y-93722492D01*
X116192571Y-93719500D01*
X116189868Y-93716267D01*
X116185856Y-93710148D01*
X116129617Y-93656872D01*
X116127175Y-93654494D01*
X116020125Y-93547444D01*
X115989387Y-93497285D01*
X115980232Y-93469107D01*
X115934527Y-93328444D01*
X115839040Y-93163056D01*
X115826958Y-93149637D01*
X115715675Y-93026045D01*
X115715674Y-93026044D01*
X115711253Y-93021134D01*
X115575804Y-92922724D01*
X115562094Y-92912763D01*
X115562093Y-92912762D01*
X115556752Y-92908882D01*
X115550724Y-92906198D01*
X115550722Y-92906197D01*
X115388319Y-92833891D01*
X115388318Y-92833891D01*
X115382288Y-92831206D01*
X115288887Y-92811353D01*
X115201944Y-92792872D01*
X115201939Y-92792872D01*
X115195487Y-92791500D01*
X115004513Y-92791500D01*
X114998061Y-92792872D01*
X114998056Y-92792872D01*
X114911112Y-92811353D01*
X114817712Y-92831206D01*
X114811682Y-92833891D01*
X114811681Y-92833891D01*
X114649278Y-92906197D01*
X114649276Y-92906198D01*
X114643248Y-92908882D01*
X114637907Y-92912762D01*
X114637906Y-92912763D01*
X114624196Y-92922724D01*
X114488747Y-93021134D01*
X114484326Y-93026044D01*
X114484325Y-93026045D01*
X114373043Y-93149637D01*
X114360960Y-93163056D01*
X114265473Y-93328444D01*
X114206458Y-93510072D01*
X114205768Y-93516633D01*
X114205768Y-93516635D01*
X114188486Y-93681062D01*
X114186496Y-93700000D01*
X114187186Y-93706565D01*
X114204432Y-93870648D01*
X114206458Y-93889928D01*
X114265473Y-94071556D01*
X114360960Y-94236944D01*
X114365378Y-94241851D01*
X114365379Y-94241852D01*
X114480040Y-94369196D01*
X114510758Y-94433203D01*
X114501993Y-94503657D01*
X114456530Y-94558188D01*
X114388803Y-94579483D01*
X114335156Y-94568613D01*
X114313323Y-94558892D01*
X114313315Y-94558889D01*
X114307288Y-94556206D01*
X114300833Y-94554834D01*
X114300824Y-94554831D01*
X114244228Y-94542801D01*
X114181331Y-94508650D01*
X112595405Y-92922724D01*
X112561379Y-92860412D01*
X112558500Y-92833629D01*
X112558500Y-91536999D01*
X112575381Y-91473999D01*
X112631223Y-91377279D01*
X112631224Y-91377278D01*
X112634527Y-91371556D01*
X112693542Y-91189928D01*
X112713504Y-91000000D01*
X112693542Y-90810072D01*
X112634527Y-90628444D01*
X112604996Y-90577294D01*
X112548753Y-90479880D01*
X112539040Y-90463056D01*
X112492541Y-90411413D01*
X112415675Y-90326045D01*
X112415674Y-90326044D01*
X112411253Y-90321134D01*
X112256752Y-90208882D01*
X112250724Y-90206198D01*
X112250722Y-90206197D01*
X112088319Y-90133891D01*
X112088318Y-90133891D01*
X112082288Y-90131206D01*
X111988888Y-90111353D01*
X111901944Y-90092872D01*
X111901939Y-90092872D01*
X111895487Y-90091500D01*
X111704513Y-90091500D01*
X111698061Y-90092872D01*
X111698056Y-90092872D01*
X111611112Y-90111353D01*
X111517712Y-90131206D01*
X111511682Y-90133891D01*
X111511681Y-90133891D01*
X111349278Y-90206197D01*
X111349276Y-90206198D01*
X111343248Y-90208882D01*
X111188747Y-90321134D01*
X111184326Y-90326044D01*
X111184325Y-90326045D01*
X111107460Y-90411413D01*
X111060960Y-90463056D01*
X111051247Y-90479880D01*
X110995005Y-90577294D01*
X110965473Y-90628444D01*
X110906458Y-90810072D01*
X110886496Y-91000000D01*
X106913504Y-91000000D01*
X106893542Y-90810072D01*
X106834527Y-90628444D01*
X106804996Y-90577294D01*
X106748753Y-90479880D01*
X106739040Y-90463056D01*
X106692541Y-90411413D01*
X106615675Y-90326045D01*
X106615674Y-90326044D01*
X106611253Y-90321134D01*
X106456752Y-90208882D01*
X106450724Y-90206198D01*
X106450722Y-90206197D01*
X106288319Y-90133891D01*
X106288318Y-90133891D01*
X106282288Y-90131206D01*
X106188888Y-90111353D01*
X106101944Y-90092872D01*
X106101939Y-90092872D01*
X106095487Y-90091500D01*
X105904513Y-90091500D01*
X105898061Y-90092872D01*
X105898056Y-90092872D01*
X105811112Y-90111353D01*
X105717712Y-90131206D01*
X105711682Y-90133891D01*
X105711681Y-90133891D01*
X105549278Y-90206197D01*
X105549276Y-90206198D01*
X105543248Y-90208882D01*
X105388747Y-90321134D01*
X105384326Y-90326044D01*
X105384325Y-90326045D01*
X105307460Y-90411413D01*
X105260960Y-90463056D01*
X105251247Y-90479880D01*
X105195005Y-90577294D01*
X105165473Y-90628444D01*
X105106458Y-90810072D01*
X105086496Y-91000000D01*
X100265191Y-91000000D01*
X100265500Y-90997059D01*
X100245538Y-90807131D01*
X100186523Y-90625503D01*
X100158690Y-90577294D01*
X100141488Y-90547500D01*
X100124750Y-90478505D01*
X100147970Y-90411413D01*
X100203778Y-90367526D01*
X100250607Y-90358500D01*
X102732930Y-90358500D01*
X102751880Y-90359933D01*
X102766115Y-90362099D01*
X102766119Y-90362099D01*
X102773349Y-90363199D01*
X102780641Y-90362606D01*
X102780644Y-90362606D01*
X102826018Y-90358915D01*
X102836233Y-90358500D01*
X102844293Y-90358500D01*
X102857583Y-90356951D01*
X102872507Y-90355211D01*
X102876882Y-90354778D01*
X102942339Y-90349454D01*
X102942342Y-90349453D01*
X102949637Y-90348860D01*
X102956601Y-90346604D01*
X102962560Y-90345413D01*
X102968415Y-90344029D01*
X102975681Y-90343182D01*
X103044327Y-90318265D01*
X103048455Y-90316848D01*
X103110936Y-90296607D01*
X103110938Y-90296606D01*
X103117899Y-90294351D01*
X103124154Y-90290555D01*
X103129628Y-90288049D01*
X103135058Y-90285330D01*
X103141937Y-90282833D01*
X103202976Y-90242814D01*
X103206680Y-90240477D01*
X103269107Y-90202595D01*
X103277484Y-90195197D01*
X103277508Y-90195224D01*
X103280500Y-90192571D01*
X103283733Y-90189868D01*
X103289852Y-90185856D01*
X103343128Y-90129617D01*
X103345506Y-90127175D01*
X108556331Y-84916350D01*
X108619228Y-84882199D01*
X108675824Y-84870169D01*
X108675833Y-84870166D01*
X108682288Y-84868794D01*
X108688319Y-84866109D01*
X108850722Y-84793803D01*
X108850724Y-84793802D01*
X108856752Y-84791118D01*
X109011253Y-84678866D01*
X109139040Y-84536944D01*
X109234527Y-84371556D01*
X109293542Y-84189928D01*
X109313504Y-84000000D01*
X109293542Y-83810072D01*
X109234527Y-83628444D01*
X109139040Y-83463056D01*
X109063142Y-83378762D01*
X109015675Y-83326045D01*
X109015674Y-83326044D01*
X109011253Y-83321134D01*
X108856752Y-83208882D01*
X108850724Y-83206198D01*
X108850722Y-83206197D01*
X108688319Y-83133891D01*
X108688318Y-83133891D01*
X108682288Y-83131206D01*
X108588888Y-83111353D01*
X108501944Y-83092872D01*
X108501939Y-83092872D01*
X108495487Y-83091500D01*
X108304513Y-83091500D01*
X108298061Y-83092872D01*
X108298056Y-83092872D01*
X108211112Y-83111353D01*
X108117712Y-83131206D01*
X108111682Y-83133891D01*
X108111681Y-83133891D01*
X107949278Y-83206197D01*
X107949276Y-83206198D01*
X107943248Y-83208882D01*
X107788747Y-83321134D01*
X107784326Y-83326044D01*
X107784325Y-83326045D01*
X107736859Y-83378762D01*
X107660960Y-83463056D01*
X107565473Y-83628444D01*
X107563431Y-83634729D01*
X107510613Y-83797285D01*
X107479875Y-83847444D01*
X102522724Y-88804595D01*
X102460412Y-88838621D01*
X102433629Y-88841500D01*
X99614733Y-88841500D01*
X99595785Y-88840067D01*
X99588444Y-88838950D01*
X99581547Y-88837901D01*
X99581545Y-88837901D01*
X99574315Y-88836801D01*
X99567023Y-88837394D01*
X99567020Y-88837394D01*
X99521646Y-88841085D01*
X99511431Y-88841500D01*
X99503371Y-88841500D01*
X99490081Y-88843049D01*
X99475157Y-88844789D01*
X99470782Y-88845222D01*
X99405325Y-88850546D01*
X99405322Y-88850547D01*
X99398027Y-88851140D01*
X99391063Y-88853396D01*
X99385104Y-88854587D01*
X99379249Y-88855971D01*
X99371983Y-88856818D01*
X99303337Y-88881735D01*
X99299209Y-88883152D01*
X99236728Y-88903393D01*
X99236726Y-88903394D01*
X99229765Y-88905649D01*
X99223510Y-88909445D01*
X99218036Y-88911951D01*
X99212606Y-88914670D01*
X99205727Y-88917167D01*
X99144680Y-88957191D01*
X99140991Y-88959518D01*
X99120799Y-88971771D01*
X99083357Y-88994491D01*
X99083352Y-88994495D01*
X99078556Y-88997405D01*
X99070180Y-89004803D01*
X99070157Y-89004777D01*
X99067167Y-89007426D01*
X99063928Y-89010134D01*
X99057812Y-89014144D01*
X99052785Y-89019451D01*
X99052781Y-89019454D01*
X99004536Y-89070383D01*
X99002158Y-89072825D01*
X98013574Y-90061409D01*
X97999162Y-90073795D01*
X97987567Y-90082328D01*
X97987562Y-90082333D01*
X97981667Y-90086671D01*
X97976928Y-90092249D01*
X97976925Y-90092252D01*
X97947450Y-90126947D01*
X97940520Y-90134463D01*
X97934825Y-90140158D01*
X97932545Y-90143040D01*
X97917204Y-90162430D01*
X97914413Y-90165834D01*
X97880710Y-90205505D01*
X97867152Y-90221464D01*
X97863824Y-90227980D01*
X97860457Y-90233029D01*
X97857290Y-90238158D01*
X97852751Y-90243895D01*
X97821830Y-90310054D01*
X97819927Y-90313948D01*
X97786716Y-90378987D01*
X97784977Y-90386095D01*
X97782878Y-90391738D01*
X97780961Y-90397501D01*
X97777863Y-90404129D01*
X97776373Y-90411291D01*
X97776373Y-90411292D01*
X97762999Y-90475591D01*
X97762029Y-90479875D01*
X97744677Y-90550789D01*
X97743985Y-90561943D01*
X97743949Y-90561941D01*
X97743710Y-90565934D01*
X97743336Y-90570126D01*
X97741845Y-90577294D01*
X97742043Y-90584611D01*
X97743939Y-90654700D01*
X97743985Y-90658107D01*
X97743985Y-95860415D01*
X97742552Y-95879365D01*
X97739286Y-95900834D01*
X97458500Y-95900834D01*
X97458500Y-94167070D01*
X97459933Y-94148120D01*
X97462099Y-94133885D01*
X97462099Y-94133881D01*
X97463199Y-94126651D01*
X97462528Y-94118391D01*
X97458915Y-94073982D01*
X97458500Y-94063767D01*
X97458500Y-94055707D01*
X97455209Y-94027480D01*
X97454778Y-94023121D01*
X97451838Y-93986974D01*
X97448860Y-93950364D01*
X97446605Y-93943403D01*
X97445418Y-93937463D01*
X97444029Y-93931588D01*
X97443182Y-93924319D01*
X97418264Y-93855670D01*
X97416846Y-93851540D01*
X97408424Y-93825541D01*
X97402982Y-93799883D01*
X97394232Y-93716636D01*
X97394232Y-93716635D01*
X97393542Y-93710072D01*
X97390270Y-93700000D01*
X97340900Y-93548058D01*
X97334527Y-93528444D01*
X97330881Y-93522128D01*
X97288345Y-93448455D01*
X97239040Y-93363056D01*
X97226958Y-93349637D01*
X97115675Y-93226045D01*
X97115674Y-93226044D01*
X97111253Y-93221134D01*
X96956752Y-93108882D01*
X96950724Y-93106198D01*
X96950722Y-93106197D01*
X96788319Y-93033891D01*
X96788318Y-93033891D01*
X96782288Y-93031206D01*
X96688888Y-93011353D01*
X96601944Y-92992872D01*
X96601939Y-92992872D01*
X96595487Y-92991500D01*
X96404513Y-92991500D01*
X96398061Y-92992872D01*
X96398056Y-92992872D01*
X96311112Y-93011353D01*
X96217712Y-93031206D01*
X96211682Y-93033891D01*
X96211681Y-93033891D01*
X96049278Y-93106197D01*
X96049276Y-93106198D01*
X96043248Y-93108882D01*
X95888747Y-93221134D01*
X95884326Y-93226044D01*
X95884325Y-93226045D01*
X95773043Y-93349637D01*
X95760960Y-93363056D01*
X95711655Y-93448455D01*
X95669120Y-93522128D01*
X95665473Y-93528444D01*
X95606458Y-93710072D01*
X95605768Y-93716633D01*
X95605768Y-93716635D01*
X95594322Y-93825541D01*
X95586496Y-93900000D01*
X93758500Y-93900000D01*
X93758500Y-87966371D01*
X93778502Y-87898250D01*
X93795405Y-87877276D01*
X96756330Y-84916350D01*
X96819228Y-84882198D01*
X96841695Y-84877422D01*
X96882288Y-84868794D01*
X96888319Y-84866109D01*
X97050722Y-84793803D01*
X97050724Y-84793802D01*
X97056752Y-84791118D01*
X97211253Y-84678866D01*
X97339040Y-84536944D01*
X97434527Y-84371556D01*
X97493542Y-84189928D01*
X97513504Y-84000000D01*
X97493542Y-83810072D01*
X97434527Y-83628444D01*
X97339040Y-83463056D01*
X97263142Y-83378762D01*
X97215675Y-83326045D01*
X97215674Y-83326044D01*
X97211253Y-83321134D01*
X97056752Y-83208882D01*
X97050724Y-83206198D01*
X97050722Y-83206197D01*
X96888319Y-83133891D01*
X96888318Y-83133891D01*
X96882288Y-83131206D01*
X96788888Y-83111353D01*
X96701944Y-83092872D01*
X96701939Y-83092872D01*
X96695487Y-83091500D01*
X96504513Y-83091500D01*
X96498061Y-83092872D01*
X96498056Y-83092872D01*
X96411112Y-83111353D01*
X96317712Y-83131206D01*
X96311682Y-83133891D01*
X96311681Y-83133891D01*
X96149278Y-83206197D01*
X96149276Y-83206198D01*
X96143248Y-83208882D01*
X95988747Y-83321134D01*
X95984326Y-83326044D01*
X95984325Y-83326045D01*
X95936859Y-83378762D01*
X95860960Y-83463056D01*
X95765473Y-83628444D01*
X95763431Y-83634729D01*
X95710613Y-83797285D01*
X95679875Y-83847444D01*
X92511089Y-87016230D01*
X92496677Y-87028616D01*
X92485082Y-87037149D01*
X92485077Y-87037154D01*
X92479182Y-87041492D01*
X92474443Y-87047070D01*
X92474440Y-87047073D01*
X92444965Y-87081768D01*
X92438035Y-87089284D01*
X92432340Y-87094979D01*
X92430060Y-87097861D01*
X92414719Y-87117251D01*
X92411928Y-87120655D01*
X92369409Y-87170703D01*
X92364667Y-87176285D01*
X92361339Y-87182801D01*
X92357972Y-87187850D01*
X92354805Y-87192979D01*
X92350266Y-87198716D01*
X92319345Y-87264875D01*
X92317442Y-87268769D01*
X92284231Y-87333808D01*
X92282492Y-87340916D01*
X92280393Y-87346559D01*
X92278476Y-87352322D01*
X92275378Y-87358950D01*
X92273888Y-87366112D01*
X92273888Y-87366113D01*
X92260514Y-87430412D01*
X92259544Y-87434696D01*
X92242192Y-87505610D01*
X92241500Y-87516764D01*
X92241464Y-87516762D01*
X92241225Y-87520755D01*
X92240851Y-87524947D01*
X92239360Y-87532115D01*
X92239558Y-87539432D01*
X92241454Y-87609521D01*
X92241500Y-87612928D01*
X92241500Y-94263001D01*
X92224619Y-94326000D01*
X92165473Y-94428444D01*
X92106458Y-94610072D01*
X92105768Y-94616633D01*
X92105768Y-94616635D01*
X92098962Y-94681393D01*
X92086496Y-94800000D01*
X92106458Y-94989928D01*
X92165473Y-95171556D01*
X92168776Y-95177278D01*
X92168777Y-95177279D01*
X92224619Y-95273999D01*
X92241500Y-95336999D01*
X92241500Y-97145952D01*
X92221498Y-97214073D01*
X92189561Y-97247888D01*
X92088747Y-97321134D01*
X91960960Y-97463056D01*
X91865473Y-97628444D01*
X91806458Y-97810072D01*
X91805768Y-97816633D01*
X91805768Y-97816635D01*
X91796593Y-97903930D01*
X91786496Y-98000000D01*
X90508000Y-98000000D01*
X90508000Y-81710058D01*
X90773812Y-81710058D01*
X90773925Y-81714836D01*
X90777939Y-81885164D01*
X90779954Y-81970685D01*
X90780788Y-81975390D01*
X90812284Y-82153104D01*
X90825448Y-82227384D01*
X90909247Y-82474248D01*
X91029423Y-82705596D01*
X91183210Y-82916104D01*
X91367069Y-83100929D01*
X91370908Y-83103764D01*
X91370912Y-83103768D01*
X91572926Y-83252977D01*
X91572930Y-83252980D01*
X91576769Y-83255815D01*
X91581001Y-83258041D01*
X91581000Y-83258041D01*
X91738433Y-83340871D01*
X91807484Y-83377201D01*
X91812005Y-83378762D01*
X92041908Y-83458148D01*
X92053906Y-83462291D01*
X92058612Y-83463150D01*
X92058614Y-83463151D01*
X92089403Y-83468774D01*
X92310363Y-83509129D01*
X92393770Y-83513500D01*
X92556295Y-83513500D01*
X92558674Y-83513319D01*
X92558675Y-83513319D01*
X92745181Y-83499132D01*
X92745186Y-83499131D01*
X92749948Y-83498769D01*
X92754601Y-83497690D01*
X92754604Y-83497690D01*
X92999250Y-83440984D01*
X92999249Y-83440984D01*
X93003914Y-83439903D01*
X93246054Y-83343299D01*
X93470796Y-83211180D01*
X93672967Y-83046587D01*
X93847915Y-82853307D01*
X93991615Y-82635788D01*
X94068174Y-82469720D01*
X94098753Y-82403388D01*
X94098754Y-82403385D01*
X94100759Y-82399036D01*
X94172837Y-82148499D01*
X94206188Y-81889942D01*
X94202932Y-81751780D01*
X94201949Y-81710058D01*
X119073812Y-81710058D01*
X119073925Y-81714836D01*
X119077939Y-81885164D01*
X119079954Y-81970685D01*
X119080788Y-81975390D01*
X119112284Y-82153104D01*
X119125448Y-82227384D01*
X119209247Y-82474248D01*
X119329423Y-82705596D01*
X119483210Y-82916104D01*
X119667069Y-83100929D01*
X119670908Y-83103764D01*
X119670912Y-83103768D01*
X119872926Y-83252977D01*
X119872930Y-83252980D01*
X119876769Y-83255815D01*
X119881001Y-83258041D01*
X119881000Y-83258041D01*
X120038433Y-83340871D01*
X120107484Y-83377201D01*
X120112005Y-83378762D01*
X120341908Y-83458148D01*
X120353906Y-83462291D01*
X120358612Y-83463150D01*
X120358614Y-83463151D01*
X120389403Y-83468774D01*
X120610363Y-83509129D01*
X120693770Y-83513500D01*
X120856295Y-83513500D01*
X120858674Y-83513319D01*
X120858675Y-83513319D01*
X121045181Y-83499132D01*
X121045186Y-83499131D01*
X121049948Y-83498769D01*
X121054601Y-83497690D01*
X121054604Y-83497690D01*
X121299250Y-83440984D01*
X121299249Y-83440984D01*
X121303914Y-83439903D01*
X121546054Y-83343299D01*
X121770796Y-83211180D01*
X121972967Y-83046587D01*
X122147915Y-82853307D01*
X122291615Y-82635788D01*
X122368174Y-82469720D01*
X122398753Y-82403388D01*
X122398754Y-82403385D01*
X122400759Y-82399036D01*
X122472837Y-82148499D01*
X122506188Y-81889942D01*
X122502932Y-81751780D01*
X122500159Y-81634095D01*
X122500159Y-81634090D01*
X122500046Y-81629315D01*
X122468533Y-81451501D01*
X122455386Y-81377320D01*
X122455385Y-81377316D01*
X122454552Y-81372616D01*
X122370753Y-81125752D01*
X122250577Y-80894404D01*
X122096790Y-80683896D01*
X121912931Y-80499071D01*
X121909092Y-80496236D01*
X121909088Y-80496232D01*
X121707074Y-80347023D01*
X121707070Y-80347020D01*
X121703231Y-80344185D01*
X121642267Y-80312110D01*
X121476751Y-80225027D01*
X121476749Y-80225026D01*
X121472516Y-80222799D01*
X121365938Y-80185997D01*
X121230618Y-80139271D01*
X121230616Y-80139271D01*
X121226094Y-80137709D01*
X121221388Y-80136850D01*
X121221386Y-80136849D01*
X121161634Y-80125936D01*
X120969637Y-80090871D01*
X120886230Y-80086500D01*
X120723705Y-80086500D01*
X120721326Y-80086681D01*
X120721325Y-80086681D01*
X120534819Y-80100868D01*
X120534814Y-80100869D01*
X120530052Y-80101231D01*
X120525399Y-80102310D01*
X120525396Y-80102310D01*
X120376385Y-80136849D01*
X120276086Y-80160097D01*
X120033946Y-80256701D01*
X119809204Y-80388820D01*
X119607033Y-80553413D01*
X119432085Y-80746693D01*
X119288385Y-80964212D01*
X119286384Y-80968552D01*
X119286382Y-80968556D01*
X119181247Y-81196612D01*
X119179241Y-81200964D01*
X119107163Y-81451501D01*
X119073812Y-81710058D01*
X94201949Y-81710058D01*
X94200159Y-81634095D01*
X94200159Y-81634090D01*
X94200046Y-81629315D01*
X94168533Y-81451501D01*
X94155386Y-81377320D01*
X94155385Y-81377316D01*
X94154552Y-81372616D01*
X94070753Y-81125752D01*
X93950577Y-80894404D01*
X93796790Y-80683896D01*
X93612931Y-80499071D01*
X93609092Y-80496236D01*
X93609088Y-80496232D01*
X93407074Y-80347023D01*
X93407070Y-80347020D01*
X93403231Y-80344185D01*
X93342267Y-80312110D01*
X93176751Y-80225027D01*
X93176749Y-80225026D01*
X93172516Y-80222799D01*
X93065938Y-80185997D01*
X92930618Y-80139271D01*
X92930616Y-80139271D01*
X92926094Y-80137709D01*
X92921388Y-80136850D01*
X92921386Y-80136849D01*
X92861634Y-80125936D01*
X92669637Y-80090871D01*
X92586230Y-80086500D01*
X92423705Y-80086500D01*
X92421326Y-80086681D01*
X92421325Y-80086681D01*
X92234819Y-80100868D01*
X92234814Y-80100869D01*
X92230052Y-80101231D01*
X92225399Y-80102310D01*
X92225396Y-80102310D01*
X92076385Y-80136849D01*
X91976086Y-80160097D01*
X91733946Y-80256701D01*
X91509204Y-80388820D01*
X91307033Y-80553413D01*
X91132085Y-80746693D01*
X90988385Y-80964212D01*
X90986384Y-80968552D01*
X90986382Y-80968556D01*
X90881247Y-81196612D01*
X90879241Y-81200964D01*
X90807163Y-81451501D01*
X90773812Y-81710058D01*
X90508000Y-81710058D01*
X90508000Y-67400000D01*
X100286496Y-67400000D01*
X100287186Y-67406565D01*
X100305129Y-67577279D01*
X100306458Y-67589928D01*
X100365473Y-67771556D01*
X100368776Y-67777278D01*
X100368777Y-67777279D01*
X100424619Y-67873999D01*
X100441500Y-67936999D01*
X100441500Y-72026366D01*
X100435333Y-72065301D01*
X100392603Y-72196810D01*
X100372641Y-72386738D01*
X100392603Y-72576666D01*
X100451618Y-72758294D01*
X100547105Y-72923682D01*
X100551523Y-72928589D01*
X100551524Y-72928590D01*
X100570802Y-72950000D01*
X100674892Y-73065604D01*
X100725752Y-73102556D01*
X100794790Y-73152715D01*
X100829393Y-73177856D01*
X100835421Y-73180540D01*
X100835423Y-73180541D01*
X100885227Y-73202715D01*
X101003857Y-73255532D01*
X101097258Y-73275385D01*
X101184201Y-73293866D01*
X101184206Y-73293866D01*
X101190658Y-73295238D01*
X101381632Y-73295238D01*
X101388084Y-73293866D01*
X101388089Y-73293866D01*
X101475032Y-73275385D01*
X101568433Y-73255532D01*
X101687063Y-73202715D01*
X101736867Y-73180541D01*
X101736869Y-73180540D01*
X101742897Y-73177856D01*
X101777501Y-73152715D01*
X101846538Y-73102556D01*
X101897398Y-73065604D01*
X102001488Y-72950000D01*
X102020766Y-72928590D01*
X102020767Y-72928589D01*
X102025185Y-72923682D01*
X102120672Y-72758294D01*
X102179687Y-72576666D01*
X102199649Y-72386738D01*
X102179687Y-72196810D01*
X102120672Y-72015182D01*
X102025185Y-71849794D01*
X101990864Y-71811677D01*
X101960147Y-71747669D01*
X101958500Y-71727366D01*
X101958500Y-68564425D01*
X102408731Y-68564425D01*
X102428693Y-68754353D01*
X102487708Y-68935981D01*
X102542515Y-69030908D01*
X102546854Y-69038424D01*
X102563735Y-69101424D01*
X102563735Y-70655165D01*
X102562302Y-70674115D01*
X102559036Y-70695584D01*
X102559629Y-70702876D01*
X102559629Y-70702879D01*
X102563320Y-70748253D01*
X102563735Y-70758468D01*
X102563735Y-70766528D01*
X102564160Y-70770172D01*
X102567024Y-70794742D01*
X102567457Y-70799117D01*
X102573375Y-70871872D01*
X102575631Y-70878836D01*
X102576822Y-70884795D01*
X102578206Y-70890650D01*
X102579053Y-70897916D01*
X102603970Y-70966562D01*
X102605387Y-70970690D01*
X102622982Y-71025001D01*
X102627884Y-71040134D01*
X102631680Y-71046389D01*
X102634186Y-71051863D01*
X102636905Y-71057293D01*
X102639402Y-71064172D01*
X102643415Y-71070292D01*
X102643415Y-71070293D01*
X102679421Y-71125211D01*
X102681758Y-71128915D01*
X102719640Y-71191342D01*
X102723356Y-71195550D01*
X102723357Y-71195551D01*
X102727038Y-71199719D01*
X102727011Y-71199743D01*
X102729664Y-71202735D01*
X102732367Y-71205968D01*
X102736379Y-71212087D01*
X102741691Y-71217119D01*
X102792618Y-71265363D01*
X102795060Y-71267741D01*
X104679875Y-73152556D01*
X104710613Y-73202714D01*
X104765473Y-73371556D01*
X104860960Y-73536944D01*
X104988747Y-73678866D01*
X105143248Y-73791118D01*
X105149276Y-73793802D01*
X105149278Y-73793803D01*
X105294591Y-73858500D01*
X105317712Y-73868794D01*
X105411112Y-73888647D01*
X105498056Y-73907128D01*
X105498061Y-73907128D01*
X105504513Y-73908500D01*
X105695487Y-73908500D01*
X105701939Y-73907128D01*
X105701944Y-73907128D01*
X105788888Y-73888647D01*
X105882288Y-73868794D01*
X105905409Y-73858500D01*
X106050722Y-73793803D01*
X106050724Y-73793802D01*
X106056752Y-73791118D01*
X106211253Y-73678866D01*
X106339040Y-73536944D01*
X106434527Y-73371556D01*
X106493542Y-73189928D01*
X106513504Y-73000000D01*
X106512814Y-72993435D01*
X106512814Y-72987822D01*
X106532816Y-72919701D01*
X106586472Y-72873208D01*
X106656746Y-72863104D01*
X106721326Y-72892598D01*
X106740749Y-72913759D01*
X106743801Y-72917960D01*
X106747105Y-72923682D01*
X106874892Y-73065604D01*
X106925752Y-73102556D01*
X106994790Y-73152715D01*
X107029393Y-73177856D01*
X107035421Y-73180540D01*
X107035423Y-73180541D01*
X107085227Y-73202715D01*
X107203857Y-73255532D01*
X107297258Y-73275385D01*
X107384201Y-73293866D01*
X107384206Y-73293866D01*
X107390658Y-73295238D01*
X107581632Y-73295238D01*
X107588084Y-73293866D01*
X107588089Y-73293866D01*
X107675032Y-73275385D01*
X107768433Y-73255532D01*
X107887063Y-73202715D01*
X107936867Y-73180541D01*
X107936869Y-73180540D01*
X107942897Y-73177856D01*
X107977501Y-73152715D01*
X108046538Y-73102556D01*
X108097398Y-73065604D01*
X108201488Y-72950000D01*
X108220766Y-72928590D01*
X108220767Y-72928589D01*
X108225185Y-72923682D01*
X108320672Y-72758294D01*
X108379687Y-72576666D01*
X108399649Y-72386738D01*
X108379687Y-72196810D01*
X108320672Y-72015182D01*
X108225185Y-71849794D01*
X108190864Y-71811677D01*
X108160147Y-71747669D01*
X108158500Y-71727366D01*
X108158500Y-68256244D01*
X108828944Y-68256244D01*
X108829634Y-68262809D01*
X108842063Y-68381060D01*
X108848906Y-68446172D01*
X108907921Y-68627800D01*
X108911224Y-68633522D01*
X108911225Y-68633523D01*
X108967067Y-68730243D01*
X108983948Y-68793243D01*
X108983948Y-70775378D01*
X108982515Y-70794328D01*
X108979249Y-70815797D01*
X108979842Y-70823089D01*
X108979842Y-70823092D01*
X108983533Y-70868466D01*
X108983948Y-70878681D01*
X108983948Y-70886741D01*
X108984373Y-70890385D01*
X108987237Y-70914955D01*
X108987670Y-70919330D01*
X108991848Y-70970690D01*
X108993588Y-70992085D01*
X108995844Y-70999049D01*
X108997035Y-71005008D01*
X108998419Y-71010863D01*
X108999266Y-71018129D01*
X109024183Y-71086775D01*
X109025600Y-71090903D01*
X109048097Y-71160347D01*
X109051893Y-71166602D01*
X109054399Y-71172076D01*
X109057118Y-71177506D01*
X109059615Y-71184385D01*
X109063628Y-71190505D01*
X109063628Y-71190506D01*
X109099634Y-71245424D01*
X109101971Y-71249128D01*
X109139853Y-71311555D01*
X109143569Y-71315763D01*
X109143570Y-71315764D01*
X109147251Y-71319932D01*
X109147224Y-71319956D01*
X109149877Y-71322948D01*
X109152580Y-71326181D01*
X109156592Y-71332300D01*
X109161904Y-71337332D01*
X109212831Y-71385576D01*
X109215273Y-71387954D01*
X110929875Y-73102556D01*
X110960613Y-73152714D01*
X111015473Y-73321556D01*
X111110960Y-73486944D01*
X111115378Y-73491851D01*
X111115379Y-73491852D01*
X111155980Y-73536944D01*
X111238747Y-73628866D01*
X111393248Y-73741118D01*
X111399276Y-73743802D01*
X111399278Y-73743803D01*
X111496833Y-73787237D01*
X111567712Y-73818794D01*
X111661113Y-73838647D01*
X111748056Y-73857128D01*
X111748061Y-73857128D01*
X111754513Y-73858500D01*
X111945487Y-73858500D01*
X111951939Y-73857128D01*
X111951944Y-73857128D01*
X112038887Y-73838647D01*
X112132288Y-73818794D01*
X112203167Y-73787237D01*
X112300722Y-73743803D01*
X112300724Y-73743802D01*
X112306752Y-73741118D01*
X112461253Y-73628866D01*
X112544020Y-73536944D01*
X112584621Y-73491852D01*
X112584622Y-73491851D01*
X112589040Y-73486944D01*
X112684527Y-73321556D01*
X112743542Y-73139928D01*
X112763504Y-72950000D01*
X112760738Y-72923682D01*
X112744232Y-72766635D01*
X112744232Y-72766633D01*
X112743542Y-72760072D01*
X112684527Y-72578444D01*
X112589040Y-72413056D01*
X112571255Y-72393303D01*
X112465675Y-72276045D01*
X112465674Y-72276044D01*
X112461253Y-72271134D01*
X112358955Y-72196810D01*
X112312094Y-72162763D01*
X112312093Y-72162762D01*
X112306752Y-72158882D01*
X112300724Y-72156198D01*
X112300722Y-72156197D01*
X112138319Y-72083891D01*
X112138318Y-72083891D01*
X112132288Y-72081206D01*
X112125833Y-72079834D01*
X112125824Y-72079831D01*
X112069228Y-72067801D01*
X112006331Y-72033650D01*
X110537853Y-70565172D01*
X110503827Y-70502860D01*
X110500948Y-70476077D01*
X110500948Y-68793243D01*
X110517829Y-68730243D01*
X110573671Y-68633523D01*
X110573672Y-68633522D01*
X110576975Y-68627800D01*
X110635990Y-68446172D01*
X110642834Y-68381060D01*
X110655262Y-68262809D01*
X110655952Y-68256244D01*
X110635990Y-68066316D01*
X110576975Y-67884688D01*
X110481488Y-67719300D01*
X110460177Y-67695631D01*
X110358123Y-67582289D01*
X110358122Y-67582288D01*
X110353701Y-67577378D01*
X110199200Y-67465126D01*
X110193172Y-67462442D01*
X110193170Y-67462441D01*
X110030767Y-67390135D01*
X110030766Y-67390135D01*
X110024736Y-67387450D01*
X109931336Y-67367597D01*
X109844392Y-67349116D01*
X109844387Y-67349116D01*
X109837935Y-67347744D01*
X109646961Y-67347744D01*
X109640509Y-67349116D01*
X109640504Y-67349116D01*
X109553560Y-67367597D01*
X109460160Y-67387450D01*
X109454130Y-67390135D01*
X109454129Y-67390135D01*
X109291726Y-67462441D01*
X109291724Y-67462442D01*
X109285696Y-67465126D01*
X109131195Y-67577378D01*
X109126774Y-67582288D01*
X109126773Y-67582289D01*
X109024720Y-67695631D01*
X109003408Y-67719300D01*
X108907921Y-67884688D01*
X108848906Y-68066316D01*
X108828944Y-68256244D01*
X108158500Y-68256244D01*
X108158500Y-67736999D01*
X108175381Y-67673999D01*
X108231223Y-67577279D01*
X108231224Y-67577278D01*
X108234527Y-67571556D01*
X108293542Y-67389928D01*
X108297832Y-67349116D01*
X108312814Y-67206565D01*
X108313504Y-67200000D01*
X108295473Y-67028444D01*
X108294232Y-67016635D01*
X108294232Y-67016633D01*
X108293542Y-67010072D01*
X108234527Y-66828444D01*
X108139040Y-66663056D01*
X108022740Y-66533891D01*
X108015675Y-66526045D01*
X108015674Y-66526044D01*
X108011253Y-66521134D01*
X107856752Y-66408882D01*
X107850724Y-66406198D01*
X107850722Y-66406197D01*
X107688319Y-66333891D01*
X107688318Y-66333891D01*
X107682288Y-66331206D01*
X107588888Y-66311353D01*
X107501944Y-66292872D01*
X107501939Y-66292872D01*
X107495487Y-66291500D01*
X107304513Y-66291500D01*
X107298061Y-66292872D01*
X107298056Y-66292872D01*
X107211112Y-66311353D01*
X107117712Y-66331206D01*
X107111682Y-66333891D01*
X107111681Y-66333891D01*
X106949278Y-66406197D01*
X106949276Y-66406198D01*
X106943248Y-66408882D01*
X106788747Y-66521134D01*
X106784326Y-66526044D01*
X106784325Y-66526045D01*
X106777261Y-66533891D01*
X106660960Y-66663056D01*
X106565473Y-66828444D01*
X106506458Y-67010072D01*
X106505768Y-67016633D01*
X106505768Y-67016635D01*
X106504527Y-67028444D01*
X106486496Y-67200000D01*
X106487186Y-67206565D01*
X106502169Y-67349116D01*
X106506458Y-67389928D01*
X106565473Y-67571556D01*
X106568776Y-67577278D01*
X106568777Y-67577279D01*
X106624619Y-67673999D01*
X106641500Y-67736999D01*
X106641500Y-72026366D01*
X106635333Y-72065301D01*
X106592603Y-72196810D01*
X106572641Y-72386738D01*
X106573331Y-72393303D01*
X106573331Y-72398916D01*
X106553329Y-72467037D01*
X106499673Y-72513530D01*
X106429399Y-72523634D01*
X106364819Y-72494140D01*
X106345396Y-72472979D01*
X106342344Y-72468778D01*
X106339040Y-72463056D01*
X106211253Y-72321134D01*
X106056752Y-72208882D01*
X106050724Y-72206198D01*
X106050722Y-72206197D01*
X105888319Y-72133891D01*
X105888318Y-72133891D01*
X105882288Y-72131206D01*
X105875833Y-72129834D01*
X105875824Y-72129831D01*
X105819228Y-72117801D01*
X105756331Y-72083650D01*
X104117640Y-70444959D01*
X104083614Y-70382647D01*
X104080735Y-70355864D01*
X104080735Y-69101424D01*
X104097616Y-69038424D01*
X104101956Y-69030908D01*
X104156762Y-68935981D01*
X104215777Y-68754353D01*
X104235739Y-68564425D01*
X104235049Y-68557860D01*
X104216467Y-68381060D01*
X104216467Y-68381058D01*
X104215777Y-68374497D01*
X104156762Y-68192869D01*
X104061275Y-68027481D01*
X104050089Y-68015057D01*
X103937910Y-67890470D01*
X103937909Y-67890469D01*
X103933488Y-67885559D01*
X103778987Y-67773307D01*
X103772959Y-67770623D01*
X103772957Y-67770622D01*
X103610554Y-67698316D01*
X103610553Y-67698316D01*
X103604523Y-67695631D01*
X103502753Y-67673999D01*
X103424179Y-67657297D01*
X103424174Y-67657297D01*
X103417722Y-67655925D01*
X103226748Y-67655925D01*
X103220296Y-67657297D01*
X103220291Y-67657297D01*
X103141717Y-67673999D01*
X103039947Y-67695631D01*
X103033917Y-67698316D01*
X103033916Y-67698316D01*
X102871513Y-67770622D01*
X102871511Y-67770623D01*
X102865483Y-67773307D01*
X102710982Y-67885559D01*
X102706561Y-67890469D01*
X102706560Y-67890470D01*
X102594382Y-68015057D01*
X102583195Y-68027481D01*
X102487708Y-68192869D01*
X102428693Y-68374497D01*
X102428003Y-68381058D01*
X102428003Y-68381060D01*
X102409421Y-68557860D01*
X102408731Y-68564425D01*
X101958500Y-68564425D01*
X101958500Y-67936999D01*
X101975381Y-67873999D01*
X102031223Y-67777279D01*
X102031224Y-67777278D01*
X102034527Y-67771556D01*
X102093542Y-67589928D01*
X102094872Y-67577279D01*
X102112814Y-67406565D01*
X102113504Y-67400000D01*
X102093542Y-67210072D01*
X102034527Y-67028444D01*
X101939040Y-66863056D01*
X101811253Y-66721134D01*
X101656752Y-66608882D01*
X101650724Y-66606198D01*
X101650722Y-66606197D01*
X101488319Y-66533891D01*
X101488318Y-66533891D01*
X101482288Y-66531206D01*
X101388887Y-66511353D01*
X101301944Y-66492872D01*
X101301939Y-66492872D01*
X101295487Y-66491500D01*
X101104513Y-66491500D01*
X101098061Y-66492872D01*
X101098056Y-66492872D01*
X101011113Y-66511353D01*
X100917712Y-66531206D01*
X100911682Y-66533891D01*
X100911681Y-66533891D01*
X100749278Y-66606197D01*
X100749276Y-66606198D01*
X100743248Y-66608882D01*
X100588747Y-66721134D01*
X100460960Y-66863056D01*
X100365473Y-67028444D01*
X100306458Y-67210072D01*
X100286496Y-67400000D01*
X90508000Y-67400000D01*
X90508000Y-65000000D01*
X113086496Y-65000000D01*
X113106458Y-65189928D01*
X113165473Y-65371556D01*
X113260960Y-65536944D01*
X113293723Y-65573331D01*
X113324439Y-65637336D01*
X113326085Y-65657639D01*
X113326085Y-67952057D01*
X113309204Y-68015056D01*
X113250058Y-68117500D01*
X113191043Y-68299128D01*
X113171081Y-68489056D01*
X113171771Y-68495621D01*
X113179693Y-68570990D01*
X113191043Y-68678984D01*
X113250058Y-68860612D01*
X113345545Y-69026000D01*
X113349963Y-69030907D01*
X113349964Y-69030908D01*
X113383058Y-69067663D01*
X113473332Y-69167922D01*
X113627833Y-69280174D01*
X113633861Y-69282858D01*
X113633863Y-69282859D01*
X113796266Y-69355165D01*
X113802297Y-69357850D01*
X113895698Y-69377703D01*
X113982641Y-69396184D01*
X113982646Y-69396184D01*
X113989098Y-69397556D01*
X114180072Y-69397556D01*
X114186524Y-69396184D01*
X114186529Y-69396184D01*
X114273472Y-69377703D01*
X114366873Y-69357850D01*
X114372904Y-69355165D01*
X114535307Y-69282859D01*
X114535309Y-69282858D01*
X114541337Y-69280174D01*
X114695838Y-69167922D01*
X114786112Y-69067663D01*
X114819206Y-69030908D01*
X114819207Y-69030907D01*
X114823625Y-69026000D01*
X114919112Y-68860612D01*
X114978127Y-68678984D01*
X114989478Y-68570990D01*
X114997399Y-68495621D01*
X114998089Y-68489056D01*
X114978127Y-68299128D01*
X114919112Y-68117500D01*
X114859966Y-68015056D01*
X114843085Y-67952057D01*
X114843085Y-65365174D01*
X114849252Y-65326237D01*
X114893542Y-65189928D01*
X114913504Y-65000000D01*
X114893542Y-64810072D01*
X114834527Y-64628444D01*
X114739040Y-64463056D01*
X114611253Y-64321134D01*
X114456752Y-64208882D01*
X114450724Y-64206198D01*
X114450722Y-64206197D01*
X114288319Y-64133891D01*
X114288318Y-64133891D01*
X114282288Y-64131206D01*
X114188888Y-64111353D01*
X114101944Y-64092872D01*
X114101939Y-64092872D01*
X114095487Y-64091500D01*
X113904513Y-64091500D01*
X113898061Y-64092872D01*
X113898056Y-64092872D01*
X113811112Y-64111353D01*
X113717712Y-64131206D01*
X113711682Y-64133891D01*
X113711681Y-64133891D01*
X113549278Y-64206197D01*
X113549276Y-64206198D01*
X113543248Y-64208882D01*
X113388747Y-64321134D01*
X113260960Y-64463056D01*
X113165473Y-64628444D01*
X113106458Y-64810072D01*
X113086496Y-65000000D01*
X90508000Y-65000000D01*
X90508000Y-63634000D01*
X90528002Y-63565879D01*
X90581658Y-63519386D01*
X90634000Y-63508000D01*
X123366000Y-63508000D01*
X123434121Y-63528002D01*
G37*
%TD.AperFunction*%
%TD*%
M02*
