%TF.GenerationSoftware,KiCad,Pcbnew,(6.0.0)*%
%TF.CreationDate,2022-03-28T21:02:23+02:00*%
%TF.ProjectId,BMS,424d532e-6b69-4636-9164-5f7063625858,rev?*%
%TF.SameCoordinates,Original*%
%TF.FileFunction,Copper,L2,Bot*%
%TF.FilePolarity,Positive*%
%FSLAX46Y46*%
G04 Gerber Fmt 4.6, Leading zero omitted, Abs format (unit mm)*
G04 Created by KiCad (PCBNEW (6.0.0)) date 2022-03-28 21:02:23*
%MOMM*%
%LPD*%
G01*
G04 APERTURE LIST*
%TA.AperFunction,ViaPad*%
%ADD10C,0.800000*%
%TD*%
%TA.AperFunction,Conductor*%
%ADD11C,0.500000*%
%TD*%
G04 APERTURE END LIST*
D10*
%TO.N,GND*%
X92000000Y-66000000D03*
X122000000Y-66000000D03*
%TO.N,B4*%
X102800000Y-93600000D03*
X108400000Y-84000000D03*
%TO.N,B7*%
X114025000Y-95425000D03*
X111800000Y-91000000D03*
%TO.N,B6*%
X108600000Y-95600000D03*
X106000000Y-91000000D03*
%TO.N,B5*%
X101900000Y-95500000D03*
X99351996Y-90997059D03*
%TO.N,B3*%
X95400000Y-94550500D03*
X96600000Y-84000000D03*
%TO.N,Net-(C3-Pad1)*%
X111850000Y-72950000D03*
X109742448Y-68256244D03*
%TO.N,B2*%
X107486145Y-72386738D03*
X107400000Y-67200000D03*
%TO.N,B1*%
X101286145Y-72386738D03*
X101200000Y-67400000D03*
%TD*%
D11*
%TO.N,B4*%
X102800000Y-89600000D02*
X102800000Y-93600000D01*
X108400000Y-84000000D02*
X102800000Y-89600000D01*
%TO.N,B7*%
X111800000Y-93200000D02*
X114025000Y-95425000D01*
X111800000Y-91000000D02*
X111800000Y-93200000D01*
%TO.N,B6*%
X106000000Y-93000000D02*
X108600000Y-95600000D01*
X106000000Y-91000000D02*
X106000000Y-93000000D01*
%TO.N,B5*%
X99351996Y-92951996D02*
X101900000Y-95500000D01*
X99351996Y-90997059D02*
X99351996Y-92951996D01*
%TO.N,B3*%
X96600000Y-93350500D02*
X95400000Y-94550500D01*
X96600000Y-84000000D02*
X96600000Y-93350500D01*
%TO.N,Net-(C3-Pad1)*%
X109742448Y-68256244D02*
X109742448Y-70842448D01*
X109742448Y-70842448D02*
X111850000Y-72950000D01*
%TO.N,B2*%
X107400000Y-67200000D02*
X107400000Y-72300593D01*
X107400000Y-72300593D02*
X107486145Y-72386738D01*
%TO.N,B1*%
X101200000Y-72300593D02*
X101286145Y-72386738D01*
X101200000Y-67400000D02*
X101200000Y-72300593D01*
%TD*%
%TA.AperFunction,Conductor*%
%TO.N,GND*%
G36*
X123434121Y-65528002D02*
G01*
X123480614Y-65581658D01*
X123492000Y-65634000D01*
X123492000Y-96366000D01*
X123471998Y-96434121D01*
X123418342Y-96480614D01*
X123366000Y-96492000D01*
X114454895Y-96492000D01*
X114386774Y-96471998D01*
X114340281Y-96418342D01*
X114330177Y-96348068D01*
X114359671Y-96283488D01*
X114403646Y-96250893D01*
X114475722Y-96218803D01*
X114475724Y-96218802D01*
X114481752Y-96216118D01*
X114636253Y-96103866D01*
X114750232Y-95977279D01*
X114759621Y-95966852D01*
X114759622Y-95966851D01*
X114764040Y-95961944D01*
X114859527Y-95796556D01*
X114918542Y-95614928D01*
X114934931Y-95459000D01*
X114937814Y-95431565D01*
X114938504Y-95425000D01*
X114918542Y-95235072D01*
X114859527Y-95053444D01*
X114764040Y-94888056D01*
X114692752Y-94808882D01*
X114640675Y-94751045D01*
X114640674Y-94751044D01*
X114636253Y-94746134D01*
X114481752Y-94633882D01*
X114475724Y-94631198D01*
X114475722Y-94631197D01*
X114313319Y-94558891D01*
X114313318Y-94558891D01*
X114307288Y-94556206D01*
X114300833Y-94554834D01*
X114300824Y-94554831D01*
X114244228Y-94542801D01*
X114181331Y-94508650D01*
X112595405Y-92922724D01*
X112561379Y-92860412D01*
X112558500Y-92833629D01*
X112558500Y-91536999D01*
X112575381Y-91473999D01*
X112631223Y-91377279D01*
X112631224Y-91377278D01*
X112634527Y-91371556D01*
X112693542Y-91189928D01*
X112713504Y-91000000D01*
X112693542Y-90810072D01*
X112634527Y-90628444D01*
X112539040Y-90463056D01*
X112411253Y-90321134D01*
X112256752Y-90208882D01*
X112250724Y-90206198D01*
X112250722Y-90206197D01*
X112088319Y-90133891D01*
X112088318Y-90133891D01*
X112082288Y-90131206D01*
X111988888Y-90111353D01*
X111901944Y-90092872D01*
X111901939Y-90092872D01*
X111895487Y-90091500D01*
X111704513Y-90091500D01*
X111698061Y-90092872D01*
X111698056Y-90092872D01*
X111611112Y-90111353D01*
X111517712Y-90131206D01*
X111511682Y-90133891D01*
X111511681Y-90133891D01*
X111349278Y-90206197D01*
X111349276Y-90206198D01*
X111343248Y-90208882D01*
X111188747Y-90321134D01*
X111060960Y-90463056D01*
X110965473Y-90628444D01*
X110906458Y-90810072D01*
X110886496Y-91000000D01*
X110906458Y-91189928D01*
X110965473Y-91371556D01*
X110968776Y-91377278D01*
X110968777Y-91377279D01*
X111024619Y-91473999D01*
X111041500Y-91536999D01*
X111041500Y-93132930D01*
X111040067Y-93151880D01*
X111036801Y-93173349D01*
X111037394Y-93180641D01*
X111037394Y-93180644D01*
X111041085Y-93226018D01*
X111041500Y-93236233D01*
X111041500Y-93244293D01*
X111041925Y-93247937D01*
X111044789Y-93272507D01*
X111045222Y-93276882D01*
X111050514Y-93341937D01*
X111051140Y-93349637D01*
X111053396Y-93356601D01*
X111054587Y-93362560D01*
X111055971Y-93368415D01*
X111056818Y-93375681D01*
X111081735Y-93444327D01*
X111083152Y-93448455D01*
X111105649Y-93517899D01*
X111109445Y-93524154D01*
X111111951Y-93529628D01*
X111114670Y-93535058D01*
X111117167Y-93541937D01*
X111121180Y-93548057D01*
X111121180Y-93548058D01*
X111157186Y-93602976D01*
X111159523Y-93606680D01*
X111197405Y-93669107D01*
X111201121Y-93673315D01*
X111201122Y-93673316D01*
X111204803Y-93677484D01*
X111204776Y-93677508D01*
X111207429Y-93680500D01*
X111210132Y-93683733D01*
X111214144Y-93689852D01*
X111219456Y-93694884D01*
X111270383Y-93743128D01*
X111272825Y-93745506D01*
X113104875Y-95577556D01*
X113135613Y-95627714D01*
X113190473Y-95796556D01*
X113285960Y-95961944D01*
X113290378Y-95966851D01*
X113290379Y-95966852D01*
X113299768Y-95977279D01*
X113413747Y-96103866D01*
X113568248Y-96216118D01*
X113574276Y-96218802D01*
X113574278Y-96218803D01*
X113646354Y-96250893D01*
X113700450Y-96296873D01*
X113721099Y-96364800D01*
X113701747Y-96433109D01*
X113648536Y-96480110D01*
X113595105Y-96492000D01*
X109301753Y-96492000D01*
X109233632Y-96471998D01*
X109187139Y-96418342D01*
X109177035Y-96348068D01*
X109206529Y-96283488D01*
X109210593Y-96279345D01*
X109211253Y-96278866D01*
X109267752Y-96216118D01*
X109334621Y-96141852D01*
X109334622Y-96141851D01*
X109339040Y-96136944D01*
X109434527Y-95971556D01*
X109493542Y-95789928D01*
X109503393Y-95696206D01*
X109512814Y-95606565D01*
X109513504Y-95600000D01*
X109502304Y-95493435D01*
X109494232Y-95416635D01*
X109494232Y-95416633D01*
X109493542Y-95410072D01*
X109434527Y-95228444D01*
X109339040Y-95063056D01*
X109330386Y-95053444D01*
X109215675Y-94926045D01*
X109215674Y-94926044D01*
X109211253Y-94921134D01*
X109080375Y-94826045D01*
X109062094Y-94812763D01*
X109062093Y-94812762D01*
X109056752Y-94808882D01*
X109050724Y-94806198D01*
X109050722Y-94806197D01*
X108888319Y-94733891D01*
X108888318Y-94733891D01*
X108882288Y-94731206D01*
X108875833Y-94729834D01*
X108875824Y-94729831D01*
X108819228Y-94717801D01*
X108756331Y-94683650D01*
X106795405Y-92722724D01*
X106761379Y-92660412D01*
X106758500Y-92633629D01*
X106758500Y-91536999D01*
X106775381Y-91473999D01*
X106831223Y-91377279D01*
X106831224Y-91377278D01*
X106834527Y-91371556D01*
X106893542Y-91189928D01*
X106913504Y-91000000D01*
X106893542Y-90810072D01*
X106834527Y-90628444D01*
X106739040Y-90463056D01*
X106611253Y-90321134D01*
X106456752Y-90208882D01*
X106450724Y-90206198D01*
X106450722Y-90206197D01*
X106288319Y-90133891D01*
X106288318Y-90133891D01*
X106282288Y-90131206D01*
X106188888Y-90111353D01*
X106101944Y-90092872D01*
X106101939Y-90092872D01*
X106095487Y-90091500D01*
X105904513Y-90091500D01*
X105898061Y-90092872D01*
X105898056Y-90092872D01*
X105811112Y-90111353D01*
X105717712Y-90131206D01*
X105711682Y-90133891D01*
X105711681Y-90133891D01*
X105549278Y-90206197D01*
X105549276Y-90206198D01*
X105543248Y-90208882D01*
X105388747Y-90321134D01*
X105260960Y-90463056D01*
X105165473Y-90628444D01*
X105106458Y-90810072D01*
X105086496Y-91000000D01*
X105106458Y-91189928D01*
X105165473Y-91371556D01*
X105168776Y-91377278D01*
X105168777Y-91377279D01*
X105224619Y-91473999D01*
X105241500Y-91536999D01*
X105241500Y-92932930D01*
X105240067Y-92951880D01*
X105236801Y-92973349D01*
X105237394Y-92980641D01*
X105237394Y-92980644D01*
X105241085Y-93026018D01*
X105241500Y-93036233D01*
X105241500Y-93044293D01*
X105241925Y-93047937D01*
X105244789Y-93072507D01*
X105245222Y-93076882D01*
X105249913Y-93134549D01*
X105251140Y-93149637D01*
X105253396Y-93156601D01*
X105254587Y-93162560D01*
X105255971Y-93168415D01*
X105256818Y-93175681D01*
X105281735Y-93244327D01*
X105283152Y-93248455D01*
X105305649Y-93317899D01*
X105309445Y-93324154D01*
X105311951Y-93329628D01*
X105314670Y-93335058D01*
X105317167Y-93341937D01*
X105321180Y-93348057D01*
X105321180Y-93348058D01*
X105357186Y-93402976D01*
X105359523Y-93406680D01*
X105397405Y-93469107D01*
X105401121Y-93473315D01*
X105401122Y-93473316D01*
X105404803Y-93477484D01*
X105404776Y-93477508D01*
X105407429Y-93480500D01*
X105410132Y-93483733D01*
X105414144Y-93489852D01*
X105436401Y-93510936D01*
X105470383Y-93543128D01*
X105472825Y-93545506D01*
X107679875Y-95752556D01*
X107710613Y-95802714D01*
X107765473Y-95971556D01*
X107860960Y-96136944D01*
X107865378Y-96141851D01*
X107865379Y-96141852D01*
X107988747Y-96278866D01*
X107987344Y-96280130D01*
X108019799Y-96332817D01*
X108018443Y-96403801D01*
X107978926Y-96462783D01*
X107913794Y-96491037D01*
X107898247Y-96492000D01*
X102468049Y-96492000D01*
X102399928Y-96471998D01*
X102353435Y-96418342D01*
X102343331Y-96348068D01*
X102372825Y-96283488D01*
X102393988Y-96264064D01*
X102412117Y-96250893D01*
X102511253Y-96178866D01*
X102639040Y-96036944D01*
X102734527Y-95871556D01*
X102793542Y-95689928D01*
X102813504Y-95500000D01*
X102804052Y-95410072D01*
X102794232Y-95316635D01*
X102794232Y-95316633D01*
X102793542Y-95310072D01*
X102734527Y-95128444D01*
X102639040Y-94963056D01*
X102607277Y-94927779D01*
X102515675Y-94826045D01*
X102515674Y-94826044D01*
X102511253Y-94821134D01*
X102356752Y-94708882D01*
X102350724Y-94706198D01*
X102350722Y-94706197D01*
X102188319Y-94633891D01*
X102188318Y-94633891D01*
X102182288Y-94631206D01*
X102175833Y-94629834D01*
X102175824Y-94629831D01*
X102119228Y-94617801D01*
X102056331Y-94583650D01*
X101072681Y-93600000D01*
X101886496Y-93600000D01*
X101887186Y-93606565D01*
X101904807Y-93774215D01*
X101906458Y-93789928D01*
X101965473Y-93971556D01*
X102060960Y-94136944D01*
X102188747Y-94278866D01*
X102343248Y-94391118D01*
X102349276Y-94393802D01*
X102349278Y-94393803D01*
X102511681Y-94466109D01*
X102517712Y-94468794D01*
X102611113Y-94488647D01*
X102698056Y-94507128D01*
X102698061Y-94507128D01*
X102704513Y-94508500D01*
X102895487Y-94508500D01*
X102901939Y-94507128D01*
X102901944Y-94507128D01*
X102988888Y-94488647D01*
X103082288Y-94468794D01*
X103088319Y-94466109D01*
X103250722Y-94393803D01*
X103250724Y-94393802D01*
X103256752Y-94391118D01*
X103411253Y-94278866D01*
X103539040Y-94136944D01*
X103634527Y-93971556D01*
X103693542Y-93789928D01*
X103695194Y-93774215D01*
X103712814Y-93606565D01*
X103713504Y-93600000D01*
X103697356Y-93446362D01*
X103694232Y-93416635D01*
X103694232Y-93416633D01*
X103693542Y-93410072D01*
X103634527Y-93228444D01*
X103575381Y-93126000D01*
X103558500Y-93063001D01*
X103558500Y-89966371D01*
X103578502Y-89898250D01*
X103595405Y-89877276D01*
X108556331Y-84916350D01*
X108619228Y-84882199D01*
X108675824Y-84870169D01*
X108675833Y-84870166D01*
X108682288Y-84868794D01*
X108688319Y-84866109D01*
X108850722Y-84793803D01*
X108850724Y-84793802D01*
X108856752Y-84791118D01*
X109011253Y-84678866D01*
X109139040Y-84536944D01*
X109234527Y-84371556D01*
X109293542Y-84189928D01*
X109313504Y-84000000D01*
X109293542Y-83810072D01*
X109234527Y-83628444D01*
X109139040Y-83463056D01*
X109063142Y-83378762D01*
X109015675Y-83326045D01*
X109015674Y-83326044D01*
X109011253Y-83321134D01*
X108856752Y-83208882D01*
X108850724Y-83206198D01*
X108850722Y-83206197D01*
X108688319Y-83133891D01*
X108688318Y-83133891D01*
X108682288Y-83131206D01*
X108588888Y-83111353D01*
X108501944Y-83092872D01*
X108501939Y-83092872D01*
X108495487Y-83091500D01*
X108304513Y-83091500D01*
X108298061Y-83092872D01*
X108298056Y-83092872D01*
X108211112Y-83111353D01*
X108117712Y-83131206D01*
X108111682Y-83133891D01*
X108111681Y-83133891D01*
X107949278Y-83206197D01*
X107949276Y-83206198D01*
X107943248Y-83208882D01*
X107788747Y-83321134D01*
X107784326Y-83326044D01*
X107784325Y-83326045D01*
X107736859Y-83378762D01*
X107660960Y-83463056D01*
X107565473Y-83628444D01*
X107563431Y-83634729D01*
X107510613Y-83797285D01*
X107479875Y-83847444D01*
X102311089Y-89016230D01*
X102296677Y-89028616D01*
X102285082Y-89037149D01*
X102285077Y-89037154D01*
X102279182Y-89041492D01*
X102274443Y-89047070D01*
X102274440Y-89047073D01*
X102244965Y-89081768D01*
X102238035Y-89089284D01*
X102232340Y-89094979D01*
X102230060Y-89097861D01*
X102214719Y-89117251D01*
X102211928Y-89120655D01*
X102169409Y-89170703D01*
X102164667Y-89176285D01*
X102161339Y-89182801D01*
X102157972Y-89187850D01*
X102154805Y-89192979D01*
X102150266Y-89198716D01*
X102119345Y-89264875D01*
X102117442Y-89268769D01*
X102084231Y-89333808D01*
X102082492Y-89340916D01*
X102080393Y-89346559D01*
X102078476Y-89352322D01*
X102075378Y-89358950D01*
X102073888Y-89366112D01*
X102073888Y-89366113D01*
X102060514Y-89430412D01*
X102059544Y-89434696D01*
X102042192Y-89505610D01*
X102041500Y-89516764D01*
X102041464Y-89516762D01*
X102041225Y-89520755D01*
X102040851Y-89524947D01*
X102039360Y-89532115D01*
X102039558Y-89539432D01*
X102041454Y-89609521D01*
X102041500Y-89612928D01*
X102041500Y-93063001D01*
X102024619Y-93126000D01*
X101965473Y-93228444D01*
X101906458Y-93410072D01*
X101905768Y-93416633D01*
X101905768Y-93416635D01*
X101902644Y-93446362D01*
X101886496Y-93600000D01*
X101072681Y-93600000D01*
X100147401Y-92674720D01*
X100113375Y-92612408D01*
X100110496Y-92585625D01*
X100110496Y-91534058D01*
X100127377Y-91471058D01*
X100183219Y-91374338D01*
X100183220Y-91374337D01*
X100186523Y-91368615D01*
X100245538Y-91186987D01*
X100265500Y-90997059D01*
X100245538Y-90807131D01*
X100186523Y-90625503D01*
X100091036Y-90460115D01*
X99963249Y-90318193D01*
X99808748Y-90205941D01*
X99802720Y-90203257D01*
X99802718Y-90203256D01*
X99640315Y-90130950D01*
X99640314Y-90130950D01*
X99634284Y-90128265D01*
X99540883Y-90108412D01*
X99453940Y-90089931D01*
X99453935Y-90089931D01*
X99447483Y-90088559D01*
X99256509Y-90088559D01*
X99250057Y-90089931D01*
X99250052Y-90089931D01*
X99163109Y-90108412D01*
X99069708Y-90128265D01*
X99063678Y-90130950D01*
X99063677Y-90130950D01*
X98901274Y-90203256D01*
X98901272Y-90203257D01*
X98895244Y-90205941D01*
X98740743Y-90318193D01*
X98612956Y-90460115D01*
X98517469Y-90625503D01*
X98458454Y-90807131D01*
X98438492Y-90997059D01*
X98458454Y-91186987D01*
X98517469Y-91368615D01*
X98520772Y-91374337D01*
X98520773Y-91374338D01*
X98576615Y-91471058D01*
X98593496Y-91534058D01*
X98593496Y-92884926D01*
X98592063Y-92903876D01*
X98588797Y-92925345D01*
X98589390Y-92932637D01*
X98589390Y-92932640D01*
X98593081Y-92978014D01*
X98593496Y-92988229D01*
X98593496Y-92996289D01*
X98593921Y-92999933D01*
X98596785Y-93024503D01*
X98597218Y-93028878D01*
X98601123Y-93076882D01*
X98603136Y-93101633D01*
X98605392Y-93108597D01*
X98606583Y-93114556D01*
X98607967Y-93120411D01*
X98608814Y-93127677D01*
X98633731Y-93196323D01*
X98635148Y-93200451D01*
X98650532Y-93247937D01*
X98657645Y-93269895D01*
X98661441Y-93276150D01*
X98663947Y-93281624D01*
X98666666Y-93287054D01*
X98669163Y-93293933D01*
X98673176Y-93300053D01*
X98673176Y-93300054D01*
X98709182Y-93354972D01*
X98711519Y-93358676D01*
X98749401Y-93421103D01*
X98753117Y-93425311D01*
X98753118Y-93425312D01*
X98756799Y-93429480D01*
X98756772Y-93429504D01*
X98759425Y-93432496D01*
X98762128Y-93435729D01*
X98766140Y-93441848D01*
X98775110Y-93450345D01*
X98822379Y-93495124D01*
X98824821Y-93497502D01*
X100979875Y-95652556D01*
X101010613Y-95702714D01*
X101065473Y-95871556D01*
X101160960Y-96036944D01*
X101288747Y-96178866D01*
X101387884Y-96250893D01*
X101406012Y-96264064D01*
X101449366Y-96320286D01*
X101455441Y-96391022D01*
X101422310Y-96453814D01*
X101360490Y-96488726D01*
X101331951Y-96492000D01*
X90634000Y-96492000D01*
X90565879Y-96471998D01*
X90519386Y-96418342D01*
X90508000Y-96366000D01*
X90508000Y-94550500D01*
X94486496Y-94550500D01*
X94487186Y-94557065D01*
X94493570Y-94617801D01*
X94506458Y-94740428D01*
X94565473Y-94922056D01*
X94660960Y-95087444D01*
X94665378Y-95092351D01*
X94665379Y-95092352D01*
X94782764Y-95222721D01*
X94788747Y-95229366D01*
X94943248Y-95341618D01*
X94949276Y-95344302D01*
X94949278Y-95344303D01*
X95082898Y-95403794D01*
X95117712Y-95419294D01*
X95211113Y-95439147D01*
X95298056Y-95457628D01*
X95298061Y-95457628D01*
X95304513Y-95459000D01*
X95495487Y-95459000D01*
X95501939Y-95457628D01*
X95501944Y-95457628D01*
X95588887Y-95439147D01*
X95682288Y-95419294D01*
X95717102Y-95403794D01*
X95850722Y-95344303D01*
X95850724Y-95344302D01*
X95856752Y-95341618D01*
X96011253Y-95229366D01*
X96017236Y-95222721D01*
X96134621Y-95092352D01*
X96134622Y-95092351D01*
X96139040Y-95087444D01*
X96234527Y-94922056D01*
X96289387Y-94753214D01*
X96320125Y-94703056D01*
X97088911Y-93934270D01*
X97103323Y-93921884D01*
X97114918Y-93913351D01*
X97114923Y-93913346D01*
X97120818Y-93909008D01*
X97125557Y-93903430D01*
X97125560Y-93903427D01*
X97155035Y-93868732D01*
X97161965Y-93861216D01*
X97167660Y-93855521D01*
X97185281Y-93833249D01*
X97188072Y-93829845D01*
X97230591Y-93779797D01*
X97230592Y-93779795D01*
X97235333Y-93774215D01*
X97238661Y-93767699D01*
X97242028Y-93762650D01*
X97245195Y-93757521D01*
X97249734Y-93751784D01*
X97280655Y-93685625D01*
X97282561Y-93681725D01*
X97289416Y-93668301D01*
X97315769Y-93616692D01*
X97317508Y-93609584D01*
X97319607Y-93603941D01*
X97321524Y-93598178D01*
X97324622Y-93591550D01*
X97339487Y-93520083D01*
X97340457Y-93515799D01*
X97349094Y-93480500D01*
X97357808Y-93444890D01*
X97358500Y-93433736D01*
X97358536Y-93433738D01*
X97358775Y-93429745D01*
X97359149Y-93425553D01*
X97360640Y-93418385D01*
X97358546Y-93340979D01*
X97358500Y-93337572D01*
X97358500Y-84536999D01*
X97375381Y-84473999D01*
X97431223Y-84377279D01*
X97431224Y-84377278D01*
X97434527Y-84371556D01*
X97493542Y-84189928D01*
X97513504Y-84000000D01*
X97493542Y-83810072D01*
X97434527Y-83628444D01*
X97339040Y-83463056D01*
X97263142Y-83378762D01*
X97215675Y-83326045D01*
X97215674Y-83326044D01*
X97211253Y-83321134D01*
X97056752Y-83208882D01*
X97050724Y-83206198D01*
X97050722Y-83206197D01*
X96888319Y-83133891D01*
X96888318Y-83133891D01*
X96882288Y-83131206D01*
X96788888Y-83111353D01*
X96701944Y-83092872D01*
X96701939Y-83092872D01*
X96695487Y-83091500D01*
X96504513Y-83091500D01*
X96498061Y-83092872D01*
X96498056Y-83092872D01*
X96411112Y-83111353D01*
X96317712Y-83131206D01*
X96311682Y-83133891D01*
X96311681Y-83133891D01*
X96149278Y-83206197D01*
X96149276Y-83206198D01*
X96143248Y-83208882D01*
X95988747Y-83321134D01*
X95984326Y-83326044D01*
X95984325Y-83326045D01*
X95936859Y-83378762D01*
X95860960Y-83463056D01*
X95765473Y-83628444D01*
X95706458Y-83810072D01*
X95686496Y-84000000D01*
X95706458Y-84189928D01*
X95765473Y-84371556D01*
X95768776Y-84377278D01*
X95768777Y-84377279D01*
X95824619Y-84473999D01*
X95841500Y-84536999D01*
X95841500Y-92984129D01*
X95821498Y-93052250D01*
X95804595Y-93073224D01*
X95243669Y-93634150D01*
X95180772Y-93668301D01*
X95124176Y-93680331D01*
X95124167Y-93680334D01*
X95117712Y-93681706D01*
X95111682Y-93684391D01*
X95111681Y-93684391D01*
X94949278Y-93756697D01*
X94949276Y-93756698D01*
X94943248Y-93759382D01*
X94788747Y-93871634D01*
X94660960Y-94013556D01*
X94565473Y-94178944D01*
X94506458Y-94360572D01*
X94505768Y-94367133D01*
X94505768Y-94367135D01*
X94490910Y-94508500D01*
X94486496Y-94550500D01*
X90508000Y-94550500D01*
X90508000Y-81710058D01*
X90773812Y-81710058D01*
X90773925Y-81714836D01*
X90777939Y-81885164D01*
X90779954Y-81970685D01*
X90780788Y-81975390D01*
X90812284Y-82153104D01*
X90825448Y-82227384D01*
X90909247Y-82474248D01*
X91029423Y-82705596D01*
X91183210Y-82916104D01*
X91367069Y-83100929D01*
X91370908Y-83103764D01*
X91370912Y-83103768D01*
X91572926Y-83252977D01*
X91572930Y-83252980D01*
X91576769Y-83255815D01*
X91581001Y-83258041D01*
X91581000Y-83258041D01*
X91738433Y-83340871D01*
X91807484Y-83377201D01*
X91812005Y-83378762D01*
X92041908Y-83458148D01*
X92053906Y-83462291D01*
X92058612Y-83463150D01*
X92058614Y-83463151D01*
X92089403Y-83468774D01*
X92310363Y-83509129D01*
X92393770Y-83513500D01*
X92556295Y-83513500D01*
X92558674Y-83513319D01*
X92558675Y-83513319D01*
X92745181Y-83499132D01*
X92745186Y-83499131D01*
X92749948Y-83498769D01*
X92754601Y-83497690D01*
X92754604Y-83497690D01*
X92999250Y-83440984D01*
X92999249Y-83440984D01*
X93003914Y-83439903D01*
X93246054Y-83343299D01*
X93470796Y-83211180D01*
X93672967Y-83046587D01*
X93847915Y-82853307D01*
X93991615Y-82635788D01*
X94068174Y-82469720D01*
X94098753Y-82403388D01*
X94098754Y-82403385D01*
X94100759Y-82399036D01*
X94172837Y-82148499D01*
X94206188Y-81889942D01*
X94202932Y-81751780D01*
X94201949Y-81710058D01*
X119073812Y-81710058D01*
X119073925Y-81714836D01*
X119077939Y-81885164D01*
X119079954Y-81970685D01*
X119080788Y-81975390D01*
X119112284Y-82153104D01*
X119125448Y-82227384D01*
X119209247Y-82474248D01*
X119329423Y-82705596D01*
X119483210Y-82916104D01*
X119667069Y-83100929D01*
X119670908Y-83103764D01*
X119670912Y-83103768D01*
X119872926Y-83252977D01*
X119872930Y-83252980D01*
X119876769Y-83255815D01*
X119881001Y-83258041D01*
X119881000Y-83258041D01*
X120038433Y-83340871D01*
X120107484Y-83377201D01*
X120112005Y-83378762D01*
X120341908Y-83458148D01*
X120353906Y-83462291D01*
X120358612Y-83463150D01*
X120358614Y-83463151D01*
X120389403Y-83468774D01*
X120610363Y-83509129D01*
X120693770Y-83513500D01*
X120856295Y-83513500D01*
X120858674Y-83513319D01*
X120858675Y-83513319D01*
X121045181Y-83499132D01*
X121045186Y-83499131D01*
X121049948Y-83498769D01*
X121054601Y-83497690D01*
X121054604Y-83497690D01*
X121299250Y-83440984D01*
X121299249Y-83440984D01*
X121303914Y-83439903D01*
X121546054Y-83343299D01*
X121770796Y-83211180D01*
X121972967Y-83046587D01*
X122147915Y-82853307D01*
X122291615Y-82635788D01*
X122368174Y-82469720D01*
X122398753Y-82403388D01*
X122398754Y-82403385D01*
X122400759Y-82399036D01*
X122472837Y-82148499D01*
X122506188Y-81889942D01*
X122502932Y-81751780D01*
X122500159Y-81634095D01*
X122500159Y-81634090D01*
X122500046Y-81629315D01*
X122468533Y-81451501D01*
X122455386Y-81377320D01*
X122455385Y-81377316D01*
X122454552Y-81372616D01*
X122370753Y-81125752D01*
X122250577Y-80894404D01*
X122096790Y-80683896D01*
X121912931Y-80499071D01*
X121909092Y-80496236D01*
X121909088Y-80496232D01*
X121707074Y-80347023D01*
X121707070Y-80347020D01*
X121703231Y-80344185D01*
X121642267Y-80312110D01*
X121476751Y-80225027D01*
X121476749Y-80225026D01*
X121472516Y-80222799D01*
X121365938Y-80185997D01*
X121230618Y-80139271D01*
X121230616Y-80139271D01*
X121226094Y-80137709D01*
X121221388Y-80136850D01*
X121221386Y-80136849D01*
X121161634Y-80125936D01*
X120969637Y-80090871D01*
X120886230Y-80086500D01*
X120723705Y-80086500D01*
X120721326Y-80086681D01*
X120721325Y-80086681D01*
X120534819Y-80100868D01*
X120534814Y-80100869D01*
X120530052Y-80101231D01*
X120525399Y-80102310D01*
X120525396Y-80102310D01*
X120376385Y-80136849D01*
X120276086Y-80160097D01*
X120033946Y-80256701D01*
X119809204Y-80388820D01*
X119607033Y-80553413D01*
X119432085Y-80746693D01*
X119288385Y-80964212D01*
X119286384Y-80968552D01*
X119286382Y-80968556D01*
X119181247Y-81196612D01*
X119179241Y-81200964D01*
X119107163Y-81451501D01*
X119073812Y-81710058D01*
X94201949Y-81710058D01*
X94200159Y-81634095D01*
X94200159Y-81634090D01*
X94200046Y-81629315D01*
X94168533Y-81451501D01*
X94155386Y-81377320D01*
X94155385Y-81377316D01*
X94154552Y-81372616D01*
X94070753Y-81125752D01*
X93950577Y-80894404D01*
X93796790Y-80683896D01*
X93612931Y-80499071D01*
X93609092Y-80496236D01*
X93609088Y-80496232D01*
X93407074Y-80347023D01*
X93407070Y-80347020D01*
X93403231Y-80344185D01*
X93342267Y-80312110D01*
X93176751Y-80225027D01*
X93176749Y-80225026D01*
X93172516Y-80222799D01*
X93065938Y-80185997D01*
X92930618Y-80139271D01*
X92930616Y-80139271D01*
X92926094Y-80137709D01*
X92921388Y-80136850D01*
X92921386Y-80136849D01*
X92861634Y-80125936D01*
X92669637Y-80090871D01*
X92586230Y-80086500D01*
X92423705Y-80086500D01*
X92421326Y-80086681D01*
X92421325Y-80086681D01*
X92234819Y-80100868D01*
X92234814Y-80100869D01*
X92230052Y-80101231D01*
X92225399Y-80102310D01*
X92225396Y-80102310D01*
X92076385Y-80136849D01*
X91976086Y-80160097D01*
X91733946Y-80256701D01*
X91509204Y-80388820D01*
X91307033Y-80553413D01*
X91132085Y-80746693D01*
X90988385Y-80964212D01*
X90986384Y-80968552D01*
X90986382Y-80968556D01*
X90881247Y-81196612D01*
X90879241Y-81200964D01*
X90807163Y-81451501D01*
X90773812Y-81710058D01*
X90508000Y-81710058D01*
X90508000Y-67400000D01*
X100286496Y-67400000D01*
X100287186Y-67406565D01*
X100305129Y-67577279D01*
X100306458Y-67589928D01*
X100365473Y-67771556D01*
X100368776Y-67777278D01*
X100368777Y-67777279D01*
X100424619Y-67873999D01*
X100441500Y-67936999D01*
X100441500Y-72026366D01*
X100435333Y-72065301D01*
X100392603Y-72196810D01*
X100372641Y-72386738D01*
X100392603Y-72576666D01*
X100451618Y-72758294D01*
X100547105Y-72923682D01*
X100551523Y-72928589D01*
X100551524Y-72928590D01*
X100570802Y-72950000D01*
X100674892Y-73065604D01*
X100725752Y-73102556D01*
X100794790Y-73152715D01*
X100829393Y-73177856D01*
X100835421Y-73180540D01*
X100835423Y-73180541D01*
X100997826Y-73252847D01*
X101003857Y-73255532D01*
X101097258Y-73275385D01*
X101184201Y-73293866D01*
X101184206Y-73293866D01*
X101190658Y-73295238D01*
X101381632Y-73295238D01*
X101388084Y-73293866D01*
X101388089Y-73293866D01*
X101475032Y-73275385D01*
X101568433Y-73255532D01*
X101574464Y-73252847D01*
X101736867Y-73180541D01*
X101736869Y-73180540D01*
X101742897Y-73177856D01*
X101777501Y-73152715D01*
X101846538Y-73102556D01*
X101897398Y-73065604D01*
X102001488Y-72950000D01*
X102020766Y-72928590D01*
X102020767Y-72928589D01*
X102025185Y-72923682D01*
X102120672Y-72758294D01*
X102179687Y-72576666D01*
X102199649Y-72386738D01*
X102179687Y-72196810D01*
X102120672Y-72015182D01*
X102025185Y-71849794D01*
X101990864Y-71811677D01*
X101960147Y-71747669D01*
X101958500Y-71727366D01*
X101958500Y-67936999D01*
X101975381Y-67873999D01*
X102031223Y-67777279D01*
X102031224Y-67777278D01*
X102034527Y-67771556D01*
X102093542Y-67589928D01*
X102094872Y-67577279D01*
X102112814Y-67406565D01*
X102113504Y-67400000D01*
X102093542Y-67210072D01*
X102090269Y-67200000D01*
X106486496Y-67200000D01*
X106487186Y-67206565D01*
X106502169Y-67349116D01*
X106506458Y-67389928D01*
X106565473Y-67571556D01*
X106568776Y-67577278D01*
X106568777Y-67577279D01*
X106624619Y-67673999D01*
X106641500Y-67736999D01*
X106641500Y-72026366D01*
X106635333Y-72065301D01*
X106592603Y-72196810D01*
X106572641Y-72386738D01*
X106592603Y-72576666D01*
X106651618Y-72758294D01*
X106747105Y-72923682D01*
X106751523Y-72928589D01*
X106751524Y-72928590D01*
X106770802Y-72950000D01*
X106874892Y-73065604D01*
X106925752Y-73102556D01*
X106994790Y-73152715D01*
X107029393Y-73177856D01*
X107035421Y-73180540D01*
X107035423Y-73180541D01*
X107197826Y-73252847D01*
X107203857Y-73255532D01*
X107297258Y-73275385D01*
X107384201Y-73293866D01*
X107384206Y-73293866D01*
X107390658Y-73295238D01*
X107581632Y-73295238D01*
X107588084Y-73293866D01*
X107588089Y-73293866D01*
X107675032Y-73275385D01*
X107768433Y-73255532D01*
X107774464Y-73252847D01*
X107936867Y-73180541D01*
X107936869Y-73180540D01*
X107942897Y-73177856D01*
X107977501Y-73152715D01*
X108046538Y-73102556D01*
X108097398Y-73065604D01*
X108201488Y-72950000D01*
X108220766Y-72928590D01*
X108220767Y-72928589D01*
X108225185Y-72923682D01*
X108320672Y-72758294D01*
X108379687Y-72576666D01*
X108399649Y-72386738D01*
X108379687Y-72196810D01*
X108320672Y-72015182D01*
X108225185Y-71849794D01*
X108190864Y-71811677D01*
X108160147Y-71747669D01*
X108158500Y-71727366D01*
X108158500Y-68256244D01*
X108828944Y-68256244D01*
X108848906Y-68446172D01*
X108907921Y-68627800D01*
X108911224Y-68633522D01*
X108911225Y-68633523D01*
X108967067Y-68730243D01*
X108983948Y-68793243D01*
X108983948Y-70775378D01*
X108982515Y-70794328D01*
X108979249Y-70815797D01*
X108979842Y-70823089D01*
X108979842Y-70823092D01*
X108983533Y-70868466D01*
X108983948Y-70878681D01*
X108983948Y-70886741D01*
X108984373Y-70890385D01*
X108987237Y-70914955D01*
X108987670Y-70919330D01*
X108993588Y-70992085D01*
X108995844Y-70999049D01*
X108997035Y-71005008D01*
X108998419Y-71010863D01*
X108999266Y-71018129D01*
X109024183Y-71086775D01*
X109025600Y-71090903D01*
X109048097Y-71160347D01*
X109051893Y-71166602D01*
X109054399Y-71172076D01*
X109057118Y-71177506D01*
X109059615Y-71184385D01*
X109063628Y-71190505D01*
X109063628Y-71190506D01*
X109099634Y-71245424D01*
X109101971Y-71249128D01*
X109139853Y-71311555D01*
X109143569Y-71315763D01*
X109143570Y-71315764D01*
X109147251Y-71319932D01*
X109147224Y-71319956D01*
X109149877Y-71322948D01*
X109152580Y-71326181D01*
X109156592Y-71332300D01*
X109161904Y-71337332D01*
X109212831Y-71385576D01*
X109215273Y-71387954D01*
X110929875Y-73102556D01*
X110960613Y-73152714D01*
X111015473Y-73321556D01*
X111110960Y-73486944D01*
X111238747Y-73628866D01*
X111393248Y-73741118D01*
X111399276Y-73743802D01*
X111399278Y-73743803D01*
X111561681Y-73816109D01*
X111567712Y-73818794D01*
X111661113Y-73838647D01*
X111748056Y-73857128D01*
X111748061Y-73857128D01*
X111754513Y-73858500D01*
X111945487Y-73858500D01*
X111951939Y-73857128D01*
X111951944Y-73857128D01*
X112038887Y-73838647D01*
X112132288Y-73818794D01*
X112138319Y-73816109D01*
X112300722Y-73743803D01*
X112300724Y-73743802D01*
X112306752Y-73741118D01*
X112461253Y-73628866D01*
X112589040Y-73486944D01*
X112684527Y-73321556D01*
X112743542Y-73139928D01*
X112763504Y-72950000D01*
X112743542Y-72760072D01*
X112684527Y-72578444D01*
X112589040Y-72413056D01*
X112571255Y-72393303D01*
X112465675Y-72276045D01*
X112465674Y-72276044D01*
X112461253Y-72271134D01*
X112358955Y-72196810D01*
X112312094Y-72162763D01*
X112312093Y-72162762D01*
X112306752Y-72158882D01*
X112300724Y-72156198D01*
X112300722Y-72156197D01*
X112138319Y-72083891D01*
X112138318Y-72083891D01*
X112132288Y-72081206D01*
X112125833Y-72079834D01*
X112125824Y-72079831D01*
X112069228Y-72067801D01*
X112006331Y-72033650D01*
X110537853Y-70565172D01*
X110503827Y-70502860D01*
X110500948Y-70476077D01*
X110500948Y-68793243D01*
X110517829Y-68730243D01*
X110573671Y-68633523D01*
X110573672Y-68633522D01*
X110576975Y-68627800D01*
X110635990Y-68446172D01*
X110655952Y-68256244D01*
X110635990Y-68066316D01*
X110576975Y-67884688D01*
X110481488Y-67719300D01*
X110353701Y-67577378D01*
X110199200Y-67465126D01*
X110193172Y-67462442D01*
X110193170Y-67462441D01*
X110030767Y-67390135D01*
X110030766Y-67390135D01*
X110024736Y-67387450D01*
X109931336Y-67367597D01*
X109844392Y-67349116D01*
X109844387Y-67349116D01*
X109837935Y-67347744D01*
X109646961Y-67347744D01*
X109640509Y-67349116D01*
X109640504Y-67349116D01*
X109553560Y-67367597D01*
X109460160Y-67387450D01*
X109454130Y-67390135D01*
X109454129Y-67390135D01*
X109291726Y-67462441D01*
X109291724Y-67462442D01*
X109285696Y-67465126D01*
X109131195Y-67577378D01*
X109003408Y-67719300D01*
X108907921Y-67884688D01*
X108848906Y-68066316D01*
X108828944Y-68256244D01*
X108158500Y-68256244D01*
X108158500Y-67736999D01*
X108175381Y-67673999D01*
X108231223Y-67577279D01*
X108231224Y-67577278D01*
X108234527Y-67571556D01*
X108293542Y-67389928D01*
X108297832Y-67349116D01*
X108312814Y-67206565D01*
X108313504Y-67200000D01*
X108295473Y-67028444D01*
X108294232Y-67016635D01*
X108294232Y-67016633D01*
X108293542Y-67010072D01*
X108234527Y-66828444D01*
X108139040Y-66663056D01*
X108022740Y-66533891D01*
X108015675Y-66526045D01*
X108015674Y-66526044D01*
X108011253Y-66521134D01*
X107856752Y-66408882D01*
X107850724Y-66406198D01*
X107850722Y-66406197D01*
X107688319Y-66333891D01*
X107688318Y-66333891D01*
X107682288Y-66331206D01*
X107588888Y-66311353D01*
X107501944Y-66292872D01*
X107501939Y-66292872D01*
X107495487Y-66291500D01*
X107304513Y-66291500D01*
X107298061Y-66292872D01*
X107298056Y-66292872D01*
X107211112Y-66311353D01*
X107117712Y-66331206D01*
X107111682Y-66333891D01*
X107111681Y-66333891D01*
X106949278Y-66406197D01*
X106949276Y-66406198D01*
X106943248Y-66408882D01*
X106788747Y-66521134D01*
X106784326Y-66526044D01*
X106784325Y-66526045D01*
X106777261Y-66533891D01*
X106660960Y-66663056D01*
X106565473Y-66828444D01*
X106506458Y-67010072D01*
X106505768Y-67016633D01*
X106505768Y-67016635D01*
X106504527Y-67028444D01*
X106486496Y-67200000D01*
X102090269Y-67200000D01*
X102034527Y-67028444D01*
X101939040Y-66863056D01*
X101811253Y-66721134D01*
X101656752Y-66608882D01*
X101650724Y-66606198D01*
X101650722Y-66606197D01*
X101488319Y-66533891D01*
X101488318Y-66533891D01*
X101482288Y-66531206D01*
X101388887Y-66511353D01*
X101301944Y-66492872D01*
X101301939Y-66492872D01*
X101295487Y-66491500D01*
X101104513Y-66491500D01*
X101098061Y-66492872D01*
X101098056Y-66492872D01*
X101011113Y-66511353D01*
X100917712Y-66531206D01*
X100911682Y-66533891D01*
X100911681Y-66533891D01*
X100749278Y-66606197D01*
X100749276Y-66606198D01*
X100743248Y-66608882D01*
X100588747Y-66721134D01*
X100460960Y-66863056D01*
X100365473Y-67028444D01*
X100306458Y-67210072D01*
X100286496Y-67400000D01*
X90508000Y-67400000D01*
X90508000Y-65634000D01*
X90528002Y-65565879D01*
X90581658Y-65519386D01*
X90634000Y-65508000D01*
X123366000Y-65508000D01*
X123434121Y-65528002D01*
G37*
%TD.AperFunction*%
%TD*%
M02*
